<?xml version="1.0" encoding="UTF-8"?>
<svg version="1.1" xmlns="http://www.w3.org/2000/svg" width="512" height="512">
<path d="M0 0 C1.82304657 -0.00856522 1.82304657 -0.00856522 3.68292236 -0.01730347 C5.0216216 -0.01854865 6.36032096 -0.01967378 7.69902039 -0.02069092 C9.11533232 -0.0253226 10.53164301 -0.03034773 11.94795227 -0.03573608 C15.78897947 -0.04882755 19.62998923 -0.05529856 23.47103524 -0.05974674 C25.87304877 -0.06268246 28.27505757 -0.06678818 30.67706871 -0.07125092 C38.1991579 -0.08491668 45.72123624 -0.09458809 53.24333698 -0.09845281 C61.91418316 -0.10293279 70.58487165 -0.12048173 79.25566989 -0.1494534 C85.96667149 -0.17109539 92.67762879 -0.18115841 99.3886649 -0.18249393 C103.39296394 -0.18354006 107.39711455 -0.18940709 111.40137672 -0.20731354 C115.1697284 -0.22383811 118.93782075 -0.22592862 122.70619583 -0.21717453 C124.73951356 -0.21604179 126.77282286 -0.22972479 128.80609131 -0.243927 C143.41486143 -0.17744809 143.41486143 -0.17744809 148.49388599 4.59241867 C152.51880238 9.25114912 153.12266225 12.39664965 153.18608093 18.34356689 C153.19415268 19.05897644 153.20222443 19.77438599 153.21054077 20.51147461 C153.22437926 22.02790913 153.23510248 23.54437477 153.2429657 25.06085205 C153.26013226 27.36794084 153.30401092 29.67357871 153.34819031 31.98028564 C153.3583218 33.45553555 153.36683648 34.93079762 153.37358093 36.40606689 C153.39108902 37.09065979 153.40859711 37.77525269 153.42663574 38.48059082 C153.40418721 43.49716157 152.05172876 46.26186492 148.94779968 50.14044189 C145.77477524 53.0754895 144.20949188 54.07501884 139.94779968 55.14044189 C139.61779968 61.74044189 139.28779968 68.34044189 138.94779968 75.14044189 C141.58779968 75.47044189 144.22779968 75.80044189 146.94779968 76.14044189 C160.2666997 80.75607093 168.3383431 89.8559134 174.57279968 102.15997314 C179.0680996 113.6490224 178.23499967 126.71500347 178.20658875 138.83282471 C178.20930382 140.79055918 178.21286763 142.74829263 178.21720886 144.70602417 C178.22627132 149.98670778 178.22281476 155.26731262 178.21645069 160.54799747 C178.2113616 166.09043135 178.21608993 171.63285881 178.21922302 177.17529297 C178.222853 186.47553714 178.21808776 195.77574945 178.20854187 205.07598877 C178.19764639 215.81485072 178.20119476 226.55363679 178.21219468 237.29249692 C178.22127989 246.53359413 178.22254717 255.77466854 178.21731734 265.01576877 C178.21420609 270.52620357 178.21376534 276.03660273 178.22039032 281.54703522 C178.22618156 286.72472554 178.22213435 291.90231821 178.21060181 297.07999802 C178.20796529 298.97581953 178.20870303 300.87164931 178.21312714 302.7674675 C178.21862363 305.36270681 178.2116992 307.95763664 178.20176697 310.55285645 C178.20845913 311.66751624 178.20845913 311.66751624 178.21528649 312.80469441 C178.14646127 322.12895441 176.23406933 330.04259695 169.94779968 337.14044189 C164.0934776 341.78848589 159.05359558 343.28909595 151.63101196 343.29434204 C150.88004716 343.29872429 150.12908236 343.30310655 149.35536104 343.3076216 C146.83140252 343.32100804 144.3074789 343.32718817 141.78349304 343.33331299 C139.97663719 343.34121424 138.16978291 343.34948321 136.3629303 343.35809326 C130.42118334 343.38431644 124.47942934 343.39962383 118.53764343 343.41387939 C116.49138955 343.41923945 114.44513571 343.42461696 112.39888191 343.43001175 C103.88476516 343.45164325 95.3706503 343.47037851 86.85651302 343.48163414 C74.6610928 343.49786283 62.46599173 343.5310114 50.27069181 343.58803499 C41.6930513 343.6267724 33.115496 343.64627149 24.53777033 343.6515547 C19.41658521 343.65520369 14.29574046 343.66717649 9.17465019 343.69965744 C4.35236429 343.72980389 -0.46937649 343.73602644 -5.2917366 343.72427368 C-7.05653481 343.72405348 -8.82135878 343.73231419 -10.58606911 343.74992752 C-20.91207216 343.84733444 -29.59039254 343.56189484 -37.8661356 336.61855125 C-46.99790039 327.25030574 -45.48193592 313.5814861 -45.44038391 301.50079346 C-45.44445383 299.51220411 -45.44979806 297.52361702 -45.45631409 295.53503418 C-45.46994704 290.15463584 -45.46470468 284.77441082 -45.45517683 279.39400959 C-45.44755515 273.74712486 -45.45463319 268.10025448 -45.45933533 262.45336914 C-45.46478737 252.96784822 -45.45761759 243.48239746 -45.4433136 233.99688721 C-45.42700703 223.05763876 -45.43226338 212.11855824 -45.44879282 201.1793139 C-45.46244591 191.76409484 -45.46430813 182.34892609 -45.45647681 172.93370032 C-45.45181884 167.32076504 -45.45112313 161.70790844 -45.46108627 156.09497833 C-45.46980875 150.8122098 -45.46363828 145.52965568 -45.4464035 140.2469101 C-45.4424659 138.31771702 -45.44352542 136.38850564 -45.4501915 134.45932007 C-45.50635265 116.54179396 -44.22080469 100.60724934 -31.42720032 86.82794189 C-23.75230304 79.56915351 -16.49305885 76.44554921 -6.05220032 75.14044189 C-6.05220032 68.54044189 -6.05220032 61.94044189 -6.05220032 55.14044189 C-8.36220032 54.48044189 -10.67220032 53.82044189 -13.05220032 53.14044189 C-17.46290013 49.41585094 -19.84654273 46.53885866 -20.34272766 40.7522583 C-20.3693327 39.41568607 -20.38377754 38.07883428 -20.38813782 36.74200439 C-20.39479462 36.02942474 -20.40145142 35.31684509 -20.40830994 34.58267212 C-20.4184132 33.07819185 -20.42312768 31.57366699 -20.42280579 30.06915283 C-20.4271732 27.77965583 -20.46349631 25.49209737 -20.50141907 23.20294189 C-20.50728915 21.73680261 -20.51125726 20.27065423 -20.51313782 18.80450439 C-20.52750885 18.12618561 -20.54187988 17.44786682 -20.5566864 16.74899292 C-20.50929063 11.76297351 -19.12753508 9.00069769 -16.05220032 5.14044189 C-11.0285407 0.37440584 -6.73078444 0.01899098 0 0 Z " fill="#D4E7F8" transform="translate(284.0522003173828,168.85955810546875)"/>
<path d="M0 0 C7.1863639 5.79545476 12.80848157 13.85558974 13.99365234 23.16357422 C14.17420354 25.32057945 14.26292185 27.46113018 14.3125 29.625 C14.35286377 30.6313147 14.35286377 30.6313147 14.39404297 31.65795898 C14.31122702 42.89020539 7.41902722 53.0004747 1.8125 62.3125 C0.61433173 64.32329377 -0.58229308 66.33500807 -1.77734375 68.34765625 C-2.35339355 69.31719238 -2.92944336 70.28672852 -3.52294922 71.28564453 C-6.20217257 75.88433408 -8.73696818 80.55889196 -11.25 85.25 C-10.6103833 85.64864258 -9.9707666 86.04728516 -9.31176758 86.45800781 C-1.67998065 91.26587619 3.61680109 96.20457516 5.75 105.25 C6.82320338 113.64450863 4.39417715 120.93102457 -0.66015625 127.64453125 C-5.6418814 132.67521685 -12.37693647 135.31718043 -19.375 135.5625 C-26.35182019 135.48217477 -32.31329341 132.48675745 -38.1875 128.9375 C-39.198125 128.380625 -40.20875 127.82375 -41.25 127.25 C-45.02016416 128.50672139 -45.25711403 129.54562331 -47.11328125 132.97265625 C-47.66290527 133.97337158 -48.2125293 134.97408691 -48.77880859 136.00512695 C-49.36742676 137.09656006 -49.95604492 138.18799316 -50.5625 139.3125 C-51.83016929 141.62084501 -53.09955933 143.92816492 -54.37109375 146.234375 C-54.69482971 146.82358231 -55.01856567 147.41278961 -55.35211182 148.01985168 C-58.51182081 153.7589461 -61.80412872 159.41563771 -65.125 165.0625 C-70.22687419 173.75791196 -75.25994731 182.49015058 -80.25 191.25 C-85.78953103 200.97142984 -91.38375187 210.65895304 -97.03344727 220.31689453 C-103.18766742 230.84084625 -109.27369996 241.40380137 -115.35888672 251.96777344 C-118.48680148 257.39659942 -121.61858448 262.82319281 -124.75 268.25 C-126.00001879 270.41665583 -127.25001878 272.5833225 -128.5 274.75 C-136 287.75 -143.5 300.75 -151 313.75 C-151.6194751 314.82386963 -152.2389502 315.89773926 -152.87719727 317.00415039 C-154.11947806 319.15721037 -155.36214988 321.31004478 -156.60522461 323.46264648 C-159.50836112 328.49101461 -162.40778867 333.52139814 -165.29275513 338.56021118 C-166.30877184 340.33432545 -167.32606928 342.10769919 -168.34375 343.88085938 C-169.61582292 346.09815314 -170.88552285 348.31681075 -172.15234375 350.53710938 C-185.77001348 374.24698546 -185.77001348 374.24698546 -198.25 378.25 C-201.1875 378.4375 -201.1875 378.4375 -203.25 378.25 C-203.53214355 378.98283203 -203.81428711 379.71566406 -204.10498047 380.47070312 C-205.86816241 384.75046074 -208.1142671 388.71650659 -210.375 392.75 C-210.82359375 393.59175781 -211.2721875 394.43351562 -211.734375 395.30078125 C-215.27655627 401.58370054 -219.27043117 405.78199421 -226.33691406 407.86523438 C-231.64183737 408.96821051 -236.52419053 407.7745082 -241.25 405.25 C-246.16921243 401.46356996 -248.01719517 397.01244069 -249.31640625 391.0703125 C-249.11414967 382.48035647 -244.19994009 375.45680961 -239.5703125 368.55664062 C-236.20153851 363.20304804 -235.92365346 360.43115567 -237.25 354.25 C-238.37162024 341.06636533 -233.03870275 331.26906453 -226.4375 320.1875 C-225.43123385 318.47133376 -224.42498183 316.75515903 -223.41958618 315.03848267 C-222.38316744 313.27128842 -221.34298317 311.50635309 -220.30224609 309.74169922 C-217.07852101 304.267424 -213.91806164 298.7566018 -210.75 293.25 C-209.50028686 291.08316786 -208.25028615 288.91650156 -207 286.75 C-206.071875 285.14125 -206.071875 285.14125 -205.125 283.5 C-203.25 280.25 -201.375 277 -199.5 273.75 C-198.88116943 272.67733887 -198.26233887 271.60467773 -197.62475586 270.49951172 C-196.37564482 268.33442929 -195.12645871 266.16939018 -193.87719727 264.00439453 C-190.73797691 258.56384294 -187.60009437 253.12252784 -184.46484375 247.6796875 C-178.44252671 237.22793801 -172.40330663 226.78700452 -166.3125 216.375 C-161.23724877 207.69737759 -156.22741233 198.98394432 -151.25 190.25 C-145.7099827 180.52884383 -140.11625191 170.84105342 -134.46655273 161.18310547 C-128.96615761 151.77721953 -123.52015794 142.34042845 -118.08203125 132.8984375 C-115.76792739 128.8806218 -113.44971817 124.86524574 -111.12535095 120.85336304 C-109.74750497 118.4751401 -108.37091215 116.0961928 -106.99435425 113.71722412 C-106.02549667 112.04403208 -105.05488609 110.3718555 -104.08422852 108.69970703 C-103.49440186 107.67989746 -102.9045752 106.66008789 -102.296875 105.609375 C-101.77963867 104.71702148 -101.26240234 103.82466797 -100.72949219 102.90527344 C-99.14503955 100.06162543 -97.68548556 97.17128269 -96.25 94.25 C-97.425625 93.9715625 -97.425625 93.9715625 -98.625 93.6875 C-106.32156368 90.6354144 -113.40826694 85.74892872 -117.25 78.25 C-120.09433863 70.80054169 -120.09784082 63.89459225 -117.34765625 56.48828125 C-114.22450077 50.11971153 -109.48322285 45.40005721 -102.82421875 42.87890625 C-92.65552937 40.39459822 -84.400084 42.63374141 -75.25 47.25 C-74.85494263 46.19159912 -74.85494263 46.19159912 -74.4519043 45.11181641 C-73.17535746 42.07227101 -71.66786408 39.31570081 -70.01953125 36.4609375 C-69.06143555 34.79998047 -69.06143555 34.79998047 -68.08398438 33.10546875 C-67.58451294 32.24574463 -67.58451294 32.24574463 -67.07495117 31.36865234 C-66.07887588 29.65320268 -65.08918683 27.93404996 -64.09960938 26.21484375 C-48.11338166 -1.41370166 -48.11338166 -1.41370166 -33.5234375 -6.33203125 C-21.3462862 -8.57078587 -10.21875993 -7.01700963 0 0 Z " fill="#010101" transform="translate(315.25,6.75)"/>
<path d="M0 0 C3.5 0.875 3.5 0.875 5.19452 2.50547886 C6.94731519 5.68690274 6.88046157 8.0341226 6.88768005 11.66233826 C6.89575836 12.68510293 6.89575836 12.68510293 6.90399987 13.72852951 C6.91830348 16.01248145 6.91117012 18.29585576 6.90405273 20.57983398 C6.90975508 22.21761542 6.91671881 23.85539288 6.92485046 25.49316406 C6.9428123 29.94152534 6.94160781 34.38968968 6.93590808 38.83807635 C6.93282053 42.55090067 6.93890385 46.26368691 6.94494683 49.97650582 C6.95900043 58.73510176 6.95742388 67.49360018 6.94604492 76.25219727 C6.93456303 85.28976554 6.94863862 94.3270371 6.9754414 103.36456627 C6.99758873 111.12264391 7.00423796 118.88062834 6.99836498 126.63873535 C6.99499186 131.27285971 6.997434 135.90679385 7.01461601 140.54089165 C7.03006768 144.89861161 7.02614957 149.25589159 7.00731087 153.61359406 C7.00362001 155.21276578 7.00674795 156.81196998 7.01719666 158.41111183 C7.03037529 160.59480938 7.01888915 162.77704361 7.00120544 164.9606781 C7.00099616 166.18238929 7.00078688 167.40410048 7.00057125 168.66283321 C6.3892017 172.58599293 5.45093452 174.22919936 2.5 176.875 C-0.30800629 177.5042057 -0.30800629 177.5042057 -3.61071777 177.50991821 C-4.86414474 177.52401733 -6.11757172 177.53811646 -7.40898132 177.55264282 C-8.79544429 177.54292158 -10.18190368 177.53268075 -11.56835938 177.52197266 C-13.03043202 177.52874883 -14.49249613 177.53765197 -15.95454407 177.54852295 C-19.92367019 177.57132358 -23.89214674 177.56247726 -27.86128426 177.54662752 C-32.01410809 177.53397228 -36.16687614 177.54570757 -40.31970215 177.55355835 C-47.2938028 177.56265605 -54.26763875 177.55066399 -61.24169922 177.52685547 C-69.30577542 177.49964376 -77.36921958 177.50845786 -85.43328047 177.5359875 C-92.35571438 177.55867428 -99.27795797 177.56188082 -106.20041704 177.54879415 C-110.33543286 177.54099719 -114.47015156 177.53996453 -118.60514832 177.55647659 C-122.4927092 177.57091608 -126.37945494 177.56091041 -130.26692772 177.53200531 C-131.69396295 177.52539152 -133.12106673 177.52729734 -134.54807472 177.53831863 C-136.49511904 177.55197042 -138.44231321 177.53181861 -140.38928223 177.50991821 C-141.47917702 177.50803308 -142.56907181 177.50614796 -143.69199371 177.5042057 C-146.5 176.875 -146.5 176.875 -148.84975338 174.69111443 C-150.70070011 171.53250909 -151.00430838 169.81403137 -151.0146637 166.18225098 C-151.02738815 165.04669266 -151.04011261 163.91113434 -151.05322266 162.74116516 C-151.04669678 161.50464706 -151.0401709 160.26812897 -151.03344727 158.99414062 C-151.04206284 157.68470993 -151.05067841 156.37527924 -151.05955505 155.02616882 C-151.08203136 151.44140001 -151.07911393 147.85707306 -151.07023358 144.27226067 C-151.06511917 141.27763012 -151.0724198 138.28308228 -151.07970566 135.28846025 C-151.09669862 128.22364588 -151.09314452 121.15904753 -151.07641602 114.09423828 C-151.05948839 106.80893451 -151.07533884 99.52422964 -151.1076389 92.23899126 C-151.13433715 85.97979569 -151.14161043 79.72078653 -151.13312382 73.46153975 C-151.12819601 69.72498244 -151.13040196 65.98878559 -151.15091133 62.25227356 C-151.17268354 58.08642182 -151.15386753 53.92170569 -151.13110352 49.75585938 C-151.14279572 48.51934128 -151.15448792 47.28282318 -151.16653442 46.00883484 C-151.07333315 37.64501246 -151.07333315 37.64501246 -148.12657166 33.68737793 C-147.25980301 33.08929321 -146.39303436 32.4912085 -145.5 31.875 C-144.6234375 31.25496094 -143.746875 30.63492187 -142.84375 29.99609375 C-132.73356647 24.01053179 -121.72723224 19.75603091 -109.8515625 19.7421875 C-108.76230469 19.74089844 -107.67304688 19.73960937 -106.55078125 19.73828125 C-105.42027344 19.74214844 -104.28976562 19.74601562 -103.125 19.75 C-102.03316406 19.74613281 -100.94132812 19.74226563 -99.81640625 19.73828125 C-93.90325924 19.74519721 -88.04679866 19.93837304 -82.1484375 20.36328125 C-74.93907851 20.88002788 -67.74673006 21.12734007 -60.52050781 21.17016602 C-59.17339607 21.18172292 -57.82633143 21.20223345 -56.47949219 21.23168945 C-37.77686191 21.63659642 -22.31286809 16.92364681 -8.59375 3.828125 C-5.54103371 0.98044189 -4.27290746 -0.15260384 0 0 Z " fill="#60A6F1" transform="translate(422.5,302.125)"/>
<path d="M0 0 C1.82304657 -0.00856522 1.82304657 -0.00856522 3.68292236 -0.01730347 C5.0216216 -0.01854865 6.36032096 -0.01967378 7.69902039 -0.02069092 C9.11533232 -0.0253226 10.53164301 -0.03034773 11.94795227 -0.03573608 C15.78897947 -0.04882755 19.62998923 -0.05529856 23.47103524 -0.05974674 C25.87304877 -0.06268246 28.27505757 -0.06678818 30.67706871 -0.07125092 C38.1991579 -0.08491668 45.72123624 -0.09458809 53.24333698 -0.09845281 C61.91418316 -0.10293279 70.58487165 -0.12048173 79.25566989 -0.1494534 C85.96667149 -0.17109539 92.67762879 -0.18115841 99.3886649 -0.18249393 C103.39296394 -0.18354006 107.39711455 -0.18940709 111.40137672 -0.20731354 C115.1697284 -0.22383811 118.93782075 -0.22592862 122.70619583 -0.21717453 C124.73951356 -0.21604179 126.77282286 -0.22972479 128.80609131 -0.243927 C143.41486143 -0.17744809 143.41486143 -0.17744809 148.49388599 4.59241867 C152.51880238 9.25114912 153.12266225 12.39664965 153.18608093 18.34356689 C153.19415268 19.05897644 153.20222443 19.77438599 153.21054077 20.51147461 C153.22437926 22.02790913 153.23510248 23.54437477 153.2429657 25.06085205 C153.26013226 27.36794084 153.30401092 29.67357871 153.34819031 31.98028564 C153.3583218 33.45553555 153.36683648 34.93079762 153.37358093 36.40606689 C153.39108902 37.09065979 153.40859711 37.77525269 153.42663574 38.48059082 C153.40418721 43.49716157 152.05172876 46.26186492 148.94779968 50.14044189 C145.77477524 53.0754895 144.20949188 54.07501884 139.94779968 55.14044189 C139.61779968 61.74044189 139.28779968 68.34044189 138.94779968 75.14044189 C141.58779968 75.47044189 144.22779968 75.80044189 146.94779968 76.14044189 C160.2666997 80.75607093 168.3383431 89.8559134 174.57279968 102.15997314 C179.0680996 113.6490224 178.23499967 126.71500347 178.20658875 138.83282471 C178.20930382 140.79055918 178.21286763 142.74829263 178.21720886 144.70602417 C178.22627132 149.98670778 178.22281476 155.26731262 178.21645069 160.54799747 C178.2113616 166.09043135 178.21608993 171.63285881 178.21922302 177.17529297 C178.222853 186.47553714 178.21808776 195.77574945 178.20854187 205.07598877 C178.19764639 215.81485072 178.20119476 226.55363679 178.21219468 237.29249692 C178.22127989 246.53359413 178.22254717 255.77466854 178.21731734 265.01576877 C178.21420609 270.52620357 178.21376534 276.03660273 178.22039032 281.54703522 C178.22618156 286.72472554 178.22213435 291.90231821 178.21060181 297.07999802 C178.20796529 298.97581953 178.20870303 300.87164931 178.21312714 302.7674675 C178.21862363 305.36270681 178.2116992 307.95763664 178.20176697 310.55285645 C178.20845913 311.66751624 178.20845913 311.66751624 178.21528649 312.80469441 C178.14646127 322.12895441 176.23406933 330.04259695 169.94779968 337.14044189 C164.0934776 341.78848589 159.05359558 343.28909595 151.63101196 343.29434204 C150.88004716 343.29872429 150.12908236 343.30310655 149.35536104 343.3076216 C146.83140252 343.32100804 144.3074789 343.32718817 141.78349304 343.33331299 C139.97663719 343.34121424 138.16978291 343.34948321 136.3629303 343.35809326 C130.42118334 343.38431644 124.47942934 343.39962383 118.53764343 343.41387939 C116.49138955 343.41923945 114.44513571 343.42461696 112.39888191 343.43001175 C103.88476516 343.45164325 95.3706503 343.47037851 86.85651302 343.48163414 C74.6610928 343.49786283 62.46599173 343.5310114 50.27069181 343.58803499 C41.6930513 343.6267724 33.115496 343.64627149 24.53777033 343.6515547 C19.41658521 343.65520369 14.29574046 343.66717649 9.17465019 343.69965744 C4.35236429 343.72980389 -0.46937649 343.73602644 -5.2917366 343.72427368 C-7.05653481 343.72405348 -8.82135878 343.73231419 -10.58606911 343.74992752 C-20.91207216 343.84733444 -29.59039254 343.56189484 -37.8661356 336.61855125 C-46.99790039 327.25030574 -45.48193592 313.5814861 -45.44038391 301.50079346 C-45.44445383 299.51220411 -45.44979806 297.52361702 -45.45631409 295.53503418 C-45.46994704 290.15463584 -45.46470468 284.77441082 -45.45517683 279.39400959 C-45.44755515 273.74712486 -45.45463319 268.10025448 -45.45933533 262.45336914 C-45.46478737 252.96784822 -45.45761759 243.48239746 -45.4433136 233.99688721 C-45.42700703 223.05763876 -45.43226338 212.11855824 -45.44879282 201.1793139 C-45.46244591 191.76409484 -45.46430813 182.34892609 -45.45647681 172.93370032 C-45.45181884 167.32076504 -45.45112313 161.70790844 -45.46108627 156.09497833 C-45.46980875 150.8122098 -45.46363828 145.52965568 -45.4464035 140.2469101 C-45.4424659 138.31771702 -45.44352542 136.38850564 -45.4501915 134.45932007 C-45.50635265 116.54179396 -44.22080469 100.60724934 -31.42720032 86.82794189 C-23.75230304 79.56915351 -16.49305885 76.44554921 -6.05220032 75.14044189 C-6.05220032 68.54044189 -6.05220032 61.94044189 -6.05220032 55.14044189 C-8.36220032 54.48044189 -10.67220032 53.82044189 -13.05220032 53.14044189 C-17.46290013 49.41585094 -19.84654273 46.53885866 -20.34272766 40.7522583 C-20.3693327 39.41568607 -20.38377754 38.07883428 -20.38813782 36.74200439 C-20.39479462 36.02942474 -20.40145142 35.31684509 -20.40830994 34.58267212 C-20.4184132 33.07819185 -20.42312768 31.57366699 -20.42280579 30.06915283 C-20.4271732 27.77965583 -20.46349631 25.49209737 -20.50141907 23.20294189 C-20.50728915 21.73680261 -20.51125726 20.27065423 -20.51313782 18.80450439 C-20.52750885 18.12618561 -20.54187988 17.44786682 -20.5566864 16.74899292 C-20.50929063 11.76297351 -19.12753508 9.00069769 -16.05220032 5.14044189 C-11.0285407 0.37440584 -6.73078444 0.01899098 0 0 Z M7.94779968 54.14044189 C7.61779968 64.37044189 7.28779968 74.60044189 6.94779968 85.14044189 C4.94779968 87.14044189 4.94779968 87.14044189 1.07279968 87.45294189 C-7.95328169 88.29731725 -17.02684464 92.26122566 -23.05220032 99.14044189 C-28.39106446 106.26368577 -30.35567584 112.80037541 -30.31289673 121.72480774 C-30.31672228 122.57578535 -30.32054782 123.42676296 -30.3244893 124.30352777 C-30.3347872 127.14774799 -30.33083328 129.99176513 -30.32685852 132.83599854 C-30.33120668 134.87800788 -30.33639018 136.92001559 -30.34234619 138.96202087 C-30.35573399 144.50316528 -30.35631525 150.04424148 -30.35378289 155.58539891 C-30.35271336 160.21043015 -30.35759594 164.83544758 -30.36238831 169.46047586 C-30.37348205 180.36886372 -30.37392119 191.27721714 -30.36787415 202.18560791 C-30.36182909 213.44418025 -30.37415922 224.70262779 -30.39544421 235.96117884 C-30.41304492 245.62584959 -30.41906412 255.29048056 -30.41580647 264.95516676 C-30.41399154 270.72828944 -30.41665104 276.50132303 -30.43052101 282.27443123 C-30.44307034 287.7007414 -30.4411827 293.12685645 -30.42811012 298.55316353 C-30.42573873 300.54580246 -30.42849906 302.53845501 -30.43673325 304.53107834 C-30.44715452 307.24863362 -30.43913739 309.96552849 -30.42642212 312.68305969 C-30.4337964 313.47372001 -30.44117069 314.26438033 -30.44876844 315.07900006 C-30.3926585 320.76899794 -29.24328123 323.88548235 -25.31458855 327.92871189 C-22.09408842 329.65360445 -19.49842999 329.52131598 -15.85398865 329.52812195 C-15.12793202 329.53350749 -14.4018754 329.53889302 -13.65381706 329.54444176 C-11.22019572 329.55875263 -8.78711593 329.55161009 -6.35346985 329.54449463 C-4.60893821 329.55019663 -2.86441031 329.55716023 -1.11988831 329.56529236 C3.6198496 329.58325917 8.35940273 329.5820486 13.09916449 329.57634997 C17.05545582 329.57326275 21.01171142 329.57934548 24.96799767 329.58538872 C34.3019527 329.59944434 43.63581623 329.59786446 52.96977234 329.58648682 C62.59920868 329.57500837 72.22836642 329.58907433 81.85776603 329.61588329 C90.12455866 329.63803698 98.39126382 329.6446783 106.65808403 329.63880688 C111.59572589 329.63543485 116.53318922 329.63786855 121.47080612 329.65505791 C126.11497048 329.67051934 130.75872217 329.66658042 135.40287018 329.64775276 C137.10643815 329.64406444 138.81003663 329.64718244 140.51357651 329.65763855 C142.84140044 329.6708344 145.16785547 329.65931491 147.49562073 329.64164734 C148.7975279 329.64143806 150.09943508 329.64122877 151.44079399 329.64101315 C156.17858872 328.96476565 159.33244377 327.19809016 162.30608559 323.41025066 C163.29629459 319.90777957 163.22934832 316.43282657 163.21522522 312.82350159 C163.21975633 311.97705509 163.22428745 311.13060859 163.22895586 310.2585122 C163.24163298 307.41742376 163.23997734 304.57652622 163.23832703 301.7354126 C163.24431033 299.70018771 163.25111541 297.6649651 163.25868225 295.62974548 C163.27637258 290.09648456 163.28103899 284.56328548 163.28231382 279.02999902 C163.28421214 274.41041477 163.29156914 269.79084495 163.29865801 265.17126626 C163.31495214 254.26946387 163.31982614 243.36769451 163.31840515 232.46588135 C163.31720437 221.22443987 163.33829124 209.9831906 163.36989248 198.74179775 C163.39605989 189.08899321 163.4067722 179.43625141 163.40549433 169.78341168 C163.40498471 164.01904022 163.41066779 158.25483942 163.43185043 152.49050331 C163.45123974 147.06580766 163.45135233 141.64144527 163.43681717 136.21673775 C163.43472864 134.22900149 163.43943254 132.24124435 163.45153809 130.25354385 C163.46703092 127.53274039 163.45765585 124.81308019 163.442276 122.09230042 C163.45256313 121.31192722 163.46285025 120.53155403 163.47344911 119.72753316 C163.36121083 110.69732055 159.0921504 102.64036846 152.94779968 96.14044189 C146.67944867 90.93933168 138.94557022 88.55895741 130.94779968 87.57794189 C127.94779968 87.14044189 127.94779968 87.14044189 125.94779968 85.14044189 C125.61779968 74.91044189 125.28779968 64.68044189 124.94779968 54.14044189 C86.33779968 54.14044189 47.72779968 54.14044189 7.94779968 54.14044189 Z " fill="#010101" transform="translate(284.0522003173828,168.85955810546875)"/>
<path d="M0 0 C5.54948626 2.11485786 10.58386222 4.96774028 15.75 7.875 C16.72066406 8.40480469 17.69132813 8.93460938 18.69140625 9.48046875 C19.61308594 9.99996094 20.53476563 10.51945312 21.484375 11.0546875 C22.32709961 11.52374512 23.16982422 11.99280273 24.03808594 12.47607422 C26 14 26 14 26.94824219 15.86132812 C27.02221882 18.91809845 25.90385619 20.5469143 24.34375 23.1640625 C23.43979492 24.70320313 23.43979492 24.70320313 22.51757812 26.2734375 C21.85177734 27.37945312 21.18597656 28.48546875 20.5 29.625 C19.81054051 30.79089389 19.12241009 31.95757467 18.43554688 33.125 C17.00644609 35.55159229 15.57166338 37.9746851 14.1328125 40.39550781 C10.86801075 45.89914662 7.68828105 51.45181559 4.5 57 C3.25040465 59.16690007 2.00040319 61.33356599 0.75 63.5 C-0.178125 65.10875 -0.178125 65.10875 -1.125 66.75 C-28 113.33333333 -54.875 159.91666667 -81.75 206.5 C-82.36963623 207.57411133 -82.98927246 208.64822266 -83.62768555 209.75488281 C-84.86847033 211.90542543 -86.10951535 214.05581792 -87.35083008 216.20605469 C-90.27019474 221.26377813 -93.18696209 226.32294493 -96.09432983 231.38757324 C-97.46174766 233.76923502 -98.83067039 236.1500302 -100.19970703 238.53076172 C-101.16064553 240.20326021 -102.11941672 241.87700336 -103.078125 243.55078125 C-112.18993003 259.39130384 -112.18993003 259.39130384 -119 262 C-121.68345445 262.54261028 -124.26074072 262.77172839 -127 263 C-127.99 263.33 -128.98 263.66 -130 264 C-131.08612532 266.30255637 -131.08612532 266.30255637 -132 269 C-133.83433607 272.64071079 -135.82614913 276.19042081 -137.8125 279.75 C-138.33392578 280.72066406 -138.85535156 281.69132812 -139.39257812 282.69140625 C-140.16698242 284.07392578 -140.16698242 284.07392578 -140.95703125 285.484375 C-141.42085205 286.32709961 -141.88467285 287.16982422 -142.36254883 288.03808594 C-144 290 -144 290 -146.56518555 290.90722656 C-147.36867432 290.9378418 -148.17216309 290.96845703 -149 291 C-149.66 290.34 -150.32 289.68 -151 289 C-150.66810846 284.96841826 -149.10836684 282.13742565 -147.0234375 278.7265625 C-146.435625 277.7365625 -145.8478125 276.7465625 -145.2421875 275.7265625 C-143.99875743 273.66111589 -142.74614833 271.60116712 -141.484375 269.546875 C-137.7187652 263.63253549 -137.7187652 263.63253549 -137.0390625 256.8984375 C-137.88967859 254.10145696 -137.88967859 254.10145696 -139 252 C-139.916008 243.98020389 -138.53311532 238.60750365 -134.375 231.8125 C-133.88354492 230.96574707 -133.39208984 230.11899414 -132.88574219 229.24658203 C-131.82644959 227.42767818 -130.7564521 225.61497354 -129.67675781 223.80810547 C-127.9880354 220.9799626 -126.33005276 218.13583111 -124.6796875 215.28515625 C-122.35363646 211.271991 -120.01590037 207.26602816 -117.66796875 203.265625 C-113.93674029 196.90228965 -110.24521942 190.51650445 -106.5625 184.125 C-105.94020508 183.04524902 -105.31791016 181.96549805 -104.67675781 180.85302734 C-103.41471274 178.66285466 -102.15283148 176.47258757 -100.89111328 174.28222656 C-97.76319852 168.85340058 -94.63141552 163.42680719 -91.5 158 C-90.24998121 155.83334417 -88.99998122 153.6666775 -87.75 151.5 C-70.25 121.16666667 -52.75 90.83333333 -35.25 60.5 C-34.3211499 58.88992065 -34.3211499 58.88992065 -33.37353516 57.24731445 C-32.12858718 55.08950197 -30.8834711 52.93178647 -29.63818359 50.77416992 C-26.43447349 45.22283408 -23.2340637 39.66963459 -20.0390625 34.11328125 C-13.46078718 22.67967041 -6.86060273 11.26700611 0 0 Z " fill="#D4E7F8" transform="translate(232,109)"/>
<path d="M0 0 C3.5 0.875 3.5 0.875 5.19452 2.50547886 C6.94731519 5.68690274 6.88046157 8.0341226 6.88768005 11.66233826 C6.89575836 12.68510293 6.89575836 12.68510293 6.90399987 13.72852951 C6.91830348 16.01248145 6.91117012 18.29585576 6.90405273 20.57983398 C6.90975508 22.21761542 6.91671881 23.85539288 6.92485046 25.49316406 C6.9428123 29.94152534 6.94160781 34.38968968 6.93590808 38.83807635 C6.93282053 42.55090067 6.93890385 46.26368691 6.94494683 49.97650582 C6.95900043 58.73510176 6.95742388 67.49360018 6.94604492 76.25219727 C6.93456303 85.28976554 6.94863862 94.3270371 6.9754414 103.36456627 C6.99758873 111.12264391 7.00423796 118.88062834 6.99836498 126.63873535 C6.99499186 131.27285971 6.997434 135.90679385 7.01461601 140.54089165 C7.03006768 144.89861161 7.02614957 149.25589159 7.00731087 153.61359406 C7.00362001 155.21276578 7.00674795 156.81196998 7.01719666 158.41111183 C7.03037529 160.59480938 7.01888915 162.77704361 7.00120544 164.9606781 C7.00099616 166.18238929 7.00078688 167.40410048 7.00057125 168.66283321 C6.3892017 172.58599293 5.45093452 174.22919936 2.5 176.875 C-0.30800629 177.5042057 -0.30800629 177.5042057 -3.61071777 177.50991821 C-4.86414474 177.52401733 -6.11757172 177.53811646 -7.40898132 177.55264282 C-8.79544429 177.54292158 -10.18190368 177.53268075 -11.56835938 177.52197266 C-13.03043202 177.52874883 -14.49249613 177.53765197 -15.95454407 177.54852295 C-19.92367019 177.57132358 -23.89214674 177.56247726 -27.86128426 177.54662752 C-32.01410809 177.53397228 -36.16687614 177.54570757 -40.31970215 177.55355835 C-47.2938028 177.56265605 -54.26763875 177.55066399 -61.24169922 177.52685547 C-69.30577542 177.49964376 -77.36921958 177.50845786 -85.43328047 177.5359875 C-92.35571438 177.55867428 -99.27795797 177.56188082 -106.20041704 177.54879415 C-110.33543286 177.54099719 -114.47015156 177.53996453 -118.60514832 177.55647659 C-122.4927092 177.57091608 -126.37945494 177.56091041 -130.26692772 177.53200531 C-131.69396295 177.52539152 -133.12106673 177.52729734 -134.54807472 177.53831863 C-136.49511904 177.55197042 -138.44231321 177.53181861 -140.38928223 177.50991821 C-141.47917702 177.50803308 -142.56907181 177.50614796 -143.69199371 177.5042057 C-146.5 176.875 -146.5 176.875 -148.84975338 174.69111443 C-150.70070011 171.53250909 -151.00430838 169.81403137 -151.0146637 166.18225098 C-151.02738815 165.04669266 -151.04011261 163.91113434 -151.05322266 162.74116516 C-151.04669678 161.50464706 -151.0401709 160.26812897 -151.03344727 158.99414062 C-151.04206284 157.68470993 -151.05067841 156.37527924 -151.05955505 155.02616882 C-151.08203136 151.44140001 -151.07911393 147.85707306 -151.07023358 144.27226067 C-151.06511917 141.27763012 -151.0724198 138.28308228 -151.07970566 135.28846025 C-151.09669862 128.22364588 -151.09314452 121.15904753 -151.07641602 114.09423828 C-151.05948839 106.80893451 -151.07533884 99.52422964 -151.1076389 92.23899126 C-151.13433715 85.97979569 -151.14161043 79.72078653 -151.13312382 73.46153975 C-151.12819601 69.72498244 -151.13040196 65.98878559 -151.15091133 62.25227356 C-151.17268354 58.08642182 -151.15386753 53.92170569 -151.13110352 49.75585938 C-151.14279572 48.51934128 -151.15448792 47.28282318 -151.16653442 46.00883484 C-151.07333315 37.64501246 -151.07333315 37.64501246 -148.12657166 33.68737793 C-147.25980301 33.08929321 -146.39303436 32.4912085 -145.5 31.875 C-144.6234375 31.25496094 -143.746875 30.63492187 -142.84375 29.99609375 C-132.73356647 24.01053179 -121.72723224 19.75603091 -109.8515625 19.7421875 C-108.76230469 19.74089844 -107.67304688 19.73960937 -106.55078125 19.73828125 C-105.42027344 19.74214844 -104.28976562 19.74601562 -103.125 19.75 C-102.03316406 19.74613281 -100.94132812 19.74226563 -99.81640625 19.73828125 C-93.90325924 19.74519721 -88.04679866 19.93837304 -82.1484375 20.36328125 C-74.93907851 20.88002788 -67.74673006 21.12734007 -60.52050781 21.17016602 C-59.17339607 21.18172292 -57.82633143 21.20223345 -56.47949219 21.23168945 C-37.77686191 21.63659642 -22.31286809 16.92364681 -8.59375 3.828125 C-5.54103371 0.98044189 -4.27290746 -0.15260384 0 0 Z M-16.69921875 27.26953125 C-29.44407021 34.5751574 -43.70125018 35.35599549 -58.05639648 35.15625 C-60.32878057 35.12477449 -62.60046483 35.1152215 -64.87304688 35.109375 C-71.92382436 35.07164265 -78.89581131 34.83645077 -85.91381836 34.10644531 C-103.22760846 32.55698123 -120.21838722 32.79746079 -135.5 41.875 C-136.72326506 42.87738464 -136.72326506 42.87738464 -136.62304783 44.88774967 C-136.62212604 45.77912349 -136.62120424 46.6704973 -136.62025452 47.58888245 C-136.62163201 48.60624009 -136.62300951 49.62359774 -136.62442875 50.6717844 C-136.62083064 51.80175815 -136.61723253 52.93173189 -136.61352539 54.09594727 C-136.61364593 55.29544227 -136.61376646 56.49493727 -136.61389065 57.7307806 C-136.61314105 61.634341 -136.60551066 65.53785433 -136.59765625 69.44140625 C-136.59618698 71.84305803 -136.59516618 74.24471014 -136.59460449 76.6463623 C-136.5893499 85.5767464 -136.57538885 94.50712366 -136.5625 103.4375 C-136.541875 123.381875 -136.52125 143.32625 -136.5 163.875 C-93.93 163.875 -51.36 163.875 -7.5 163.875 C-7.5 117.345 -7.5 70.815 -7.5 22.875 C-11.02700989 22.875 -13.77999473 25.43082872 -16.69921875 27.26953125 Z " fill="#040405" transform="translate(422.5,302.125)"/>
<path d="M0 0 C5.27811704 3.0517508 9.06296684 7.71272782 12.1875 12.875 C14.61562514 24.20625063 10.20364362 31.85764004 4.75 41.5 C4.16573242 42.53511719 3.58146484 43.57023437 2.97949219 44.63671875 C-9.00441737 65.7712036 -9.00441737 65.7712036 -14.32788086 73.83544922 C-16.11740543 77.06578507 -16.16551892 78.96871274 -15.25 82.5 C-12.51415499 84.94753847 -9.40693425 86.6507294 -6.25 88.5 C-4.7543063 89.56039875 -3.27377351 90.64264962 -1.8125 91.75 C-1.17441406 92.22953125 -0.53632813 92.7090625 0.12109375 93.203125 C3.67041415 96.02896283 3.67041415 96.02896283 4.0859375 98.48828125 C4.15577104 102.64337707 4.13082051 104.89068719 1.875 108.5 C-1.43184675 111.61232635 -4.02169137 112.00247731 -8.57861328 111.93798828 C-14.05271268 111.04048012 -18.53507282 107.8118869 -23.1875 104.9375 C-24.91479378 103.90503654 -26.64210639 102.87260299 -28.37054443 101.84205627 C-30.1563404 100.77418838 -31.93704247 99.69818893 -33.71728516 98.62109375 C-39.21810554 95.30411472 -44.80199038 92.1310413 -50.375 88.9375 C-52.51606248 87.69997532 -54.65668816 86.46169465 -56.796875 85.22265625 C-61.2129592 82.66906028 -65.64158868 80.1389738 -70.078125 77.62109375 C-72.26049819 76.37253831 -74.4427928 75.12384553 -76.625 73.875 C-77.63578613 73.3070874 -78.64657227 72.7391748 -79.68798828 72.15405273 C-88.60751636 67.02459449 -88.60751636 67.02459449 -91.25 62.5 C-92.16825498 56.07221516 -92.16825498 56.07221516 -90.19140625 52.6875 C-88.42443159 50.50630873 -86.77695685 48.76347843 -84.25 47.5 C-76.69721411 47.5 -72.45676802 50.01135873 -66.13671875 53.9765625 C-62.15697004 56.07683584 -59.64487864 56.09161828 -55.25 55.5 C-54.85167969 54.43507324 -54.85167969 54.43507324 -54.4453125 53.34863281 C-53.20080403 50.38275764 -51.73947737 47.70309387 -50.125 44.921875 C-49.50568604 43.85106689 -48.88637207 42.78025879 -48.24829102 41.67700195 C-47.58885498 40.54609131 -46.92941895 39.41518066 -46.25 38.25 C-45.56756231 37.07840679 -44.88518969 35.90677568 -44.20288086 34.73510742 C-43.17919436 32.97732785 -42.15519997 31.21973607 -41.12962341 29.46305847 C-39.15676228 26.07884167 -37.21992547 22.67754559 -35.31640625 19.25390625 C-27.80576053 5.848037 -17.17908795 -7.5681752 0 0 Z " fill="#FDB932" transform="translate(302.25,15.5)"/>
<path d="M0 0 C38.61 0 77.22 0 117 0 C117.33 10.23 117.66 20.46 118 31 C120.70115292 33.70115292 122.88609529 33.69447131 126.625 34.375 C138.0098847 36.69392739 145.15517688 40.85971007 151.66796875 50.5859375 C154.7434427 56.15967034 155.29075953 61.31270077 155.26069641 67.58436584 C155.26452196 68.43534346 155.26834751 69.28632107 155.27228898 70.16308588 C155.28258688 73.00730609 155.27863297 75.85132323 155.2746582 78.69555664 C155.27900637 80.73756598 155.28418986 82.77957369 155.29014587 84.82157898 C155.30353367 90.36272339 155.30411494 95.90379959 155.30158257 101.44495702 C155.30051304 106.06998826 155.30539562 110.69500569 155.310188 115.32003397 C155.32128173 126.22842183 155.32172087 137.13677525 155.31567383 148.04516602 C155.30962877 159.30373836 155.3219589 170.5621859 155.3432439 181.82073694 C155.36084461 191.4854077 155.3668638 201.15003867 155.36360615 210.81472486 C155.36179122 216.58784755 155.36445072 222.36088114 155.37832069 228.13398933 C155.39087002 233.56029951 155.38898238 238.98641455 155.37590981 244.41272163 C155.37353842 246.40536057 155.37629875 248.39801311 155.38453293 250.39063644 C155.3949542 253.10819173 155.38693707 255.82508659 155.3742218 258.5426178 C155.38159609 259.33327812 155.38897037 260.12393844 155.39656812 260.93855816 C155.35182923 265.47544126 154.80585677 268.39183132 152 272 C148.22287846 274.96044661 145.69838536 275.1231301 141 275 C140.99503478 273.47267242 140.99503478 273.47267242 140.98996925 271.91448975 C140.90896174 247.13473153 140.81664206 222.35503512 140.71247292 197.57536316 C140.66235911 185.59208451 140.61591598 173.60881265 140.578125 161.62548828 C140.54517565 151.18037706 140.50532806 140.7353188 140.45720994 130.29026604 C140.43197432 124.76012275 140.41018429 119.23001445 140.39665604 113.6998291 C140.38380914 108.49274014 140.36172622 103.28577136 140.33261681 98.0787487 C140.32356161 96.1696293 140.31785561 94.26049055 140.31578636 92.35135078 C140.31244929 89.73971342 140.29693287 87.12841381 140.2784729 84.5168457 C140.281375 83.39035173 140.281375 83.39035173 140.28433573 82.24110031 C140.16955654 71.33857862 136.51471592 61.90218238 129.09765625 53.88671875 C121.43511327 46.99471081 113.08264969 45.32676531 103 43 C103 29.14 103 15.28 103 1 C69.34 1 35.68 1 1 1 C1 10.24 1 19.48 1 29 C0.67 29 0.34 29 0 29 C0 19.43 0 9.86 0 0 Z " fill="#BECEDD" transform="translate(292,223)"/>
<path d="M0 0 C47.85 0 95.7 0 145 0 C145 8.25 145 16.5 145 25 C97.15 25 49.3 25 0 25 C0 16.75 0 8.5 0 0 Z " fill="#C0D1E0" transform="translate(278,184)"/>
<path d="M0 0 C11.82189277 4.88295571 19.60297784 22.09764634 24.875 33.1875 C29.64393054 44.77154581 30.48969579 56.39825831 25.875 68.1875 C21.88648789 75.50598483 16.22255558 79.4317564 8.625 82.5 C0.33185228 84.02041042 -8.55838313 84.36172822 -16.125 80.1875 C-23.81129732 74.68752725 -28.58406534 69.104327 -30.64453125 59.85546875 C-33.13442622 42.91871064 -25.52503011 27.549883 -16.125 14.0625 C-15.63918457 13.36415039 -15.15336914 12.66580078 -14.65283203 11.94628906 C-6.24449557 0.37466973 -6.24449557 0.37466973 0 0 Z " fill="#000101" transform="translate(81.125,420.8125)"/>
<path d="M0 0 C0 46.53 0 93.06 0 141 C-42.57 141 -85.14 141 -129 141 C-129 101.07 -129 61.14 -129 20 C-128.67 20 -128.34 20 -128 20 C-128 59.6 -128 99.2 -128 140 C-91.37 140 -54.74 140 -17 140 C-17.33 96.44 -17.66 52.88 -18 8 C-14.7 6.68 -11.4 5.36 -8 4 C-1.77777778 0 -1.77777778 0 0 0 Z " fill="#4089D8" transform="translate(415,325)"/>
<path d="M0 0 C1.65 0.99 3.3 1.98 5 3 C4.41933397 6.80560234 3.33578266 9.526577 1.3671875 12.82421875 C0.81619385 13.75669434 0.2652002 14.68916992 -0.30249023 15.64990234 C-0.90391846 16.65230957 -1.50534668 17.6547168 -2.125 18.6875 C-3.41086159 20.86025981 -4.69599352 23.03345157 -5.98046875 25.20703125 C-6.6461084 26.32932129 -7.31174805 27.45161133 -7.99755859 28.60791016 C-11.18475126 34.00694148 -14.31124675 39.4405284 -17.4375 44.875 C-18.69653156 47.05994368 -19.95564661 49.24483925 -21.21484375 51.4296875 C-22.15239502 53.05729004 -22.15239502 53.05729004 -23.10888672 54.71777344 C-26.23680148 60.14659942 -29.36858448 65.57319281 -32.5 71 C-33.75001879 73.16665583 -35.00001878 75.3333225 -36.25 77.5 C-58.75 116.5 -81.25 155.5 -103.75 194.5 C-104.36963623 195.57411133 -104.98927246 196.64822266 -105.62768555 197.75488281 C-106.86847033 199.90542543 -108.10951535 202.05581792 -109.35083008 204.20605469 C-112.27019474 209.26377813 -115.18696209 214.32294493 -118.09432983 219.38757324 C-119.46174766 221.76923502 -120.83067039 224.1500302 -122.19970703 226.53076172 C-123.16064553 228.20326021 -124.11941672 229.87700336 -125.078125 231.55078125 C-133.85594966 246.81069181 -133.85594966 246.81069181 -141 250 C-143.4375 249.75 -143.4375 249.75 -145 249 C-143.86280518 248.16976318 -143.86280518 248.16976318 -142.70263672 247.32275391 C-139.94257849 244.95064966 -138.52745698 242.98866184 -136.7578125 239.8359375 C-136.17451172 238.80984375 -135.59121094 237.78375 -134.99023438 236.7265625 C-134.06694336 235.06753906 -134.06694336 235.06753906 -133.125 233.375 C-132.46528152 232.20771729 -131.80445328 231.04106118 -131.14257812 229.875 C-129.76945685 227.4538987 -128.4011325 225.03018097 -127.03613281 222.60449219 C-123.90190918 217.04408522 -120.69729676 211.52428849 -117.5 206 C-116.24967073 203.83352333 -114.99967173 201.66685602 -113.75 199.5 C-31.25 56.50000001 -31.25 56.50000001 -29.37231445 53.24536133 C-28.13124746 51.09416776 -26.89019907 48.94296345 -25.64916992 46.79174805 C-22.73501656 41.74037001 -19.82068182 36.6890969 -16.90567017 31.63821411 C-15.87326522 29.84933082 -14.84092044 28.06041283 -13.80859375 26.27148438 C-12.51314052 24.02662364 -11.2175743 21.7818281 -9.921875 19.53710938 C-8.77760881 17.55413379 -7.63415226 15.57069067 -6.49169922 13.58666992 C-5.56995766 11.98833084 -4.64513183 10.39176055 -3.71533203 8.7980957 C-1.28263348 4.62271625 -1.28263348 4.62271625 0 0 Z " fill="#BDCDDC" transform="translate(254,121)"/>
<path d="M0 0 C4.52742953 1.48507939 6.29589771 5.10024384 8.5625 9 C8.95945068 9.67772461 9.35640137 10.35544922 9.76538086 11.05371094 C14.73035669 19.76129196 17.14721492 27.88220175 16 38 C14.74432579 41.83678231 13.43714202 43.57406675 10.5625 46.375 C5.35832447 48.74883445 0.62827157 48.75661264 -5 48 C-8.7786825 46.27639044 -10.41161053 44.78451929 -12.875 41.5 C-15.65016615 32.86614977 -14.375837 25.22380108 -10.640625 17.109375 C-3.41489362 3.41489362 -3.41489362 3.41489362 0 0 Z " fill="#5FA4EF" transform="translate(79,441)"/>
<path d="M0 0 C7.20960304 -0.47710608 13.07669295 -0.48621779 19 4 C24.4238566 9.13444133 27.8617311 13.79242446 28.625 21.3125 C28.37793107 29.37165316 23.86816217 36.1608637 20 43 C19.12359863 44.55267578 19.12359863 44.55267578 18.22949219 46.13671875 C6.24558263 67.2712036 6.24558263 67.2712036 0.92211914 75.33544922 C-0.86740543 78.56578507 -0.91551892 80.46871274 0 84 C2.73584501 86.44753847 5.84306575 88.1507294 9 90 C10.4956937 91.06039875 11.97622649 92.14264962 13.4375 93.25 C14.07558594 93.72953125 14.71367187 94.2090625 15.37109375 94.703125 C18.92041415 97.52896283 18.92041415 97.52896283 19.3359375 99.98828125 C19.40302296 103.97986616 19.30990493 106.42786782 17.375 110 C14.54150498 112.38610107 12.60983252 112.5252823 9 113 C8.89042969 112.19175781 8.78085937 111.38351563 8.66796875 110.55078125 C8.50941406 109.48214844 8.35085938 108.41351563 8.1875 107.3125 C8.03667969 106.25675781 7.88585937 105.20101562 7.73046875 104.11328125 C6.57038261 99.1689569 5.08687643 96.78088956 0.93359375 93.796875 C-0.22471778 93.10267695 -1.39033675 92.42054444 -2.5625 91.75 C-3.15224609 91.399375 -3.74199219 91.04875 -4.34960938 90.6875 C-6.53668238 89.39366842 -8.7266974 88.1366513 -11 87 C-10.32313971 83.51383846 -8.93012425 80.82250989 -7.19140625 77.73828125 C-6.32467285 76.19491089 -6.32467285 76.19491089 -5.44042969 74.62036133 C-4.82071289 73.52876709 -4.20099609 72.43717285 -3.5625 71.3125 C-2.93375977 70.19576904 -2.30501953 69.07903809 -1.65722656 67.9284668 C2.44956074 60.65799029 6.62167925 53.4281221 10.97827148 46.30395508 C16.18457708 37.65899308 16.98339633 29.97888491 16 20 C13.80405644 12.27844962 9.13810584 7.84114205 3 3 C1.98532143 2.01489726 0.98002126 1.01958733 0 0 Z " fill="#EBA61E" transform="translate(287,14)"/>
<path d="M0 0 C6.6 0 13.2 0 20 0 C20 8.25 20 16.5 20 25 C13.4 25 6.8 25 0 25 C0 16.75 0 8.5 0 0 Z " fill="#ABBAC7" transform="translate(403,184)"/>
<path d="M0 0 C4.52742953 1.48507939 6.29589771 5.10024384 8.5625 9 C8.95945068 9.67772461 9.35640137 10.35544922 9.76538086 11.05371094 C14.72114663 19.74513935 17.175578 27.8963837 16 38 C14.49304575 42.21947191 12.90272914 44.73389921 9 47 C8.34 47 7.68 47 7 47 C7.2165625 46.46632813 7.433125 45.93265625 7.65625 45.3828125 C11.47857397 35.15455668 10.65796287 26.13179492 6.203125 16.22851562 C2.8740423 8.58956876 2.8740423 8.58956876 -2 2 C-1.34 1.34 -0.68 0.68 0 0 Z " fill="#418FE1" transform="translate(79,441)"/>
<path d="M0 0 C2.35009766 0.26489258 2.35009766 0.26489258 4.0859375 0.60546875 C-0.55529161 9.53832789 -5.33277734 18.21609949 -10.9140625 26.60546875 C-12.5640625 26.27546875 -14.2140625 25.94546875 -15.9140625 25.60546875 C-16.75396078 22.71530617 -17.0803767 21.07842175 -16.06884766 18.2019043 C-14.59288218 15.54363612 -13.08847283 12.90921651 -11.5390625 10.29296875 C-11.03761719 9.36162109 -10.53617187 8.43027344 -10.01953125 7.47070312 C-5.6333948 0.00552077 -5.6333948 0.00552077 0 0 Z " fill="#BCCCDB" transform="translate(97.9140625,373.39453125)"/>
<path d="M0 0 C0.33 0.66 0.66 1.32 1 2 C0.04370117 4.06298828 0.04370117 4.06298828 -1.45703125 6.5703125 C-1.99263672 7.46621094 -2.52824219 8.36210937 -3.08007812 9.28515625 C-3.65177734 10.22230469 -4.22347656 11.15945313 -4.8125 12.125 C-5.37259766 13.06988281 -5.93269531 14.01476562 -6.50976562 14.98828125 C-9.6505011 20.18906903 -9.6505011 20.18906903 -11 22 C-11.66 22 -12.32 22 -13 22 C-12.02998135 17.4736646 -9.88522427 13.87330813 -7.625 9.875 C-7.02558594 8.78251953 -7.02558594 8.78251953 -6.4140625 7.66796875 C-6.0221875 6.97058594 -5.6303125 6.27320313 -5.2265625 5.5546875 C-4.87158691 4.92030762 -4.51661133 4.28592773 -4.15087891 3.63232422 C-3 2 -3 2 0 0 Z " fill="#C8DAE9" transform="translate(94,375)"/>
</svg>
