<?xml version="1.0" encoding="UTF-8"?>
<svg version="1.1" xmlns="http://www.w3.org/2000/svg" width="512" height="512">
<path d="M0 0 C1.52783615 -0.00461633 3.05566785 -0.01097414 4.58349037 -0.01890898 C8.75610555 -0.03552507 12.92835229 -0.02739137 17.10096836 -0.0149641 C21.6109364 -0.00588413 26.12084271 -0.01989791 30.63079834 -0.03088379 C39.45562868 -0.04864221 48.28032271 -0.04484097 57.10515833 -0.03323323 C64.279203 -0.02418863 71.45320956 -0.02297934 78.6272583 -0.02732849 C79.64947562 -0.02794142 80.67169294 -0.02855436 81.72488654 -0.02918586 C83.80169663 -0.0304648 85.87850671 -0.03176166 87.95531678 -0.03307623 C107.41582389 -0.04447418 126.87625554 -0.03138062 146.33675027 -0.00987476 C163.02385436 0.0079955 179.71084714 0.00489117 196.39794922 -0.0135498 C215.79025034 -0.03497036 235.18248538 -0.04337562 254.57479668 -0.03110075 C256.64383824 -0.02982659 258.71287981 -0.02856911 260.78192139 -0.02732849 C261.79984949 -0.02671139 262.81777759 -0.02609429 263.866552 -0.02545848 C271.02947939 -0.02200915 278.19236476 -0.02782496 285.35528564 -0.0372467 C294.08809136 -0.04848123 302.82075331 -0.04539607 311.55354261 -0.02412373 C316.00659819 -0.01363289 320.45941432 -0.00945785 324.91246796 -0.02272034 C328.99357114 -0.03469095 333.07421426 -0.02800537 337.15527606 -0.00681013 C338.62686485 -0.00236375 340.09849298 -0.00456589 341.5700562 -0.01431328 C354.74899169 -0.09487168 364.99299103 2.23693759 374.70458984 11.50793457 C384.62868827 21.90367331 386.30498849 32.84403997 386.21252441 46.80334473 C386.21714074 48.33118088 386.22349855 49.85901258 386.23143339 51.3868351 C386.24804949 55.55945028 386.23991578 59.73169701 386.22748852 63.90431309 C386.21840854 68.41428112 386.23242233 72.92418744 386.2434082 77.43414307 C386.26116663 86.25897341 386.25736538 95.08366744 386.24575764 103.90850306 C386.23671305 111.08254773 386.23550376 118.25655428 386.23985291 125.43060303 C386.24046584 126.45282035 386.24107877 127.47503766 386.24171028 128.52823126 C386.24298922 130.60504136 386.24428607 132.68185144 386.24560064 134.75866151 C386.2569986 154.21916861 386.24390504 173.67960027 386.22239918 193.140095 C386.20452892 209.82719909 386.20763324 226.51419186 386.22607422 243.20129395 C386.24749478 262.59359506 386.25590004 281.98583011 386.24362516 301.3781414 C386.24235101 303.44718296 386.24109352 305.51622453 386.23985291 307.58526611 C386.23892725 309.11215826 386.23892725 309.11215826 386.2379829 310.66989672 C386.23453356 317.83282411 386.24034937 324.99570949 386.24977112 332.15863037 C386.26100564 340.89143608 386.25792049 349.62409803 386.23664814 358.35688734 C386.2261573 362.80994291 386.22198226 367.26275904 386.23524475 371.71581268 C386.24721537 375.79691587 386.24052978 379.87755899 386.21933454 383.95862079 C386.21488816 385.43020957 386.21709031 386.9018377 386.22683769 388.37340093 C386.3073961 401.55233642 383.97558682 411.79633576 374.70458984 421.50793457 C364.3088511 431.43203299 353.36848444 433.10833321 339.40917969 433.01586914 C337.88134354 433.02048547 336.35351184 433.02684328 334.82568932 433.03477812 C330.65307414 433.05139421 326.4808274 433.04326051 322.30821133 433.03083324 C317.79824329 433.02175327 313.28833697 433.03576705 308.77838135 433.04675293 C299.953551 433.06451135 291.12885698 433.06071011 282.30402136 433.04910237 C275.12997668 433.04005777 267.95597013 433.03884848 260.78192139 433.04319763 C259.75970407 433.04381056 258.73748675 433.0444235 257.68429315 433.045055 C255.60748306 433.04633394 253.53067298 433.0476308 251.45386291 433.04894537 C231.9933558 433.06034333 212.53292415 433.04724976 193.07242942 433.0257439 C176.38532533 433.00787364 159.69833255 433.01097797 143.01123047 433.02941895 C123.61892935 433.0508395 104.22669431 433.05924476 84.83438301 433.04696989 C82.76534145 433.04569573 80.69629988 433.04443825 78.6272583 433.04319763 C77.6093302 433.04258053 76.5914021 433.04196343 75.54262769 433.04132763 C68.3797003 433.03787829 61.21681493 433.0436941 54.05389404 433.05311584 C45.32108833 433.06435037 36.58842638 433.06126521 27.85563707 433.03999287 C23.4025815 433.02950203 18.94976537 433.02532699 14.49671173 433.03858948 C10.41560854 433.05056009 6.33496542 433.04387451 2.25390363 433.02267927 C0.78231484 433.01823289 -0.68931329 433.02043504 -2.16087651 433.03018242 C-15.339812 433.11074082 -25.58381134 430.77893155 -35.29541016 421.50793457 C-45.21950858 411.11219583 -46.8958088 400.17182917 -46.80334473 386.21252441 C-46.80796106 384.68468826 -46.81431887 383.15685656 -46.8222537 381.62903404 C-46.8388698 377.45641886 -46.83073609 373.28417213 -46.81830883 369.11155605 C-46.80922885 364.60158802 -46.82324264 360.0916817 -46.83422852 355.58172607 C-46.85198694 346.75689573 -46.84818569 337.9322017 -46.83657795 329.10736609 C-46.82753336 321.93332141 -46.82632407 314.75931486 -46.83067322 307.58526611 C-46.83128615 306.5630488 -46.83189908 305.54083148 -46.83253059 304.48763788 C-46.83380953 302.41082778 -46.83510638 300.3340177 -46.83642095 298.25720763 C-46.84781891 278.79670053 -46.83472535 259.33626887 -46.81321949 239.87577415 C-46.79534923 223.18867005 -46.79845356 206.50167728 -46.81689453 189.8145752 C-46.83831509 170.42227408 -46.84672035 151.03003904 -46.83444548 131.63772774 C-46.83317132 129.56868618 -46.83191384 127.49964461 -46.83067322 125.43060303 C-46.83005612 124.41267493 -46.82943901 123.39474683 -46.82880321 122.34597242 C-46.82535387 115.18304503 -46.83116969 108.02015965 -46.84059143 100.85723877 C-46.85182595 92.12443306 -46.8487408 83.39177111 -46.82746845 74.6589818 C-46.81697761 70.20592623 -46.81280258 65.7531101 -46.82606506 61.30005646 C-46.83803568 57.21895327 -46.8313501 53.13831015 -46.81015486 49.05724835 C-46.80570848 47.58565957 -46.80791062 46.11403144 -46.81765801 44.64246821 C-46.89821641 31.46353272 -44.56640713 21.21953338 -35.29541016 11.50793457 C-24.89967141 1.58383615 -13.95930476 -0.09246407 0 0 Z " fill="#DBF4F8" transform="translate(86.29541015625,39.4920654296875)"/>
<path d="M0 0 C1.52783615 -0.00461633 3.05566785 -0.01097414 4.58349037 -0.01890898 C8.75610555 -0.03552507 12.92835229 -0.02739137 17.10096836 -0.0149641 C21.6109364 -0.00588413 26.12084271 -0.01989791 30.63079834 -0.03088379 C39.45562868 -0.04864221 48.28032271 -0.04484097 57.10515833 -0.03323323 C64.279203 -0.02418863 71.45320956 -0.02297934 78.6272583 -0.02732849 C79.64947562 -0.02794142 80.67169294 -0.02855436 81.72488654 -0.02918586 C83.80169663 -0.0304648 85.87850671 -0.03176166 87.95531678 -0.03307623 C107.41582389 -0.04447418 126.87625554 -0.03138062 146.33675027 -0.00987476 C163.02385436 0.0079955 179.71084714 0.00489117 196.39794922 -0.0135498 C215.79025034 -0.03497036 235.18248538 -0.04337562 254.57479668 -0.03110075 C256.64383824 -0.02982659 258.71287981 -0.02856911 260.78192139 -0.02732849 C261.79984949 -0.02671139 262.81777759 -0.02609429 263.866552 -0.02545848 C271.02947939 -0.02200915 278.19236476 -0.02782496 285.35528564 -0.0372467 C294.08809136 -0.04848123 302.82075331 -0.04539607 311.55354261 -0.02412373 C316.00659819 -0.01363289 320.45941432 -0.00945785 324.91246796 -0.02272034 C328.99357114 -0.03469095 333.07421426 -0.02800537 337.15527606 -0.00681013 C338.62686485 -0.00236375 340.09849298 -0.00456589 341.5700562 -0.01431328 C354.74899169 -0.09487168 364.99299103 2.23693759 374.70458984 11.50793457 C384.62868827 21.90367331 386.30498849 32.84403997 386.21252441 46.80334473 C386.21714074 48.33118088 386.22349855 49.85901258 386.23143339 51.3868351 C386.24804949 55.55945028 386.23991578 59.73169701 386.22748852 63.90431309 C386.21840854 68.41428112 386.23242233 72.92418744 386.2434082 77.43414307 C386.26116663 86.25897341 386.25736538 95.08366744 386.24575764 103.90850306 C386.23671305 111.08254773 386.23550376 118.25655428 386.23985291 125.43060303 C386.24046584 126.45282035 386.24107877 127.47503766 386.24171028 128.52823126 C386.24298922 130.60504136 386.24428607 132.68185144 386.24560064 134.75866151 C386.2569986 154.21916861 386.24390504 173.67960027 386.22239918 193.140095 C386.20452892 209.82719909 386.20763324 226.51419186 386.22607422 243.20129395 C386.24749478 262.59359506 386.25590004 281.98583011 386.24362516 301.3781414 C386.24235101 303.44718296 386.24109352 305.51622453 386.23985291 307.58526611 C386.23892725 309.11215826 386.23892725 309.11215826 386.2379829 310.66989672 C386.23453356 317.83282411 386.24034937 324.99570949 386.24977112 332.15863037 C386.26100564 340.89143608 386.25792049 349.62409803 386.23664814 358.35688734 C386.2261573 362.80994291 386.22198226 367.26275904 386.23524475 371.71581268 C386.24721537 375.79691587 386.24052978 379.87755899 386.21933454 383.95862079 C386.21488816 385.43020957 386.21709031 386.9018377 386.22683769 388.37340093 C386.3073961 401.55233642 383.97558682 411.79633576 374.70458984 421.50793457 C364.3088511 431.43203299 353.36848444 433.10833321 339.40917969 433.01586914 C337.88134354 433.02048547 336.35351184 433.02684328 334.82568932 433.03477812 C330.65307414 433.05139421 326.4808274 433.04326051 322.30821133 433.03083324 C317.79824329 433.02175327 313.28833697 433.03576705 308.77838135 433.04675293 C299.953551 433.06451135 291.12885698 433.06071011 282.30402136 433.04910237 C275.12997668 433.04005777 267.95597013 433.03884848 260.78192139 433.04319763 C259.75970407 433.04381056 258.73748675 433.0444235 257.68429315 433.045055 C255.60748306 433.04633394 253.53067298 433.0476308 251.45386291 433.04894537 C231.9933558 433.06034333 212.53292415 433.04724976 193.07242942 433.0257439 C176.38532533 433.00787364 159.69833255 433.01097797 143.01123047 433.02941895 C123.61892935 433.0508395 104.22669431 433.05924476 84.83438301 433.04696989 C82.76534145 433.04569573 80.69629988 433.04443825 78.6272583 433.04319763 C77.6093302 433.04258053 76.5914021 433.04196343 75.54262769 433.04132763 C68.3797003 433.03787829 61.21681493 433.0436941 54.05389404 433.05311584 C45.32108833 433.06435037 36.58842638 433.06126521 27.85563707 433.03999287 C23.4025815 433.02950203 18.94976537 433.02532699 14.49671173 433.03858948 C10.41560854 433.05056009 6.33496542 433.04387451 2.25390363 433.02267927 C0.78231484 433.01823289 -0.68931329 433.02043504 -2.16087651 433.03018242 C-15.339812 433.11074082 -25.58381134 430.77893155 -35.29541016 421.50793457 C-45.21950858 411.11219583 -46.8958088 400.17182917 -46.80334473 386.21252441 C-46.80796106 384.68468826 -46.81431887 383.15685656 -46.8222537 381.62903404 C-46.8388698 377.45641886 -46.83073609 373.28417213 -46.81830883 369.11155605 C-46.80922885 364.60158802 -46.82324264 360.0916817 -46.83422852 355.58172607 C-46.85198694 346.75689573 -46.84818569 337.9322017 -46.83657795 329.10736609 C-46.82753336 321.93332141 -46.82632407 314.75931486 -46.83067322 307.58526611 C-46.83128615 306.5630488 -46.83189908 305.54083148 -46.83253059 304.48763788 C-46.83380953 302.41082778 -46.83510638 300.3340177 -46.83642095 298.25720763 C-46.84781891 278.79670053 -46.83472535 259.33626887 -46.81321949 239.87577415 C-46.79534923 223.18867005 -46.79845356 206.50167728 -46.81689453 189.8145752 C-46.83831509 170.42227408 -46.84672035 151.03003904 -46.83444548 131.63772774 C-46.83317132 129.56868618 -46.83191384 127.49964461 -46.83067322 125.43060303 C-46.83005612 124.41267493 -46.82943901 123.39474683 -46.82880321 122.34597242 C-46.82535387 115.18304503 -46.83116969 108.02015965 -46.84059143 100.85723877 C-46.85182595 92.12443306 -46.8487408 83.39177111 -46.82746845 74.6589818 C-46.81697761 70.20592623 -46.81280258 65.7531101 -46.82606506 61.30005646 C-46.83803568 57.21895327 -46.8313501 53.13831015 -46.81015486 49.05724835 C-46.80570848 47.58565957 -46.80791062 46.11403144 -46.81765801 44.64246821 C-46.89821641 31.46353272 -44.56640713 21.21953338 -35.29541016 11.50793457 C-24.89967141 1.58383615 -13.95930476 -0.09246407 0 0 Z M-26.04150391 26.46887207 C-30.81511946 34.23157399 -30.7261092 41.0629906 -30.68981934 50.02534485 C-30.69471088 51.51744171 -30.7009019 53.00953478 -30.70827723 54.50162143 C-30.72466672 58.59392668 -30.72236085 62.68603915 -30.71690226 66.77836573 C-30.71423082 71.19499548 -30.72876602 75.61157399 -30.74099731 80.02818298 C-30.76204902 88.6780686 -30.7665923 97.32788719 -30.76480943 105.9777954 C-30.76350162 113.00939739 -30.76730691 120.04097847 -30.7747345 127.07257652 C-30.7768337 129.09831116 -30.7789313 131.12404581 -30.78102732 133.14978045 C-30.78207084 134.15806176 -30.78311437 135.16634306 -30.78418952 136.20517834 C-30.803091 155.27361315 -30.80204204 174.34200948 -30.7952202 193.41044977 C-30.78964534 210.84999789 -30.81046789 228.28939908 -30.84358066 245.72891287 C-30.87732439 263.63989198 -30.89248511 281.55080071 -30.88786364 299.4618122 C-30.88561957 309.51581804 -30.89085291 319.56968809 -30.91575623 329.62366676 C-30.93677819 338.18350423 -30.94035248 346.74313147 -30.92145663 355.3029776 C-30.91230415 359.66885539 -30.91114064 364.03434128 -30.93181229 368.40018845 C-30.95054421 372.40067634 -30.94599452 376.40045199 -30.92326647 380.40091296 C-30.91908624 381.84434557 -30.9232614 383.28783301 -30.93686241 384.73120759 C-31.02009566 394.21355712 -30.19441619 402.19223042 -23.54002523 409.41262847 C-15.54665898 416.97756208 -7.29023272 416.94490929 3.22200012 416.90234375 C4.71409698 416.90723529 6.20619005 416.91342631 7.6982767 416.92080164 C11.79058195 416.93719114 15.88269442 416.93488526 19.975021 416.92942667 C24.39165076 416.92675524 28.80822926 416.94129044 33.22483826 416.95352173 C41.87472388 416.97457343 50.52454246 416.97911672 59.17445067 416.97733384 C66.20605266 416.97602604 73.23763374 416.97983132 80.2692318 416.98725891 C82.29496644 416.98935812 84.32070108 416.99145572 86.34643573 416.99355173 C87.35471703 416.99459526 88.36299833 416.99563879 89.40183362 416.99671394 C108.47026842 417.01561541 127.53866475 417.01456645 146.60710504 417.00774461 C164.04665316 417.00216976 181.48605435 417.0229923 198.92556814 417.05610508 C216.83654725 417.08984881 234.74745598 417.10500952 252.65846747 417.10038805 C262.71247331 417.09814398 272.76634336 417.10337733 282.82032204 417.12828064 C291.38015951 417.1493026 299.93978674 417.15287689 308.49963287 417.13398105 C312.86551066 417.12482857 317.23099655 417.12366506 321.59684372 417.1443367 C325.59733162 417.16306863 329.59710727 417.15851894 333.59756824 417.13579088 C335.04100084 417.13161066 336.48448828 417.13578581 337.92786286 417.14938682 C347.41021239 417.23262007 355.38888569 416.40694061 362.60928375 409.75254965 C370.17421735 401.7591834 370.14156456 393.50275714 370.09899902 382.99052429 C370.10389056 381.49842743 370.11008159 380.00633436 370.11745691 378.51424772 C370.13384641 374.42194246 370.13154054 370.32982999 370.12608194 366.23750341 C370.12341051 361.82087366 370.13794571 357.40429515 370.150177 352.98768616 C370.1712287 344.33780054 370.17577199 335.68798195 370.17398912 327.03807374 C370.17268131 320.00647175 370.17648659 312.97489067 370.18391418 305.94329262 C370.18601339 303.91755798 370.18811099 301.89182333 370.190207 299.86608869 C370.19125053 298.85780738 370.19229406 297.84952608 370.19336921 296.8106908 C370.21227068 277.742256 370.21122172 258.67385966 370.20439988 239.60541938 C370.19882503 222.16587125 370.21964758 204.72647006 370.25276035 187.28695627 C370.28650408 169.37597717 370.30166479 151.46506843 370.29704332 133.55405694 C370.29479926 123.5000511 370.3000326 113.44618105 370.32493591 103.39220238 C370.34595787 94.83236491 370.34953217 86.27273767 370.33063632 77.71289154 C370.32148384 73.34701375 370.32032033 68.98152786 370.34099197 64.61568069 C370.3597239 60.6151928 370.35517421 56.61541715 370.33244616 52.61495618 C370.32826593 51.17152357 370.33244109 49.72803613 370.3460421 48.28466155 C370.42927535 38.80231202 369.60359588 30.82363872 362.94920492 23.60324067 C354.95583867 16.03830706 346.69941241 16.07095985 336.18717957 16.11352539 C334.69508271 16.10863385 333.20298964 16.10244283 331.71090299 16.0950675 C327.61859774 16.078678 323.52648526 16.08098388 319.43415868 16.08644247 C315.01752893 16.0891139 310.60095042 16.0745787 306.18434143 16.06234741 C297.53445581 16.04129571 288.88463722 16.03675242 280.23472901 16.0385353 C273.20312703 16.03984311 266.17154594 16.03603782 259.13994789 16.02861023 C257.11421325 16.02651102 255.08847861 16.02441342 253.06274396 16.02231741 C251.55032201 16.02075212 251.55032201 16.02075212 250.00734607 16.0191552 C230.93891127 16.00025373 211.87051494 16.00130269 192.80207465 16.00812453 C175.36252652 16.01369938 157.92312533 15.99287684 140.48361155 15.95976406 C122.57263244 15.92602033 104.6617237 15.91085962 86.75071222 15.91548109 C76.69670638 15.91772516 66.64283632 15.91249181 56.58885765 15.8875885 C48.02902018 15.86656654 39.46939295 15.86299225 30.90954681 15.88188809 C26.54366903 15.89104057 22.17818313 15.89220408 17.81233597 15.87153244 C13.81184807 15.85280051 9.81207242 15.8573502 5.81161145 15.88007826 C4.36817885 15.88425848 2.9246914 15.88008333 1.48131683 15.86648232 C-9.78106918 15.76762444 -18.6237154 17.47895525 -26.04150391 26.46887207 Z " fill="#342EAA" transform="translate(86.29541015625,39.4920654296875)"/>
<path d="M0 0 C0.94716389 -0.00538554 1.89432778 -0.01077108 2.8701936 -0.01631981 C6.02827137 -0.03057058 9.18592827 -0.02350267 12.34402466 -0.01637268 C14.61466813 -0.02207776 16.88530873 -0.02904256 19.15594482 -0.03717041 C25.31301237 -0.05510214 31.46993741 -0.05393327 37.62702322 -0.04822803 C42.77112195 -0.04513602 47.91519331 -0.05122881 53.05928814 -0.05726677 C65.89081531 -0.07211317 78.72224254 -0.06849851 91.55376579 -0.05640347 C102.68192409 -0.04647398 113.80991606 -0.05940886 124.93804871 -0.08333766 C136.38088105 -0.10775662 147.82360667 -0.11693035 159.26647007 -0.11068493 C165.68416739 -0.10731661 172.10172731 -0.10972232 178.51940536 -0.12693596 C184.55563788 -0.14242001 190.59155323 -0.13843292 196.62777328 -0.11963081 C198.83923279 -0.11594895 201.05071587 -0.1190416 203.26215363 -0.1295166 C206.28890184 -0.14275553 209.31460458 -0.13115273 212.34130859 -0.11352539 C213.20942323 -0.1231304 214.07753786 -0.1327354 214.97195899 -0.14263147 C223.04487033 -0.04637643 230.21725808 2.18015704 236.23513794 7.70018005 C241.38408256 13.44416781 242.89791461 19.00960118 242.63748169 26.61424255 C241.71185344 34.16822026 238.34003105 38.96425411 232.68826294 43.87986755 C226.12313413 48.02061873 220.16579043 48.82750357 212.59527588 48.77536011 C211.64811199 48.78074565 210.7009481 48.78613118 209.72508228 48.79167992 C206.56700451 48.80593069 203.4093476 48.79886278 200.25125122 48.79173279 C197.98060775 48.79743787 195.70996715 48.80440267 193.43933105 48.81253052 C187.2822635 48.83046225 181.12533847 48.82929338 174.96825266 48.82358813 C169.82415393 48.82049613 164.68008257 48.82658892 159.53598773 48.83262688 C146.70446057 48.84747327 133.87303334 48.84385861 121.04151009 48.83176357 C109.91335179 48.82183409 98.78535982 48.83476897 87.65722717 48.85869776 C76.21439483 48.88311672 64.77166921 48.89229046 53.3288058 48.88604504 C46.91110849 48.88267671 40.49354857 48.88508243 34.07587051 48.90229607 C28.039638 48.91778012 22.00372264 48.91379303 15.96750259 48.89499092 C13.75604309 48.89130905 11.54456001 48.89440171 9.33312225 48.90487671 C6.30637403 48.91811564 3.2806713 48.90651284 0.25396729 48.8888855 C-0.61414735 48.8984905 -1.48226198 48.90809551 -2.37668312 48.91799158 C-10.42963132 48.82197457 -17.58858751 46.58229297 -23.63986206 41.13768005 C-29.00806905 35.16175152 -30.31616184 28.99332174 -30.04220581 21.05955505 C-29.12988119 13.88679597 -25.37375827 9.60124687 -20.09298706 4.9306488 C-13.57034816 0.72077566 -7.56020232 -0.05207243 0 0 Z " fill="#3834AC" transform="translate(149.70236206054688,231.61231994628906)"/>
<path d="M0 0 C1.44858591 -0.00679667 1.44858591 -0.00679667 2.92643619 -0.01373065 C6.16517835 -0.02639943 9.40375288 -0.02475265 12.64251709 -0.02310181 C14.96359982 -0.02908555 17.28468056 -0.03589074 19.60575867 -0.04345703 C25.91372757 -0.06114104 32.22164223 -0.06581346 38.52963352 -0.0670886 C43.79545247 -0.06898715 49.06125877 -0.07634427 54.32707286 -0.08343279 C66.04222515 -0.09907724 77.75735393 -0.1047699 89.47251573 -0.10342209 C90.17524216 -0.10334218 90.87796858 -0.10326227 91.60198975 -0.10317993 C92.30557715 -0.10309817 93.00916454 -0.10301641 93.73407277 -0.10293217 C105.13145106 -0.10211963 116.52869707 -0.12124964 127.9260371 -0.14945666 C139.63656678 -0.17820939 151.34703201 -0.1919956 163.05759788 -0.19026911 C169.62901716 -0.18975926 176.2002868 -0.19545548 182.77167511 -0.21662521 C188.95394703 -0.23599711 195.13592642 -0.23613891 201.31820869 -0.22159195 C203.5849176 -0.2195014 205.85164476 -0.22421935 208.11832237 -0.23631287 C211.21781493 -0.25177612 214.31630022 -0.24244932 217.41577148 -0.22705078 C218.30830006 -0.23733791 219.20082863 -0.24762503 220.12040353 -0.25822389 C227.22947565 -0.18042012 233.29254056 1.60604963 238.80169678 6.23226929 C239.32892334 6.88324585 239.8561499 7.53422241 240.39935303 8.20492554 C241.21726318 9.17752319 241.21726318 9.17752319 242.05169678 10.16976929 C245.94560229 15.96208857 246.07155139 21.48453121 245.46185303 28.26742554 C244.26515025 33.72738198 241.78192868 38.61913869 237.46185303 42.26742554 C230.81825461 46.48680584 225.1628624 48.00089208 217.36712646 47.90234375 C216.40191952 47.9101437 215.43671257 47.91794366 214.44225693 47.92597997 C211.23484934 47.94579115 208.02864266 47.93017771 204.82122803 47.91439819 C202.5108776 47.92117912 200.20053259 47.93008491 197.89019775 47.94094849 C191.63398417 47.9636915 185.37818407 47.95492578 179.1219635 47.93905306 C172.56565257 47.92636834 166.00937634 47.93814133 159.45306396 47.94598389 C147.73965457 47.95665267 136.02641865 47.94014496 124.3130393 47.9146872 C113.70760308 47.89235046 103.10244056 47.89623126 92.49700928 47.91928101 C80.16056047 47.94608065 67.824286 47.95597639 55.48781204 47.94121969 C48.96505414 47.93343632 42.44248448 47.93235321 35.91973877 47.94890213 C29.78654778 47.9633766 23.65387218 47.95326988 17.52073669 47.92443085 C15.27380732 47.91783607 13.02683435 47.91969004 10.77992249 47.93074417 C7.70489512 47.94447426 4.63150364 47.92719258 1.55657959 47.90234375 C0.6742654 47.91349736 -0.20804878 47.92465097 -1.11709976 47.93614256 C-7.75140767 47.8326484 -13.01650678 45.98013656 -18.53814697 42.26742554 C-24.51369783 35.99949764 -27.09998113 29.84592226 -26.91314697 21.18148804 C-25.95451224 13.7320973 -22.12596408 8.0839564 -16.38189697 3.42367554 C-10.97884837 0.03532302 -6.203114 -0.02131264 0 0 Z " fill="#342EAA" transform="translate(146.53814697265625,127.73257446289063)"/>
<path d="M0 0 C0.9582624 -0.00382555 1.9165248 -0.00765109 2.90382546 -0.01159257 C6.11726968 -0.02191759 9.33053506 -0.0179313 12.54399109 -0.01396179 C14.84699163 -0.01830858 17.14999073 -0.02349161 19.45298767 -0.02944946 C25.71130987 -0.04285536 31.96957174 -0.04341627 38.22790551 -0.04088616 C43.45156726 -0.03981737 48.67521676 -0.04469756 53.89887589 -0.04949158 C66.92805491 -0.06122757 79.95719953 -0.06035858 92.98638078 -0.05393478 C104.29388083 -0.04876778 115.60129469 -0.06001526 126.90877769 -0.07903299 C138.5255115 -0.09842067 150.14220085 -0.10637437 161.75895089 -0.10290974 C168.27832973 -0.10109625 174.79762964 -0.10373963 181.31699562 -0.11762428 C187.44916142 -0.13019511 193.58115473 -0.12826539 199.71331787 -0.11521339 C201.96270493 -0.11284633 204.2121041 -0.11558693 206.46147728 -0.12383652 C209.53490246 -0.13429455 212.60774791 -0.12621043 215.68115234 -0.11352539 C216.56881186 -0.12089968 217.45647138 -0.12827396 218.37102968 -0.13587171 C225.75689479 -0.07185461 232.49538882 1.45871317 238.14433289 6.62788391 C242.87383699 12.19670846 245.38906624 18.43395792 244.94120789 25.74897766 C243.66360015 33.57280407 240.7818967 38.78630056 234.72636414 43.88569641 C228.99019423 47.47845763 223.4113694 47.55066657 216.86592102 47.52812195 C215.89863709 47.53265306 214.93135316 47.53718417 213.93475759 47.54185259 C210.69678737 47.55450276 207.45898522 47.55287581 204.22099304 47.55122375 C201.8981403 47.55720857 199.57528954 47.564014 197.25244141 47.57157898 C190.94459885 47.58924985 184.63681055 47.59393479 178.32894564 47.59521055 C173.06298225 47.59710987 167.7970315 47.60446771 162.53107297 47.61155474 C150.81707752 47.62719377 139.10310558 47.63289229 127.38910063 47.63154404 C126.68667688 47.63146413 125.98425314 47.63138421 125.26054382 47.63130188 C124.20561751 47.63117924 124.20561751 47.63117924 123.12937956 47.63105412 C111.73138934 47.63024119 100.33353126 47.64938224 88.93557926 47.67757861 C77.22389274 47.70632186 65.51227064 47.72011815 53.80054796 47.71839106 C47.22861654 47.71788105 40.65683471 47.72358643 34.08493423 47.74474716 C27.90429366 47.76410489 21.72394578 47.76427061 15.54329491 47.7497139 C13.27616511 47.74762174 11.00901712 47.75235083 8.74191856 47.76443481 C5.64431806 47.77987497 2.54772834 47.7705866 -0.54985046 47.75517273 C-1.44460976 47.76545986 -2.33936906 47.77574698 -3.26124227 47.78634584 C-10.20713184 47.71009137 -15.41694668 45.88733201 -20.71113586 41.33100891 C-26.15349467 34.84705033 -28.03713321 29.66089427 -27.84004211 21.13960266 C-26.95770029 14.29448767 -23.88528627 8.99733951 -18.46894836 4.76069641 C-12.37575106 0.53476925 -7.23671908 -0.0305807 0 0 Z " fill="#342EAA" transform="translate(147.4689483642578,336.7393035888672)"/>
<path d="M0 0 C1.40866037 -0.00913666 1.40866037 -0.00913666 2.84577852 -0.01845789 C6.00029948 -0.03513959 9.15441908 -0.03030466 12.30897522 -0.0255127 C14.56743796 -0.03284999 16.82589694 -0.04143522 19.08435059 -0.05117798 C25.22478255 -0.07343774 31.36508051 -0.07632244 37.50554729 -0.07443047 C42.62755041 -0.07431098 47.74952492 -0.08286621 52.8715201 -0.09120798 C65.64377113 -0.11155926 78.41592279 -0.11258622 91.18817819 -0.10540086 C102.28120042 -0.09982466 113.37399174 -0.1206537 124.46696001 -0.15376133 C135.85653269 -0.18749045 147.24596167 -0.20219292 158.63559729 -0.1980443 C165.03031755 -0.19597326 171.42480785 -0.20151107 177.81948662 -0.22593689 C183.8318981 -0.24814305 189.84382786 -0.24637695 195.85624123 -0.22600937 C198.06496426 -0.22258855 200.27371933 -0.22773424 202.48239899 -0.24199295 C205.49379722 -0.26009489 208.50354546 -0.24750325 211.51489258 -0.22705078 C212.392518 -0.23956863 213.27014342 -0.25208648 214.17436355 -0.26498365 C218.52909993 -0.20141115 220.31019171 0.01068765 223.89865971 2.70668793 C225.82093811 5.39440918 225.82093811 5.39440918 225.88343811 9.01940918 C224.67431852 12.86014201 224.31333652 13.56453773 220.82093811 15.39440918 C217.76215134 15.84028807 214.72848382 15.80750916 211.64187622 15.78881836 C210.23321585 15.79795501 210.23321585 15.79795501 208.7960977 15.80727625 C205.64157674 15.82395795 202.48745714 15.81912302 199.332901 15.81433105 C197.07443826 15.82166835 194.81597928 15.83025357 192.55752563 15.83999634 C186.41709367 15.8622561 180.27679571 15.8651408 174.13632894 15.86324883 C169.01432581 15.86312934 163.8923513 15.87168457 158.77035612 15.88002634 C145.99810509 15.90037762 133.22595343 15.90140458 120.45369803 15.89421922 C109.3606758 15.88864302 98.26788448 15.90947206 87.17491622 15.94257969 C75.78534353 15.97630881 64.39591455 15.99101128 53.00627893 15.98686266 C46.61155868 15.98479162 40.21706837 15.99032943 33.8223896 16.01475525 C27.80997812 16.03696141 21.79804836 16.03519531 15.78563499 16.01482773 C13.57691196 16.0114069 11.36815689 16.0165526 9.15947723 16.03081131 C6.148079 16.04891325 3.13833076 16.03632161 0.12698364 16.01586914 C-1.18945449 16.03464591 -1.18945449 16.03464591 -2.53248733 16.05380201 C-6.88722371 15.99022951 -8.66831549 15.77813071 -12.25678349 13.08213043 C-14.17906189 10.39440918 -14.17906189 10.39440918 -14.24156189 6.76940918 C-11.92063721 -0.60293981 -6.73514291 -0.04078433 0 0 Z " fill="#3694DC" transform="translate(150.17906188964844,352.6055908203125)"/>
<path d="M0 0 C0.93996134 -0.00779995 1.87992268 -0.01559991 2.84836769 -0.02363622 C6.00005843 -0.04359019 9.15054626 -0.0277779 12.30224609 -0.01205444 C14.56085923 -0.01882902 16.81946684 -0.02773125 19.07806396 -0.03860474 C25.21440897 -0.06142331 31.35033425 -0.05255086 37.48668671 -0.03670931 C43.90389652 -0.02406373 50.32107004 -0.0357867 56.73828125 -0.04364014 C68.20616137 -0.05332375 79.67380872 -0.0377708 91.14164948 -0.01234345 C101.53837537 0.0099953 111.93482212 0.00611512 122.33154297 -0.01693726 C134.40642315 -0.04369806 146.48109248 -0.05365333 158.55601311 -0.03887594 C164.94734272 -0.03107467 171.33848005 -0.03005861 177.72979736 -0.04655838 C183.73815328 -0.0609856 189.74598129 -0.05101265 195.75428009 -0.0220871 C197.96137871 -0.01546703 200.16852164 -0.01738956 202.37560272 -0.02840042 C205.38479376 -0.04203055 208.39228498 -0.02496986 211.40136719 0 C212.27831049 -0.01115361 213.15525379 -0.02230722 214.05877113 -0.03379881 C218.4094371 0.03640352 220.19135458 0.25158345 223.77407837 2.9480381 C225.70068359 5.63491821 225.70068359 5.63491821 225.82568359 9.25991821 C224.70068359 12.63491821 224.70068359 12.63491821 222.7096262 14.32204628 C218.55108442 16.13651518 214.92372922 16.05026788 210.43260193 16.01586914 C209.49601858 16.02054911 208.55943523 16.02522908 207.59447056 16.03005087 C204.4545195 16.04202186 201.31500317 16.0325353 198.17504883 16.02310181 C195.92466985 16.02716654 193.67429287 16.03250786 191.42391968 16.03903198 C185.31045613 16.05272225 179.19714425 16.0474 173.08367801 16.03789473 C166.69136564 16.03030797 160.2990664 16.03734091 153.90675354 16.04205322 C142.48456949 16.04786312 131.06246957 16.03853174 119.64029974 16.02327521 C109.28254517 16.00986883 98.92489144 16.01220286 88.56713867 16.02603149 C76.53881613 16.04208299 64.51056978 16.04806398 52.48223263 16.0391947 C46.11501173 16.03451213 39.74786031 16.03390949 33.38064384 16.04380417 C27.39621801 16.05245421 21.41198313 16.04648775 15.42757797 16.0291214 C13.2281164 16.02514625 11.02863883 16.02630809 8.82918358 16.03290939 C5.83316413 16.04107413 2.83776148 16.0308646 -0.15821838 16.01586914 C-1.03418358 16.02256131 -1.91014877 16.02925347 -2.81265837 16.03614843 C-6.31473781 16.00201143 -8.66871623 15.96542769 -11.80422878 14.32204628 C-14.27313417 11.53601588 -14.36222039 9.28334915 -14.29931641 5.63491821 C-10.22261625 -0.06207582 -6.47916048 -0.08240672 0 0 Z " fill="#3694DC" transform="translate(150.29931640625,143.36508178710938)"/>
<path d="M0 0 C0.94712516 -0.00523668 1.89425032 -0.01047336 2.87007624 -0.01586872 C6.05759648 -0.03092292 9.24495696 -0.03157506 12.43251038 -0.03224182 C14.71215081 -0.03985958 16.99178866 -0.04828641 19.27142334 -0.0574646 C25.47380072 -0.07945235 31.6761288 -0.08821407 37.87854075 -0.09329104 C41.75024616 -0.0969291 45.62193854 -0.10316621 49.49363899 -0.11029243 C60.21069607 -0.12975169 70.9277377 -0.14626281 81.64481258 -0.14916897 C82.33068678 -0.14935654 83.01656098 -0.14954411 83.72321925 -0.14973736 C85.11367865 -0.15010361 86.50413806 -0.15046731 87.89459746 -0.15082847 C88.92995127 -0.15110269 88.92995127 -0.15110269 89.98622131 -0.15138245 C90.67729819 -0.151563 91.36837508 -0.15174354 92.08039368 -0.15192956 C103.28407725 -0.15547296 114.48756881 -0.18250585 125.69118576 -0.21988034 C137.19032448 -0.25793419 148.68934157 -0.27688483 160.18854719 -0.27762848 C166.64641883 -0.27842327 173.10404278 -0.28725476 179.56185722 -0.31562614 C185.63332982 -0.34170305 191.70434751 -0.34406997 197.7758503 -0.3279705 C200.00757459 -0.32614783 202.23932443 -0.33291995 204.47099304 -0.34878922 C207.51123728 -0.36909486 210.54986648 -0.35878912 213.59008789 -0.34057617 C214.47909017 -0.35377614 215.36809245 -0.36697611 216.28403419 -0.38057607 C222.22674552 -0.29891824 222.22674552 -0.29891824 225.44172001 2.61726284 C226.85853577 5.27415466 226.85853577 5.27415466 226.79603577 8.39915466 C225.82868656 11.36569224 225.24614044 12.37527013 222.85853577 14.27415466 C219.74558913 14.57371285 216.83186325 14.68718454 213.71707153 14.66856384 C212.76994637 14.67465495 211.82282122 14.68074605 210.84699529 14.68702173 C207.65939689 14.70372915 204.47219457 14.69886487 201.28456116 14.69407654 C199.00491925 14.70141235 196.72528107 14.70999714 194.44564819 14.71974182 C188.24324302 14.74201742 182.04097046 14.74488549 175.83853078 14.74299431 C170.66677711 14.74287489 165.49505183 14.75142726 160.32330602 14.75977182 C147.42773755 14.78012955 134.53225552 14.78114796 121.63667785 14.7739647 C110.43298648 14.76838839 99.22952371 14.78921691 88.02588577 14.82232517 C76.52673717 14.85604343 65.02772613 14.87075795 53.52852434 14.86660814 C47.07066477 14.86453607 40.61303285 14.87009059 34.15521431 14.89450073 C28.08372481 14.91669119 22.01271252 14.91495402 15.94122124 14.89457321 C13.70950325 14.89114956 11.47775363 14.8963101 9.24607849 14.91055679 C6.20581659 14.92863012 3.16719422 14.91608861 0.12698364 14.89561462 C-0.76201864 14.90813247 -1.65102092 14.92065032 -2.56696266 14.9335475 C-8.49982678 14.84753159 -8.49982678 14.84753159 -11.72464848 11.96578217 C-13.65094911 8.30624934 -13.25178068 6.19727276 -12.14146423 2.27415466 C-8.1435718 -0.39110696 -4.64278559 -0.01258113 0 0 Z " fill="#3695DC" transform="translate(149.14146423339844,248.72584533691406)"/>
</svg>
