<?xml version="1.0" encoding="UTF-8"?>
<svg version="1.1" xmlns="http://www.w3.org/2000/svg" width="512" height="512">
<path d="M0 0 C1.05908992 -0.00453111 2.11817984 -0.00906223 3.2093634 -0.01373065 C6.76380086 -0.02640707 10.31808574 -0.02475218 13.87254333 -0.02310181 C16.41848447 -0.02908488 18.96442379 -0.03588991 21.51036072 -0.04345703 C27.71071536 -0.05930578 33.91101396 -0.06556619 40.11138696 -0.06668179 C45.14985489 -0.06763228 50.18831026 -0.07174262 55.22677422 -0.07808304 C69.50939704 -0.09569088 83.79198983 -0.10492223 98.07462359 -0.10342209 C99.22925451 -0.10330222 99.22925451 -0.10330222 100.4072113 -0.10317993 C101.56325002 -0.10305729 101.56325002 -0.10305729 102.74264305 -0.10293217 C115.24270353 -0.10211865 127.74264369 -0.12127417 140.24266935 -0.14945666 C153.07527638 -0.17816106 165.90782467 -0.19199842 178.74046463 -0.19026911 C185.94608293 -0.18960453 193.15157497 -0.19512718 200.35716438 -0.21662521 C207.12955891 -0.23670145 213.90164189 -0.23618858 220.67406464 -0.22159195 C223.1637937 -0.21949274 225.65353915 -0.22427032 228.14323997 -0.23631287 C231.53347494 -0.25165332 234.92277475 -0.24253097 238.31298828 -0.22705078 C239.30568193 -0.23733791 240.29837557 -0.24762503 241.32115084 -0.25822389 C247.91221029 -0.19139201 247.91221029 -0.19139201 251.2355032 2.04833031 C252.59300232 4.26742554 252.59300232 4.26742554 252.59300232 8.26742554 C257.87300232 8.26742554 263.15300232 8.26742554 268.59300232 8.26742554 C268.92300232 6.28742554 269.25300232 4.30742554 269.59300232 2.26742554 C272.65201728 0.22808223 273.3028752 0.01278578 276.75389099 -0.02310181 C277.5887352 -0.03586151 278.42357941 -0.04862122 279.28372192 -0.06176758 C280.18371414 -0.06399323 281.08370636 -0.06621887 282.01097107 -0.06851196 C282.94218277 -0.07516876 283.87339447 -0.08182556 284.83282471 -0.08868408 C286.80567958 -0.09881351 288.77856873 -0.10350101 290.75144958 -0.10317993 C293.751954 -0.10753305 296.7509633 -0.1437936 299.75120544 -0.18179321 C301.67112231 -0.18766553 303.59104614 -0.19163214 305.51097107 -0.19351196 C306.84577766 -0.21506851 306.84577766 -0.21506851 308.20755005 -0.23706055 C315.24370649 -0.18616113 320.50535984 1.56170399 325.83518982 6.23226929 C326.37401794 6.88324585 326.91284607 7.53422241 327.46800232 8.20492554 C328.02229919 8.85332397 328.57659607 9.50172241 329.14768982 10.16976929 C333.62712329 16.67100111 333.2676396 23.6388347 332.59300232 31.26742554 C330.92250538 37.88597671 326.14788852 42.52438698 320.59300232 46.26742554 C319.26780541 46.63176334 317.93477862 46.96989363 316.59300232 47.26742554 C316.60188477 48.00562027 316.61076721 48.743815 316.61991882 49.50437927 C316.70118386 56.57562481 316.76152075 63.64669976 316.80025101 70.71828556 C316.82083418 74.35100313 316.8485897 77.98332459 316.89476013 81.61581421 C317.50664201 131.12025869 303.49812993 173.21353634 268.85765076 209.28427124 C242.34025885 236.30310877 202.92368261 255.91116653 164.65759277 256.45721436 C163.96854355 256.4616153 163.27949432 256.46601624 162.56956482 256.47055054 C161.83036301 256.47761017 161.09116119 256.4846698 160.32955933 256.49194336 C129.93358151 256.71645333 129.93358151 256.71645333 116.59300232 253.26742554 C115.77944275 253.06874878 114.96588318 252.87007202 114.12767029 252.66537476 C91.58839861 247.0838634 70.97926076 237.53450738 52.59300232 223.26742554 C51.72417419 222.60355835 50.85534607 221.93969116 49.96018982 221.25570679 C16.43972371 194.82047039 -5.41432087 156.06866161 -11.05485535 113.77542114 C-12.19582582 102.40922335 -11.82667607 90.89329556 -11.68165588 79.48373413 C-11.63988918 75.83555743 -11.62229177 72.18725943 -11.60231018 68.53890991 C-11.56008809 61.44813264 -11.49231407 54.35782687 -11.40699768 47.26742554 C-12.18800842 46.96796021 -12.96901917 46.66849487 -13.7736969 46.35995483 C-19.19287317 44.11159457 -23.23093575 40.06827037 -26.40699768 35.20492554 C-28.74018329 28.46461155 -28.7845655 19.37799098 -25.90699768 12.82992554 C-19.67763952 2.52155705 -11.34506278 -0.03547631 0 0 Z " fill="#000001" transform="translate(35.40699768066406,247.73257446289063)"/>
<path d="M0 0 C1.45063339 -0.01691895 1.45063339 -0.01691895 2.93057251 -0.03417969 C4.51246368 -0.0220343 4.51246368 -0.0220343 6.12631226 -0.00964355 C7.24224762 -0.01665283 8.35818298 -0.02366211 9.50793457 -0.03088379 C13.20438389 -0.04851553 16.90006969 -0.03681712 20.5965271 -0.02331543 C23.16760403 -0.02600998 25.73867997 -0.02989208 28.30975342 -0.03491211 C33.70509451 -0.04081517 39.10014894 -0.03260414 44.49545288 -0.0135498 C50.71211657 0.00815336 56.92825412 0.00121654 63.14490473 -0.02085543 C69.14212071 -0.04128831 75.1390819 -0.03900394 81.13633347 -0.02732849 C83.67912241 -0.02466777 86.22192484 -0.0279078 88.76469803 -0.0372467 C92.33090351 -0.04746431 95.89611761 -0.03183364 99.46224976 -0.00964355 C101.02592285 -0.02178894 101.02592285 -0.02178894 102.6211853 -0.03417969 C111.81541774 0.0712102 119.82552206 2.42987032 126.6512146 8.80480957 C134.04487751 17.02837342 135.76436527 25.74239092 135.4949646 36.51965332 C135.02063825 44.90534788 131.40776937 51.91087157 125.1824646 57.50793457 C117.09784899 63.58756551 109.86016697 64.80699006 99.91635132 64.79846191 C98.22755356 64.80853775 98.22755356 64.80853775 96.50463867 64.81881714 C92.79043139 64.83778556 89.07640477 64.84172016 85.3621521 64.84387207 C82.7795606 64.85029854 80.19696984 64.85702678 77.61437988 64.86404419 C72.2059021 64.87601245 66.79749596 64.87981098 61.38900757 64.87854004 C55.13927257 64.87733652 48.88988172 64.89848705 42.64023387 64.93002737 C36.62060554 64.95932253 30.6011644 64.96651657 24.58145523 64.96532059 C22.02252924 64.9676846 19.46360085 64.97655281 16.90472031 64.99198532 C13.33278257 65.01151837 9.76174009 65.00585752 6.18978882 64.99377441 C5.12891052 65.00501343 4.06803223 65.01625244 2.9750061 65.02783203 C1.51570175 65.01524857 1.51570175 65.01524857 0.0269165 65.00241089 C-0.8170273 65.00350042 -1.66097111 65.00458996 -2.53048897 65.00571251 C-4.8175354 64.50793457 -4.8175354 64.50793457 -8.8175354 60.50793457 C-8.8175354 53.90793457 -8.8175354 47.30793457 -8.8175354 40.50793457 C-29.9375354 40.50793457 -51.0575354 40.50793457 -72.8175354 40.50793457 C-72.8175354 42.48793457 -72.8175354 44.46793457 -72.8175354 46.50793457 C-75.29135087 51.26527202 -78.06019795 54.0341191 -82.8175354 56.50793457 C-84.81652589 56.57147217 -86.8188454 56.58031053 -88.8175354 56.50793457 C-88.84331665 57.20016113 -88.8690979 57.8923877 -88.8956604 58.60559082 C-90.37175895 84.0682908 -102.11977839 105.65035065 -119.8175354 123.50793457 C-121.11497681 124.82471191 -121.11497681 124.82471191 -122.43862915 126.16809082 C-143.92016711 146.81973282 -170.93937612 152.99261058 -199.8956604 152.71887207 C-228.04919226 152.10815003 -251.8959725 138.2281648 -271.18862915 118.44152832 C-285.47738964 102.49671535 -298.002752 78.43444167 -296.8175354 56.50793457 C-297.6837854 56.59043457 -298.5500354 56.67293457 -299.4425354 56.75793457 C-304.67193484 56.37057165 -307.44071171 53.96486437 -310.9659729 50.23449707 C-314.29514394 45.04998202 -313.39024542 38.42168313 -313.3175354 32.50793457 C-313.33300415 31.24980957 -313.3484729 29.99168457 -313.3644104 28.69543457 C-313.31513101 17.06549812 -313.31513101 17.06549812 -308.8175354 12.50793457 C-303.73067121 8.33763968 -300.08280321 7.9326487 -293.78433228 8 C-292.8850576 7.99376004 -291.98578293 7.98752007 -291.05925751 7.98109102 C-288.05133202 7.96515905 -285.04421665 7.97776623 -282.0362854 7.99035645 C-279.87767057 7.98493543 -277.71905944 7.97781289 -275.56045532 7.96911621 C-269.70099826 7.95087764 -263.84182284 7.95795275 -257.98236084 7.97063255 C-251.85123941 7.98075736 -245.72014215 7.97136831 -239.58901978 7.96508789 C-229.29275176 7.95781 -218.9965985 7.967403 -208.7003479 7.9864502 C-196.79532424 8.00821911 -184.89057458 8.00116785 -172.98555756 7.97914457 C-162.765446 7.96099471 -152.54541696 7.95843026 -142.32529449 7.96889925 C-136.22069304 7.97513641 -130.11622039 7.97596356 -124.0116272 7.9627533 C-118.27253386 7.95120156 -112.53379392 7.95920856 -106.79473877 7.98233032 C-104.68803494 7.98762097 -102.58130139 7.98609759 -100.47460938 7.97727966 C-97.59958378 7.96635492 -94.72569182 7.98005103 -91.85073853 8 C-90.59908024 7.98661567 -90.59908024 7.98661567 -89.32213593 7.97296095 C-84.02340532 8.04431583 -81.02714598 9.008523 -76.8175354 12.50793457 C-73.04056819 17.08005278 -72.8175354 18.26192038 -72.8175354 24.50793457 C-51.6975354 24.50793457 -30.5775354 24.50793457 -8.8175354 24.50793457 C-8.8175354 17.90793457 -8.8175354 11.30793457 -8.8175354 4.50793457 C-4.31736362 0.00776279 -4.31736362 0.00776279 0 0 Z " fill="#000000" transform="translate(368.8175354003906,7.4920654296875)"/>
<path d="M0 0 C5.28 0 10.56 0 16 0 C16.99 1.98 17.98 3.96 19 6 C22.17812927 7.58906464 25.62103872 7.17838637 29.11328125 7.2109375 C30.77019208 7.23901144 32.42709299 7.26767594 34.08398438 7.296875 C36.69750638 7.33809852 39.31084424 7.37498329 41.92456055 7.40136719 C44.44619081 7.42903286 46.96697759 7.47490896 49.48828125 7.5234375 C50.6541552 7.5283168 50.6541552 7.5283168 51.84358215 7.53329468 C56.38241379 7.63574575 59.3962027 8.16878543 63 11 C64.40457737 13.80915474 64.24895157 15.88810534 64 19 C62.22015595 22.1359157 61.47691793 22.84102736 58 24 C56.60754807 24.09049268 55.21116296 24.12656962 53.81577396 24.12749195 C52.53036656 24.13200342 52.53036656 24.13200342 51.21899134 24.13660604 C50.27717601 24.13485567 49.33536068 24.13310529 48.36500549 24.13130188 C47.36479415 24.13341759 46.36458281 24.13553331 45.33406204 24.13771313 C41.96691917 24.14372691 38.59981362 24.14271201 35.23266602 24.1418457 C32.82495052 24.14487623 30.4172356 24.14839739 28.00952148 24.15237427 C22.81703765 24.16027093 17.62455824 24.16543148 12.43206978 24.16866493 C4.22690384 24.17415984 -3.9782205 24.19105509 -12.18336487 24.21000671 C-14.98987096 24.21636344 -17.79637715 24.22267186 -20.60288334 24.22898388 C-21.30425937 24.23056764 -22.00563539 24.2321514 -22.72826524 24.23378316 C-30.71280209 24.2517212 -38.69734189 24.26794747 -46.68188477 24.28295898 C-47.77681707 24.28502279 -47.77681707 24.28502279 -48.89386923 24.28712829 C-60.7279509 24.30906732 -72.56202188 24.3198168 -84.3961203 24.32732973 C-96.54165598 24.33539593 -108.68709978 24.35866919 -120.83258301 24.3952834 C-128.32670055 24.41732809 -135.82062929 24.42696711 -143.31477762 24.42078307 C-149.05464026 24.41723836 -154.79429346 24.43444384 -160.53409576 24.45946121 C-162.89157926 24.46640286 -165.24909422 24.46646787 -167.60657692 24.45926094 C-170.81742736 24.4504343 -174.02725486 24.46596641 -177.23802185 24.48774719 C-178.17760646 24.47930466 -179.11719107 24.47086212 -180.08524793 24.46216375 C-185.17418209 24.49592539 -185.17418209 24.49592539 -189.57887363 26.8445158 C-191.53013437 29.80407787 -191.57936339 31.52381964 -191 35 C-189.61454054 37.33861499 -189.61454054 37.33861499 -187 39 C-183.87026877 39.60277707 -180.77658816 39.5463118 -177.59747314 39.51898193 C-176.63442064 39.52648319 -175.67136814 39.53398444 -174.67913222 39.541713 C-171.44374861 39.56205465 -168.20906147 39.55387462 -164.97363281 39.54589844 C-162.65779423 39.5546299 -160.34196168 39.56511418 -158.02613831 39.57722473 C-151.73107366 39.60515738 -145.43620516 39.6084878 -139.14108753 39.60750484 C-132.56534715 39.61062769 -125.98969593 39.63623279 -119.41400146 39.65948486 C-108.3744752 39.69614274 -97.33498976 39.71755882 -86.29541016 39.72900391 C-74.92460784 39.74083043 -63.55387116 39.76102333 -52.18310547 39.79248047 C-51.4822124 39.79441657 -50.78131934 39.79635267 -50.05918708 39.79834744 C-46.54301248 39.80811195 -43.02683837 39.81804107 -39.51066446 39.82805204 C-10.34047964 39.91089009 18.82971987 39.96456969 48 40 C48.10335415 47.51737394 48.17226187 55.03455823 48.21972656 62.55249023 C48.23956062 65.09780723 48.26663627 67.64308047 48.30175781 70.18823242 C48.86099119 111.82644673 48.86099119 111.82644673 41 128 C26.39537356 128.09386422 11.7907876 128.1641837 -2.81408024 128.20724869 C-9.5969412 128.22778508 -16.37961365 128.25573235 -23.16235352 128.30175781 C-29.71759252 128.34621794 -36.27270991 128.36919015 -42.82809258 128.37950897 C-45.31933089 128.38685536 -47.81055948 128.40120016 -50.30171394 128.42292023 C-77.95843176 128.65429509 -96.80569004 123.17054318 -117.4375 103.9375 C-136.87223032 86.18566533 -160.21926384 80.75525518 -185.79296875 80.5859375 C-187.59329586 80.56719474 -189.39361448 80.5476191 -191.19392395 80.5272522 C-195.89717565 80.47625296 -200.60045574 80.43645635 -205.30383301 80.39910889 C-210.96592641 80.35177098 -216.62788256 80.29031312 -222.28986359 80.23126221 C-230.85985266 80.14344335 -239.4298207 80.07339797 -248 80 C-248 66.8 -248 53.6 -248 40 C-231.25 39.5625 -231.25 39.5625 -225.98144531 39.43188477 C-224.59699547 39.39374369 -223.21255466 39.35527303 -221.828125 39.31640625 C-221.11446777 39.29993042 -220.40081055 39.28345459 -219.66552734 39.26647949 C-216.32024794 39.16860604 -213.20364671 39.01835376 -210 38 C-209.80426392 36.56359829 -209.61872184 35.12580496 -209.4375 33.6875 C-209.33308594 32.88699219 -209.22867188 32.08648437 -209.12109375 31.26171875 C-208.85244822 28.83182884 -208.85244822 28.83182884 -210 26 C-212.81162951 24.92702631 -215.52033944 24.87580684 -218.50561523 24.87402344 C-219.39010849 24.87021667 -220.27460175 24.86640991 -221.18589783 24.86248779 C-222.13388748 24.86146057 -223.08187714 24.86043335 -224.05859375 24.859375 C-226.07357907 24.84105329 -228.08855336 24.82148357 -230.10351562 24.80078125 C-233.27468593 24.77177589 -236.4451433 24.74999883 -239.61645508 24.74951172 C-242.68114212 24.74617924 -245.74419103 24.71165061 -248.80859375 24.671875 C-250.22754189 24.68247955 -250.22754189 24.68247955 -251.67515564 24.69329834 C-256.26165577 24.60847927 -258.34996606 24.49404424 -262.09790039 21.64550781 C-264 19 -264 19 -264.625 16 C-263.75601848 11.82888872 -262.39311557 10.5763422 -259 8 C-255.60863753 7.26470947 -252.27990299 7.33116692 -248.82078552 7.3742218 C-247.78619691 7.36727726 -246.75160831 7.36033271 -245.68566853 7.35317773 C-242.21382039 7.33589397 -238.74307102 7.35423623 -235.27124023 7.37231445 C-232.7844082 7.36713742 -230.29757994 7.35973882 -227.8107605 7.35028076 C-222.45340772 7.33469902 -217.09637827 7.33425281 -211.73904228 7.34728432 C-203.98894782 7.36593476 -196.23910962 7.35514182 -188.48902453 7.33680775 C-175.90908885 7.30766137 -163.32923253 7.29930477 -150.74926758 7.30541992 C-138.53962297 7.3112837 -126.33000502 7.31235279 -114.12036133 7.3034668 C-113.36822668 7.30292423 -112.61609203 7.30238165 -111.84116542 7.30182264 C-103.63144883 7.29565729 -95.42173896 7.28692517 -87.21202946 7.27447033 C-86.4906868 7.27337784 -85.76934414 7.27228536 -85.02614262 7.27115976 C-82.14266906 7.26674067 -79.25919567 7.26226684 -76.37572277 7.25743415 C-67.93103883 7.24330603 -59.48644474 7.23729264 -51.04175187 7.24597003 C-45.12133374 7.25175952 -39.20094676 7.24813951 -33.28052902 7.2411499 C-30.84885498 7.24006131 -28.41717663 7.24244385 -25.98550987 7.2484951 C-22.67433893 7.25634142 -19.36339792 7.25208591 -16.05223083 7.24482727 C-14.5982089 7.25284527 -14.5982089 7.25284527 -13.11481279 7.26102525 C-12.22863301 7.25664325 -11.34245323 7.25226125 -10.42941952 7.24774647 C-9.66509481 7.24817851 -8.90077011 7.24861055 -8.11328405 7.24905568 C-5.57758956 6.9502179 -4.09760929 6.47207525 -2 5 C-1.34 3.35 -0.68 1.7 0 0 Z " fill="#EBEAEB" transform="translate(288,256)"/>
<path d="M0 0 C10.09302732 -0.06981635 20.18599624 -0.12297085 30.27921677 -0.15543652 C34.96699362 -0.17102622 39.65460405 -0.19214067 44.34228516 -0.22631836 C48.87457136 -0.25915254 53.40669848 -0.27690323 57.93909454 -0.28463173 C59.6596756 -0.29013239 61.38024894 -0.30087259 63.10076141 -0.31719017 C85.10294964 -0.5173743 103.94482968 5.39756411 120.3203125 20.57421875 C138.39928624 36.9401702 159.00291987 47.06292051 183.68701172 47.20532227 C184.75102707 47.21522186 185.81504242 47.22512146 186.91130066 47.23532104 C190.41740721 47.26683047 193.92352729 47.29165172 197.4296875 47.31640625 C199.86492255 47.33698489 202.30015409 47.3579816 204.73538208 47.37937927 C211.13697471 47.43450591 217.53859907 47.48395665 223.94024658 47.53222656 C230.47581803 47.58251033 237.01134354 47.63816048 243.546875 47.69335938 C256.36454381 47.80082587 269.18225187 47.90247862 282 48 C281.37104665 49.42865852 280.74063497 50.85667508 280.10961914 52.28442383 C279.75871719 53.07972 279.40781525 53.87501617 279.04627991 54.69441223 C273.93704536 65.95314768 266.93327382 75.60281476 259 85 C258.16210938 85.99257813 257.32421875 86.98515625 256.4609375 88.0078125 C250.83523447 94.41932802 244.78826046 99.84843475 238 105 C237.47422363 105.40605469 236.94844727 105.81210937 236.40673828 106.23046875 C223.1650116 116.40136664 208.62270455 123.24962341 193 129 C192.33121826 129.24967529 191.66243652 129.49935059 190.97338867 129.7565918 C156.32994987 142.08678039 115.83132568 137.11711544 83 122 C45.88693081 104.14425967 19.70415708 72.37004073 6 34 C2.18812942 22.90010778 -0.06583951 11.74628852 0 0 Z " fill="#F3FAFD" transform="translate(41,352)"/>
<path d="M0 0 C68.64 0 137.28 0 208 0 C208 5.28 208 10.56 208 16 C205.5515567 16.00546844 205.5515567 16.00546844 203.0536499 16.01104736 C187.69111055 16.04794517 172.32879342 16.10542254 156.96641159 16.18390274 C149.06793626 16.22372305 141.169561 16.25610026 133.27099609 16.27099609 C126.38710652 16.2839972 119.50343685 16.31092209 112.61967111 16.35461307 C108.97424446 16.37726296 105.32908938 16.3929086 101.68358612 16.39188385 C97.61524269 16.391001 93.54770266 16.42120179 89.47949219 16.45410156 C88.26892654 16.4490712 87.0583609 16.44404083 85.81111145 16.43885803 C84.14948219 16.45972725 84.14948219 16.45972725 82.45428467 16.48101807 C81.49193279 16.48470524 80.52958092 16.48839241 79.53806686 16.49219131 C76.24597185 17.15086365 75.04847989 18.38835999 73 21 C72.42716914 24.43698516 72.49031437 26.18628812 74.34881592 29.15338135 C78.58253118 32.10227411 82.87891521 31.57000753 87.91894531 31.54589844 C89.03143646 31.55623611 90.14392761 31.56657379 91.29013062 31.57722473 C94.96960835 31.60673723 98.64853802 31.60815375 102.328125 31.609375 C104.87832697 31.62435086 107.42851922 31.64107674 109.97869873 31.65948486 C116.00639428 31.69876442 122.03390337 31.72038452 128.061692 31.73345876 C134.92511271 31.74933021 141.78834937 31.78774633 148.6516633 31.82805204 C162.76771355 31.91044555 176.88375941 31.96454101 191 32 C191.04982959 40.84490931 191.04982959 40.84490931 190.15234375 44.0078125 C189.9630127 44.67748047 189.77368164 45.34714844 189.57861328 46.03710938 C189.3670459 46.72611328 189.15547852 47.41511719 188.9375 48.125 C188.71562012 48.85783203 188.49374023 49.59066406 188.26513672 50.34570312 C184.77070053 61.38076477 179.62095436 71.24468975 172 80 C171.33355469 80.80953125 170.66710937 81.6190625 169.98046875 82.453125 C155.98948733 98.88937704 134.38434305 110.42743572 112.62255859 112.19287109 C85.95708836 113.06119606 64.36111334 106.39478424 44 89 C42.98873047 88.14148438 42.98873047 88.14148438 41.95703125 87.265625 C30.8494594 76.99684004 23.47601909 62.5196047 19.125 48.25 C18.9094043 47.55293945 18.69380859 46.85587891 18.47167969 46.13769531 C18.27735352 45.45803711 18.08302734 44.77837891 17.8828125 44.078125 C17.62588623 43.18722168 17.62588623 43.18722168 17.36376953 42.27832031 C16.81514979 38.84226701 16.94876644 35.47753428 17 32 C17.9787207 31.98018066 18.95744141 31.96036133 19.96582031 31.93994141 C23.60393597 31.86375376 27.24165853 31.77505705 30.87939453 31.68261719 C32.45255765 31.64438171 34.02580658 31.60951934 35.59912109 31.578125 C37.86326723 31.53235578 40.12682547 31.47438239 42.390625 31.4140625 C43.09181458 31.40251129 43.79300415 31.39096008 44.51544189 31.37905884 C48.1267836 31.27040027 50.98184965 31.09041737 54 29 C55.38550197 26.22899606 55.1877467 24.0665294 55 21 C53.27773504 17.75150023 53.27773504 17.75150023 50 17 C48.35912211 16.88507216 46.7142222 16.82367646 45.06958008 16.79467773 C43.56836357 16.7647599 43.56836357 16.7647599 42.03681946 16.73423767 C40.95861435 16.71752518 39.88040924 16.70081268 38.76953125 16.68359375 C37.11119514 16.6524221 37.11119514 16.6524221 35.4193573 16.62062073 C31.8838021 16.55517668 28.34817194 16.49626397 24.8125 16.4375 C22.41730992 16.3943099 20.02212745 16.35069546 17.62695312 16.30664062 C11.75137912 16.19950048 5.87572964 16.09821832 0 16 C0 10.72 0 5.44 0 0 Z " fill="#EBEAEB" transform="translate(72,32)"/>
<path d="M0 0 C5.28 0 10.56 0 16 0 C16.99 1.98 17.98 3.96 19 6 C22.17812927 7.58906464 25.62103872 7.17838637 29.11328125 7.2109375 C30.77019208 7.23901144 32.42709299 7.26767594 34.08398438 7.296875 C36.69750638 7.33809852 39.31084424 7.37498329 41.92456055 7.40136719 C44.44619081 7.42903286 46.96697759 7.47490896 49.48828125 7.5234375 C50.6541552 7.5283168 50.6541552 7.5283168 51.84358215 7.53329468 C56.38241379 7.63574575 59.3962027 8.16878543 63 11 C64.40457737 13.80915474 64.24895157 15.88810534 64 19 C62.22015595 22.1359157 61.47691793 22.84102736 58 24 C56.60754807 24.09049268 55.21116296 24.12656962 53.81577396 24.12749195 C52.53036656 24.13200342 52.53036656 24.13200342 51.21899134 24.13660604 C50.27717601 24.13485567 49.33536068 24.13310529 48.36500549 24.13130188 C47.36479415 24.13341759 46.36458281 24.13553331 45.33406204 24.13771313 C41.96691917 24.14372691 38.59981362 24.14271201 35.23266602 24.1418457 C32.82495052 24.14487623 30.4172356 24.14839739 28.00952148 24.15237427 C22.81703765 24.16027093 17.62455824 24.16543148 12.43206978 24.16866493 C4.22690384 24.17415984 -3.9782205 24.19105509 -12.18336487 24.21000671 C-14.98987096 24.21636344 -17.79637715 24.22267186 -20.60288334 24.22898388 C-21.30425937 24.23056764 -22.00563539 24.2321514 -22.72826524 24.23378316 C-30.71280209 24.2517212 -38.69734189 24.26794747 -46.68188477 24.28295898 C-47.77681707 24.28502279 -47.77681707 24.28502279 -48.89386923 24.28712829 C-60.7279509 24.30906732 -72.56202188 24.3198168 -84.3961203 24.32732973 C-96.54165598 24.33539593 -108.68709978 24.35866919 -120.83258301 24.3952834 C-128.32670055 24.41732809 -135.82062929 24.42696711 -143.31477762 24.42078307 C-149.05464026 24.41723836 -154.79429346 24.43444384 -160.53409576 24.45946121 C-162.89157926 24.46640286 -165.24909422 24.46646787 -167.60657692 24.45926094 C-170.81742736 24.4504343 -174.02725486 24.46596641 -177.23802185 24.48774719 C-178.17760646 24.47930466 -179.11719107 24.47086212 -180.08524793 24.46216375 C-185.16428246 24.48940879 -185.16428246 24.48940879 -189.54762363 26.8445158 C-191.1575227 29.02612411 -191.1575227 29.02612411 -192 32 C-197.28 32 -202.56 32 -208 32 C-208.66 30.02 -209.32 28.04 -210 26 C-212.71900039 24.72099468 -215.5261202 24.87580338 -218.50561523 24.87402344 C-219.39010849 24.87021667 -220.27460175 24.86640991 -221.18589783 24.86248779 C-222.13388748 24.86146057 -223.08187714 24.86043335 -224.05859375 24.859375 C-226.07357907 24.84105329 -228.08855336 24.82148357 -230.10351562 24.80078125 C-233.27468593 24.77177589 -236.4451433 24.74999883 -239.61645508 24.74951172 C-242.68114212 24.74617924 -245.74419103 24.71165061 -248.80859375 24.671875 C-250.22754189 24.68247955 -250.22754189 24.68247955 -251.67515564 24.69329834 C-256.26165577 24.60847927 -258.34996606 24.49404424 -262.09790039 21.64550781 C-264 19 -264 19 -264.625 16 C-263.75601848 11.82888872 -262.39311557 10.5763422 -259 8 C-255.60863753 7.26470947 -252.27990299 7.33116692 -248.82078552 7.3742218 C-247.78619691 7.36727726 -246.75160831 7.36033271 -245.68566853 7.35317773 C-242.21382039 7.33589397 -238.74307102 7.35423623 -235.27124023 7.37231445 C-232.7844082 7.36713742 -230.29757994 7.35973882 -227.8107605 7.35028076 C-222.45340772 7.33469902 -217.09637827 7.33425281 -211.73904228 7.34728432 C-203.98894782 7.36593476 -196.23910962 7.35514182 -188.48902453 7.33680775 C-175.90908885 7.30766137 -163.32923253 7.29930477 -150.74926758 7.30541992 C-138.53962297 7.3112837 -126.33000502 7.31235279 -114.12036133 7.3034668 C-113.36822668 7.30292423 -112.61609203 7.30238165 -111.84116542 7.30182264 C-103.63144883 7.29565729 -95.42173896 7.28692517 -87.21202946 7.27447033 C-86.4906868 7.27337784 -85.76934414 7.27228536 -85.02614262 7.27115976 C-82.14266906 7.26674067 -79.25919567 7.26226684 -76.37572277 7.25743415 C-67.93103883 7.24330603 -59.48644474 7.23729264 -51.04175187 7.24597003 C-45.12133374 7.25175952 -39.20094676 7.24813951 -33.28052902 7.2411499 C-30.84885498 7.24006131 -28.41717663 7.24244385 -25.98550987 7.2484951 C-22.67433893 7.25634142 -19.36339792 7.25208591 -16.05223083 7.24482727 C-14.5982089 7.25284527 -14.5982089 7.25284527 -13.11481279 7.26102525 C-12.22863301 7.25664325 -11.34245323 7.25226125 -10.42941952 7.24774647 C-9.66509481 7.24817851 -8.90077011 7.24861055 -8.11328405 7.24905568 C-5.57758956 6.9502179 -4.09760929 6.47207525 -2 5 C-1.34 3.35 -0.68 1.7 0 0 Z " fill="#70ABD8" transform="translate(288,256)"/>
<path d="M0 0 C68.64 0 137.28 0 208 0 C208 5.28 208 10.56 208 16 C205.5515567 16.00546844 205.5515567 16.00546844 203.0536499 16.01104736 C187.69111055 16.04794517 172.32879342 16.10542254 156.96641159 16.18390274 C149.06793626 16.22372305 141.169561 16.25610026 133.27099609 16.27099609 C126.38710652 16.2839972 119.50343685 16.31092209 112.61967111 16.35461307 C108.97424446 16.37726296 105.32908938 16.3929086 101.68358612 16.39188385 C97.61524269 16.391001 93.54770266 16.42120179 89.47949219 16.45410156 C88.26892654 16.4490712 87.0583609 16.44404083 85.81111145 16.43885803 C84.14948219 16.45972725 84.14948219 16.45972725 82.45428467 16.48101807 C81.49193279 16.48470524 80.52958092 16.48839241 79.53806686 16.49219131 C76.2462134 17.15081533 75.07051325 18.40818476 73 21 C72.505 22.485 72.505 22.485 72 24 C66.72 24 61.44 24 56 24 C55.01 22.02 54.02 20.04 53 18 C50.08274166 17.02758055 48.11196561 16.84832181 45.06958008 16.79467773 C43.56836357 16.7647599 43.56836357 16.7647599 42.03681946 16.73423767 C40.95861435 16.71752518 39.88040924 16.70081268 38.76953125 16.68359375 C37.11119514 16.6524221 37.11119514 16.6524221 35.4193573 16.62062073 C31.8838021 16.55517668 28.34817194 16.49626397 24.8125 16.4375 C22.41730992 16.3943099 20.02212745 16.35069546 17.62695312 16.30664062 C11.75137912 16.19950048 5.87572964 16.09821832 0 16 C0 10.72 0 5.44 0 0 Z " fill="#70ABD8" transform="translate(72,32)"/>
<path d="M0 0 C15.84 0 31.68 0 48 0 C48 10.56 48 21.12 48 32 C32.16 32 16.32 32 0 32 C0 21.44 0 10.88 0 0 Z " fill="#EBEAEB" transform="translate(376,24)"/>
<path d="M0 0 C2.97 0 5.94 0 9 0 C9.32871094 1.36318359 9.32871094 1.36318359 9.6640625 2.75390625 C16.22016316 28.73845155 29.15803189 50.33250649 52.1875 65.1875 C66.35470067 73.5446501 81.56534389 78.0448797 98 79 C98 79.33 98 79.66 98 80 C70.36272671 81.21167055 48.17440081 75.08958711 27 57 C25.98873047 56.14148438 25.98873047 56.14148438 24.95703125 55.265625 C13.8494594 44.99684004 6.47601909 30.5196047 2.125 16.25 C1.9094043 15.55293945 1.69380859 14.85587891 1.47167969 14.13769531 C0.08627484 9.29222462 -0.19197145 5.03642738 0 0 Z " fill="#DBD9DB" transform="translate(89,64)"/>
<path d="M0 0 C2.31 0 4.62 0 7 0 C7.2893222 1.44135414 7.57831151 2.88277511 7.8671875 4.32421875 C8.05120117 5.24122559 8.23521484 6.15823242 8.42480469 7.10302734 C8.79121444 8.94845101 9.15186859 10.79503351 9.50488281 12.64306641 C16.97202713 51.63895894 34.71912515 83.25427921 65 109 C64.67 109.66 64.34 110.32 64 111 C31.30766326 86.57170387 7.55587672 54.08422272 0.75 13.0625 C0.13574998 8.65498669 -0.20667052 4.44341628 0 0 Z " fill="#DEEFF6" transform="translate(41,352)"/>
<path d="M0 0 C5.28 0 10.56 0 16 0 C16 10.56 16 21.12 16 32 C10.72 32 5.44 32 0 32 C0 21.44 0 10.88 0 0 Z " fill="#71ACD9" transform="translate(440,24)"/>
<path d="M0 0 C0.66 -0.0103125 1.32 -0.020625 2 -0.03125 C4.91796104 0.7438334 6.0931088 2.19104167 8 4.5 C8.51757812 7.09375 8.51757812 7.09375 8.53125 10 C8.53640625 11.051875 8.5415625 12.10375 8.546875 13.1875 C8.53140625 14.280625 8.5159375 15.37375 8.5 16.5 C8.51546875 17.593125 8.5309375 18.68625 8.546875 19.8125 C8.54171875 20.864375 8.5365625 21.91625 8.53125 23 C8.52673828 23.9590625 8.52222656 24.918125 8.51757812 25.90625 C7.857725 29.21298564 6.58886445 30.40908706 4 32.5 C2 33.03125 2 33.03125 0 33 C-0.99 33.01546875 -0.99 33.01546875 -2 33.03125 C-4.91796104 32.2561666 -6.0931088 30.80895833 -8 28.5 C-8.51757812 25.90625 -8.51757812 25.90625 -8.53125 23 C-8.53640625 21.948125 -8.5415625 20.89625 -8.546875 19.8125 C-8.53140625 18.719375 -8.5159375 17.62625 -8.5 16.5 C-8.51546875 15.406875 -8.5309375 14.31375 -8.546875 13.1875 C-8.53914062 11.6096875 -8.53914062 11.6096875 -8.53125 10 C-8.52673828 9.0409375 -8.52222656 8.081875 -8.51757812 7.09375 C-7.60329874 2.51200272 -4.67433964 -0.07303656 0 0 Z " fill="#000000" transform="translate(240,175.5)"/>
<path d="M0 0 C0.66 -0.0103125 1.32 -0.020625 2 -0.03125 C4.91796104 0.7438334 6.0931088 2.19104167 8 4.5 C8.51757812 7.09375 8.51757812 7.09375 8.53125 10 C8.53640625 11.051875 8.5415625 12.10375 8.546875 13.1875 C8.53140625 14.280625 8.5159375 15.37375 8.5 16.5 C8.51546875 17.593125 8.5309375 18.68625 8.546875 19.8125 C8.54171875 20.864375 8.5365625 21.91625 8.53125 23 C8.52673828 23.9590625 8.52222656 24.918125 8.51757812 25.90625 C7.857725 29.21298564 6.58886445 30.40908706 4 32.5 C2 33.03125 2 33.03125 0 33 C-0.99 33.01546875 -0.99 33.01546875 -2 33.03125 C-4.91796104 32.2561666 -6.0931088 30.80895833 -8 28.5 C-8.51757812 25.90625 -8.51757812 25.90625 -8.53125 23 C-8.53640625 21.948125 -8.5415625 20.89625 -8.546875 19.8125 C-8.53140625 18.719375 -8.5159375 17.62625 -8.5 16.5 C-8.51546875 15.406875 -8.5309375 14.31375 -8.546875 13.1875 C-8.53914062 11.6096875 -8.53914062 11.6096875 -8.53125 10 C-8.52673828 9.0409375 -8.52222656 8.081875 -8.51757812 7.09375 C-7.60329874 2.51200272 -4.67433964 -0.07303656 0 0 Z " fill="#000000" transform="translate(176,175.5)"/>
<path d="M0 0 C0.66 -0.0103125 1.32 -0.020625 2 -0.03125 C4.91796104 0.7438334 6.0931088 2.19104167 8 4.5 C8.51757812 7.09375 8.51757812 7.09375 8.53125 10 C8.53640625 11.051875 8.5415625 12.10375 8.546875 13.1875 C8.53140625 14.280625 8.5159375 15.37375 8.5 16.5 C8.51546875 17.593125 8.5309375 18.68625 8.546875 19.8125 C8.54171875 20.864375 8.5365625 21.91625 8.53125 23 C8.52673828 23.9590625 8.52222656 24.918125 8.51757812 25.90625 C7.857725 29.21298564 6.58886445 30.40908706 4 32.5 C2 33.03125 2 33.03125 0 33 C-0.99 33.01546875 -0.99 33.01546875 -2 33.03125 C-4.91796104 32.2561666 -6.0931088 30.80895833 -8 28.5 C-8.51757812 25.90625 -8.51757812 25.90625 -8.53125 23 C-8.53640625 21.948125 -8.5415625 20.89625 -8.546875 19.8125 C-8.53140625 18.719375 -8.5159375 17.62625 -8.5 16.5 C-8.51546875 15.406875 -8.5309375 14.31375 -8.546875 13.1875 C-8.53914063 11.6096875 -8.53914063 11.6096875 -8.53125 10 C-8.52673828 9.0409375 -8.52222656 8.081875 -8.51757812 7.09375 C-7.60329874 2.51200272 -4.67433964 -0.07303656 0 0 Z " fill="#000000" transform="translate(112,175.5)"/>
<path d="M0 0 C7.91317365 1.13045338 7.91317365 1.13045338 10.8125 3.8125 C11.37582031 4.31394531 11.93914062 4.81539062 12.51953125 5.33203125 C16.17097285 9.44592455 16.43409959 13.19581856 16.31640625 18.53125 C15.69970296 23.34305841 12.99340629 26.00659371 9.6875 29.3125 C7 31 7 31 0 32 C0 21.44 0 10.88 0 0 Z " fill="#E6E5E6" transform="translate(472,24)"/>
<path d="M0 0 C2.64 0 5.28 0 8 0 C8.01401855 1.16402344 8.01401855 1.16402344 8.02832031 2.3515625 C8.08233437 5.90166287 8.16592303 9.45048948 8.25 13 C8.26417969 14.22074219 8.27835938 15.44148438 8.29296875 16.69921875 C8.486627 23.86457417 8.98420033 28.97630049 13 35 C14.7921499 36.69812138 14.7921499 36.69812138 16.75 37.5 C17.8225 37.995 18.895 38.49 20 39 C20 39.33 20 39.66 20 40 C13.4 40 6.8 40 0 40 C0 26.8 0 13.6 0 0 Z " fill="#E0DEE0" transform="translate(40,296)"/>
<path d="M0 0 C0.66 -0.0103125 1.32 -0.020625 2 -0.03125 C5.04782397 0.77832824 6.15682414 1.94542293 8 4.5 C8.40100915 7.33065284 8.56122899 9.68346659 8.5 12.5 C8.51546875 13.2115625 8.5309375 13.923125 8.546875 14.65625 C8.52115187 18.10314984 8.25431936 20.14752229 6.21875 22.96875 C3.88020812 24.58267327 2.80290722 25.04379543 0 25 C-0.66 25.0103125 -1.32 25.020625 -2 25.03125 C-5.04782397 24.22167176 -6.15682414 23.05457707 -8 20.5 C-8.40100915 17.66934716 -8.56122899 15.31653341 -8.5 12.5 C-8.51546875 11.7884375 -8.5309375 11.076875 -8.546875 10.34375 C-8.52115187 6.89685016 -8.25431936 4.85247771 -6.21875 2.03125 C-3.88020812 0.41732673 -2.80290722 -0.04379543 0 0 Z " fill="#000000" transform="translate(208,207.5)"/>
<path d="M0 0 C0.66 -0.0103125 1.32 -0.020625 2 -0.03125 C5.04782397 0.77832824 6.15682414 1.94542293 8 4.5 C8.40100915 7.33065284 8.56122899 9.68346659 8.5 12.5 C8.51546875 13.2115625 8.5309375 13.923125 8.546875 14.65625 C8.52115187 18.10314984 8.25431936 20.14752229 6.21875 22.96875 C3.88020812 24.58267327 2.80290722 25.04379543 0 25 C-0.66 25.0103125 -1.32 25.020625 -2 25.03125 C-5.04782397 24.22167176 -6.15682414 23.05457707 -8 20.5 C-8.40100915 17.66934716 -8.56122899 15.31653341 -8.5 12.5 C-8.51546875 11.7884375 -8.5309375 11.076875 -8.546875 10.34375 C-8.52115187 6.89685016 -8.25431936 4.85247771 -6.21875 2.03125 C-3.88020812 0.41732673 -2.80290722 -0.04379543 0 0 Z " fill="#000000" transform="translate(144,207.5)"/>
<path d="M0 0 C0.66 -0.0103125 1.32 -0.020625 2 -0.03125 C5.04782397 0.77832824 6.15682414 1.94542293 8 4.5 C8.40100915 7.33065284 8.56122899 9.68346659 8.5 12.5 C8.51546875 13.2115625 8.5309375 13.923125 8.546875 14.65625 C8.52115187 18.10314984 8.25431936 20.14752229 6.21875 22.96875 C3.88020812 24.58267327 2.80290722 25.04379543 0 25 C-0.66 25.0103125 -1.32 25.020625 -2 25.03125 C-5.04782397 24.22167176 -6.15682414 23.05457707 -8 20.5 C-8.40100915 17.66934716 -8.56122899 15.31653341 -8.5 12.5 C-8.51546875 11.7884375 -8.5309375 11.076875 -8.546875 10.34375 C-8.52115187 6.89685016 -8.25431936 4.85247771 -6.21875 2.03125 C-3.88020812 0.41732673 -2.80290722 -0.04379543 0 0 Z " fill="#000000" transform="translate(208,167.5)"/>
<path d="M0 0 C0.66 -0.0103125 1.32 -0.020625 2 -0.03125 C5.04782397 0.77832824 6.15682414 1.94542293 8 4.5 C8.40100915 7.33065284 8.56122899 9.68346659 8.5 12.5 C8.51546875 13.2115625 8.5309375 13.923125 8.546875 14.65625 C8.52115187 18.10314984 8.25431936 20.14752229 6.21875 22.96875 C3.88020812 24.58267327 2.80290722 25.04379543 0 25 C-0.66 25.0103125 -1.32 25.020625 -2 25.03125 C-5.04782397 24.22167176 -6.15682414 23.05457707 -8 20.5 C-8.40100915 17.66934716 -8.56122899 15.31653341 -8.5 12.5 C-8.51546875 11.7884375 -8.5309375 11.076875 -8.546875 10.34375 C-8.52115187 6.89685016 -8.25431936 4.85247771 -6.21875 2.03125 C-3.88020812 0.41732673 -2.80290722 -0.04379543 0 0 Z " fill="#000000" transform="translate(144,167.5)"/>
<path d="M0 0 C4.64963504 2.29927007 4.64963504 2.29927007 6 5 C6.29123466 8.34919863 6.36462337 10.35756835 4.6875 13.3125 C1.52592843 16.47407157 -2.11841691 16.24837396 -6.375 16.375 C-10.79028114 16.3356218 -12.53327074 16.29941123 -16.3125 13.875 C-18.32483711 10.44657382 -18.81252952 8.9001417 -18 5 C-14.0594899 -1.71346165 -6.95616502 -1.03309382 0 0 Z " fill="#060606" transform="translate(242,448)"/>
<path d="M0 0 C4.64963504 2.29927007 4.64963504 2.29927007 6 5 C6.29123466 8.34919863 6.36462337 10.35756835 4.6875 13.3125 C1.52592843 16.47407157 -2.11841691 16.24837396 -6.375 16.375 C-10.79028114 16.3356218 -12.53327074 16.29941123 -16.3125 13.875 C-18.32483711 10.44657382 -18.81252952 8.9001417 -18 5 C-14.0594899 -1.71346165 -6.95616502 -1.03309382 0 0 Z " fill="#060606" transform="translate(194,448)"/>
<path d="M0 0 C4.64963504 2.29927007 4.64963504 2.29927007 6 5 C6.29123466 8.34919863 6.36462337 10.35756835 4.6875 13.3125 C1.52592843 16.47407157 -2.11841691 16.24837396 -6.375 16.375 C-10.79028114 16.3356218 -12.53327074 16.29941123 -16.3125 13.875 C-18.32483711 10.44657382 -18.81252952 8.9001417 -18 5 C-14.0594899 -1.71346165 -6.95616502 -1.03309382 0 0 Z " fill="#060606" transform="translate(146,448)"/>
<path d="M0 0 C4.64963504 2.29927007 4.64963504 2.29927007 6 5 C6.29123466 8.34919863 6.36462337 10.35756835 4.6875 13.3125 C1.52592843 16.47407157 -2.11841691 16.24837396 -6.375 16.375 C-10.79028114 16.3356218 -12.53327074 16.29941123 -16.3125 13.875 C-18.32483711 10.44657382 -18.81252952 8.9001417 -18 5 C-14.0594899 -1.71346165 -6.95616502 -1.03309382 0 0 Z " fill="#060606" transform="translate(266,416)"/>
<path d="M0 0 C4.64963504 2.29927007 4.64963504 2.29927007 6 5 C6.29123466 8.34919863 6.36462337 10.35756835 4.6875 13.3125 C1.52592843 16.47407157 -2.11841691 16.24837396 -6.375 16.375 C-10.79028114 16.3356218 -12.53327074 16.29941123 -16.3125 13.875 C-18.32483711 10.44657382 -18.81252952 8.9001417 -18 5 C-14.0594899 -1.71346165 -6.95616502 -1.03309382 0 0 Z " fill="#060606" transform="translate(218,416)"/>
<path d="M0 0 C4.64963504 2.29927007 4.64963504 2.29927007 6 5 C6.29123466 8.34919863 6.36462337 10.35756835 4.6875 13.3125 C1.52592843 16.47407157 -2.11841691 16.24837396 -6.375 16.375 C-10.79028114 16.3356218 -12.53327074 16.29941123 -16.3125 13.875 C-18.32483711 10.44657382 -18.81252952 8.9001417 -18 5 C-14.0594899 -1.71346165 -6.95616502 -1.03309382 0 0 Z " fill="#060606" transform="translate(170,416)"/>
<path d="M0 0 C4.64963504 2.29927007 4.64963504 2.29927007 6 5 C6.29123466 8.34919863 6.36462337 10.35756835 4.6875 13.3125 C1.52592843 16.47407157 -2.11841691 16.24837396 -6.375 16.375 C-10.79028114 16.3356218 -12.53327074 16.29941123 -16.3125 13.875 C-18.32483711 10.44657382 -18.81252952 8.9001417 -18 5 C-14.0594899 -1.71346165 -6.95616502 -1.03309382 0 0 Z " fill="#060606" transform="translate(122,416)"/>
<path d="M0 0 C4.64963504 2.29927007 4.64963504 2.29927007 6 5 C6.29123466 8.34919863 6.36462337 10.35756835 4.6875 13.3125 C1.52592843 16.47407157 -2.11841691 16.24837396 -6.375 16.375 C-10.79028114 16.3356218 -12.53327074 16.29941123 -16.3125 13.875 C-18.32483711 10.44657382 -18.81252952 8.9001417 -18 5 C-14.0594899 -1.71346165 -6.95616502 -1.03309382 0 0 Z " fill="#060606" transform="translate(146,384)"/>
<path d="M0 0 C4.64963504 2.29927007 4.64963504 2.29927007 6 5 C6.29123466 8.34919863 6.36462337 10.35756835 4.6875 13.3125 C1.52592843 16.47407157 -2.11841691 16.24837396 -6.375 16.375 C-10.79028114 16.3356218 -12.53327074 16.29941123 -16.3125 13.875 C-18.32483711 10.44657382 -18.81252952 8.9001417 -18 5 C-14.0594899 -1.71346165 -6.95616502 -1.03309382 0 0 Z " fill="#060606" transform="translate(98,384)"/>
<path d="M0 0 C4.64963504 2.29927007 4.64963504 2.29927007 6 5 C6.29123466 8.34919863 6.36462337 10.35756835 4.6875 13.3125 C1.52592843 16.47407157 -2.11841691 16.24837396 -6.375 16.375 C-10.79028114 16.3356218 -12.53327074 16.29941123 -16.3125 13.875 C-18.32483711 10.44657382 -18.81252952 8.9001417 -18 5 C-14.0594899 -1.71346165 -6.95616502 -1.03309382 0 0 Z " fill="#060606" transform="translate(210,112)"/>
<path d="M0 0 C4.64963504 2.29927007 4.64963504 2.29927007 6 5 C6.29123466 8.34919863 6.36462337 10.35756835 4.6875 13.3125 C1.52592843 16.47407157 -2.11841691 16.24837396 -6.375 16.375 C-10.79028114 16.3356218 -12.53327074 16.29941123 -16.3125 13.875 C-18.32483711 10.44657382 -18.81252952 8.9001417 -18 5 C-14.0594899 -1.71346165 -6.95616502 -1.03309382 0 0 Z " fill="#060606" transform="translate(162,112)"/>
<path d="M0 0 C4.64963504 2.29927007 4.64963504 2.29927007 6 5 C6.29123466 8.34919863 6.36462337 10.35756835 4.6875 13.3125 C1.52592843 16.47407157 -2.11841691 16.24837396 -6.375 16.375 C-10.79028114 16.3356218 -12.53327074 16.29941123 -16.3125 13.875 C-18.32483711 10.44657382 -18.81252952 8.9001417 -18 5 C-14.0594899 -1.71346165 -6.95616502 -1.03309382 0 0 Z " fill="#060606" transform="translate(234,80)"/>
<path d="M0 0 C4.64963504 2.29927007 4.64963504 2.29927007 6 5 C6.29123466 8.34919863 6.36462337 10.35756835 4.6875 13.3125 C1.52592843 16.47407157 -2.11841691 16.24837396 -6.375 16.375 C-10.79028114 16.3356218 -12.53327074 16.29941123 -16.3125 13.875 C-18.32483711 10.44657382 -18.81252952 8.9001417 -18 5 C-14.0594899 -1.71346165 -6.95616502 -1.03309382 0 0 Z " fill="#060606" transform="translate(186,80)"/>
<path d="M0 0 C4.64963504 2.29927007 4.64963504 2.29927007 6 5 C6.29123466 8.34919863 6.36462337 10.35756835 4.6875 13.3125 C1.52592843 16.47407157 -2.11841691 16.24837396 -6.375 16.375 C-10.79028114 16.3356218 -12.53327074 16.29941123 -16.3125 13.875 C-18.32483711 10.44657382 -18.81252952 8.9001417 -18 5 C-14.0594899 -1.71346165 -6.95616502 -1.03309382 0 0 Z " fill="#060606" transform="translate(138,80)"/>
<path d="M0 0 C14.23555735 4.93006315 25.32182637 12.7860765 36.45898438 22.63867188 C46.69993498 31.68549389 58.45785309 37.71909604 71 43 C64.65191963 45.29069881 57.73117523 41.16608111 51.8984375 38.67578125 C42.42363177 34.20768811 35.17069253 28.03919813 27.5625 20.9375 C18.80572801 12.93899597 9.34103699 8.01411102 -1.49609375 3.48046875 C-4.059281 2.39747213 -6.53871204 1.29044509 -9 0 C-5.9034845 -1.54825775 -3.23385563 -0.8126967 0 0 Z " fill="#D5D3D5" transform="translate(143,339)"/>
<path d="M0 0 C8.91 0 17.82 0 27 0 C25.68 1.65 24.36 3.3 23 5 C22.67 5.99 22.34 6.98 22 8 C16.72 8 11.44 8 6 8 C5.34 6.02 4.68 4.04 4 2 C2.68 1.34 1.36 0.68 0 0 Z " fill="#4D95CD" transform="translate(74,280)"/>
<path d="M0 0 C8.91 0 17.82 0 27 0 C25.68 1.65 24.36 3.3 23 5 C22.67 5.99 22.34 6.98 22 8 C16.72 8 11.44 8 6 8 C4.515 5.03 4.515 5.03 3 2 C2.01 1.34 1.02 0.68 0 0 Z " fill="#4D95CE" transform="translate(122,48)"/>
<path d="M0 0 C0.66 1.32 1.32 2.64 2 4 C5.6115725 10.19126715 9.67390457 12.83695229 16 16 C10.72 16 5.44 16 0 16 C0 10.72 0 5.44 0 0 Z " fill="#E0DEE0" transform="translate(376,40)"/>
<path d="M0 0 C0.556875 0.7425 1.11375 1.485 1.6875 2.25 C4.94125296 6.11932784 8.37122859 8.94276826 13 11 C5.85485307 11.60552093 5.85485307 11.60552093 2 8.875 C-0.29742742 5.57244809 -0.45761159 3.9354597 0 0 Z " fill="#498CC0" transform="translate(24,269)"/>
</svg>
