<?xml version="1.0" encoding="UTF-8"?>
<svg version="1.1" xmlns="http://www.w3.org/2000/svg" width="512" height="512">
<path d="M0 0 C168.96 0 337.92 0 512 0 C512 168.96 512 337.92 512 512 C343.04 512 174.08 512 0 512 C0 343.04 0 174.08 0 0 Z " fill="#FEFEFE" transform="translate(0,0)"/>
<path d="M0 0 C2.0063677 1.48476374 3.9866567 3.00550124 5.9375 4.5625 C6.45731445 4.96831299 6.97712891 5.37412598 7.51269531 5.79223633 C15.95607518 12.54247422 22.2082419 23.10034394 24.9375 33.5625 C24.96698083 35.56228271 24.97073641 37.56277618 24.9375 39.5625 C25.77973114 39.55361755 26.62196228 39.54473511 27.48971558 39.5355835 C35.46269402 39.45512908 43.43553432 39.39437976 51.40882683 39.35525131 C55.50710371 39.33445799 59.60504259 39.30629354 63.703125 39.26074219 C67.66483972 39.2169868 71.62623121 39.19330095 75.5881691 39.18299103 C77.09272467 39.17565248 78.5972644 39.16132317 80.10168076 39.13957977 C90.1976403 38.99958774 97.93468152 40.09420488 106.75 45.1875 C115.50704556 54.69514946 114.64228669 65.5059514 114.57421875 77.6484375 C114.58226804 79.59755592 114.59279143 81.54666554 114.60566711 83.49575806 C114.63409356 88.60043705 114.63481 93.70470881 114.62780762 98.80944824 C114.62045625 106.99983055 114.65180354 115.19008376 114.69025612 123.38035965 C114.69910465 126.23660837 114.69380836 129.09257391 114.68669128 131.94882202 C114.69007485 133.69553708 114.69382385 135.44225149 114.69799805 137.18896484 C114.68945549 138.378125 114.68945549 138.378125 114.68074036 139.59130859 C114.63672142 144.92766948 114.63672142 144.92766948 116.9375 149.5625 C120.40571241 150.46166618 122.86404257 150.90148656 126.3125 149.8125 C128.247197 148.56531178 128.247197 148.56531178 128.9375 145.5625 C129.02978221 143.54521142 129.06262621 141.52501329 129.06347656 139.50561523 C129.06918671 137.63237831 129.06918671 137.63237831 129.07501221 135.72129822 C129.07520607 135.05374952 129.07539993 134.38620083 129.07559967 133.69842339 C129.07902881 130.87762523 129.10041662 128.05705472 129.12083054 125.23633671 C129.15873622 119.9894783 129.19012672 114.74286071 129.18798828 109.49584961 C129.18719574 105.84158486 129.210797 102.18815226 129.2498703 98.5341053 C129.26025424 97.14965633 129.26191099 95.76511039 129.25421906 94.38064384 C129.21134349 85.80194603 129.76280752 78.6704319 134.9375 71.5625 C140.99695919 65.84048499 146.52887919 63.30517164 154.9309082 63.33544922 C155.61438828 63.33515717 156.29786835 63.33486511 157.00205994 63.33456421 C159.24759891 63.33595083 161.49280067 63.35148013 163.73828125 63.3671875 C165.30055052 63.37092001 166.86282215 63.37376586 168.4250946 63.37576294 C172.52685059 63.38338065 176.6284638 63.40301304 180.73016357 63.4251709 C184.91969878 63.44566953 189.10925717 63.45477323 193.29882812 63.46484375 C201.51179141 63.4862608 209.72461147 63.52142766 217.9375 63.5625 C217.9375 68.8425 217.9375 74.1225 217.9375 79.5625 C215.92881836 79.5718457 213.92013672 79.58119141 211.85058594 79.59082031 C205.21273843 79.62459265 198.57520175 79.68014267 191.937603 79.74640274 C187.91330081 79.78590667 183.88921837 79.81808057 179.86474609 79.83349609 C175.98060759 79.8486439 172.09707312 79.88305486 168.21320343 79.93080902 C166.73170472 79.94564242 165.25011978 79.95354214 163.76854706 79.95438385 C161.69237429 79.9567496 159.61787623 79.98379206 157.54199219 80.01660156 C156.36062683 80.02548401 155.17926147 80.03436646 153.96209717 80.04351807 C150.88210416 80.35326091 150.88210416 80.35326091 148.55387878 82.21096802 C146.46967911 85.24309281 146.45025282 87.06745427 146.47094727 90.73291016 C146.4673671 91.98165924 146.46378693 93.23040833 146.46009827 94.51699829 C146.47104365 95.51457594 146.47104365 95.51457594 146.48221016 96.53230667 C146.50418068 98.62773603 146.50035233 100.72172788 146.48973083 102.81723022 C146.46810278 108.02528633 146.48527643 113.23302326 146.51123047 118.44104004 C146.53276473 122.83761797 146.53438214 127.23326924 146.50831413 131.62983322 C146.50400705 133.67861529 146.52847588 135.72572748 146.55384827 137.77432251 C146.5068465 146.62450486 145.29709105 153.71697112 139.22755432 160.46304321 C134.05453829 165.42431161 128.15741194 167.64058035 121.0625 168.0625 C115.25458115 167.83911851 110.59200183 166.02930137 105.9375 162.5625 C99.65568802 155.501951 97.63886141 148.18604188 97.65039062 138.94262695 C97.64355759 138.09800903 97.63672455 137.25339111 97.62968445 136.38317871 C97.61614348 134.55806939 97.60706008 132.73292263 97.60197449 130.90777016 C97.59366285 128.02050775 97.57313961 125.13355819 97.54943848 122.24638367 C97.49312305 115.08054202 97.45776831 107.91462471 97.42181396 100.74865723 C97.39059899 94.6834573 97.35144537 88.61841117 97.30155945 82.55333519 C97.2814671 79.70654133 97.27316866 76.85986578 97.26525879 74.01301575 C97.25229074 72.27340255 97.23877108 70.53379334 97.22460938 68.79418945 C97.22559128 68.0008873 97.22657318 67.20758514 97.22758484 66.39024353 C97.18429889 62.58397845 97.10048882 60.80698322 94.9375 57.5625 C91.60700968 56.45233656 89.04804334 56.40397391 85.53833008 56.35717773 C84.57206947 56.34232834 84.57206947 56.34232834 83.58628845 56.32717896 C81.4599066 56.29562533 79.33350242 56.27083095 77.20703125 56.24609375 C75.73157678 56.22551891 74.25612814 56.2045223 72.78068542 56.18312073 C68.89930949 56.12795474 65.01788085 56.07852138 61.13641357 56.03027344 C57.17487909 55.98001842 53.21342106 55.92435324 49.25195312 55.86914062 C41.48053351 55.76162601 33.70905028 55.66016623 25.9375 55.5625 C25.94210896 56.19749861 25.94671793 56.83249722 25.95146656 57.4867382 C26.06210996 72.97054125 26.14473588 88.45420592 26.19656086 103.93830681 C26.2222922 111.42646397 26.25734476 118.9143565 26.31469727 126.40234375 C26.36468865 132.93239628 26.39682785 139.46225707 26.40794247 145.99249566 C26.4144349 149.44714175 26.42958557 152.90123953 26.46615028 156.35570908 C26.50673257 160.22145253 26.50743937 164.08667003 26.50512695 167.95263672 C26.52310333 169.08552628 26.54107971 170.21841583 26.55960083 171.38563538 C26.50694581 179.54832038 24.78184575 186.26886004 19.22804737 192.47173882 C13.43713626 197.99248938 7.56078229 199.72965684 -0.33203125 199.6328125 C-1.40686768 199.62266113 -2.4817041 199.61250977 -3.58911133 199.60205078 C-4.40532959 199.58899902 -5.22154785 199.57594727 -6.0625 199.5625 C-6.57809066 204.35819944 -6.89569452 209.12194829 -7.06347656 213.94238281 C-7.14400193 215.56240108 -7.27072967 217.18101834 -7.45117188 218.79296875 C-8.55727672 229.03086943 -5.74315354 236.87987114 0.64782727 244.89404881 C9.93759539 255.85995828 18.9137819 263.57910739 33.57216144 265.17495608 C43.48730618 265.94083819 53.42431178 265.70009934 63.35377359 265.40067148 C68.80518791 265.26447848 74.25637759 265.27894737 79.709198 265.27609253 C89.99254377 265.24849716 100.26927892 265.08928981 110.55036628 264.88037765 C122.27212394 264.64877805 133.99350259 264.56753422 145.71716523 264.49767137 C169.79377899 264.35089108 193.8649105 264.01934086 217.9375 263.5625 C217.96334229 266.76422633 217.97889509 269.96592544 217.99267578 273.16772461 C218.00377129 274.51919712 218.00377129 274.51919712 218.01509094 275.89797211 C218.03649917 282.53480826 217.43648094 288.67465953 215.8125 295.125 C215.58949219 296.07479736 215.36648438 297.02459473 215.13671875 298.00317383 C211.85658671 311.58015683 207.65930212 324.81049733 201.9375 337.5625 C201.61136719 338.31144531 201.28523438 339.06039063 200.94921875 339.83203125 C200.30798355 341.29658078 199.65531496 342.75616951 198.9921875 344.2109375 C198.2578137 345.84831909 197.55702506 347.50100484 196.8828125 349.1640625 C189.44327565 366.67700948 178.23501358 383.09964349 165.9375 397.5625 C165.30585938 398.31015625 164.67421875 399.0578125 164.0234375 399.828125 C162.35387334 401.76451448 160.65232356 403.66615232 158.9375 405.5625 C158.24140625 406.35011719 157.5453125 407.13773437 156.828125 407.94921875 C148.47899729 417.34918495 139.81385185 425.77232942 129.9375 433.5625 C128.97328125 434.34367187 128.0090625 435.12484375 127.015625 435.9296875 C109.63969452 449.73340892 90.23001861 460.66787898 69.9375 469.5625 C69.09960938 469.93117188 68.26171875 470.29984375 67.3984375 470.6796875 C61.57224943 473.12782516 55.62221037 474.87809216 49.52734375 476.53515625 C46.83854355 477.30463879 44.23861626 478.14088176 41.6015625 479.05859375 C34.18234708 481.55671725 26.48895923 482.76396159 18.78808594 484.07617188 C16.97962682 484.38470652 15.17272072 484.7026078 13.36816406 485.03320312 C-15.82079888 490.26614875 -48.93736058 490.07738829 -78.0625 484.5625 C-79.31256836 484.33771973 -79.31256836 484.33771973 -80.58789062 484.10839844 C-109.90599846 478.76028504 -140.11742029 468.05972524 -165.0625 451.5625 C-166.25250283 450.79411387 -167.44261701 450.02590018 -168.6328125 449.2578125 C-175.29663853 444.9195104 -181.71302656 440.43895482 -187.8515625 435.37109375 C-190.54944447 433.1641691 -193.34510389 431.11446988 -196.17578125 429.08203125 C-198.66269101 427.07911635 -200.82271881 424.84013664 -203.0625 422.5625 C-204.34340926 421.3017142 -205.62610656 420.04274353 -206.91015625 418.78515625 C-208.31520667 417.39854136 -209.72015232 416.0118203 -211.125 414.625 C-211.83205078 413.93470703 -212.53910156 413.24441406 -213.26757812 412.53320312 C-217.07828919 408.75827339 -220.13896843 405.08297139 -223.0625 400.5625 C-224.7084651 398.87538577 -226.37487149 397.2079378 -228.0625 395.5625 C-240.35334227 380.96712481 -250.03822449 363.81169075 -258.0625 346.5625 C-258.44535156 345.74007813 -258.82820313 344.91765625 -259.22265625 344.0703125 C-259.85852237 342.6647137 -260.47877194 341.25192981 -261.08203125 339.83203125 C-261.81078584 338.14515309 -262.58671782 336.47849795 -263.38671875 334.82421875 C-268.92698079 322.91483656 -271.91114148 310.26877754 -275.0625 297.5625 C-275.26037109 296.79164063 -275.45824219 296.02078125 -275.66210938 295.2265625 C-277.59536641 287.61204822 -278.21103082 280.43481922 -278.12890625 272.62109375 C-278.12411255 271.74674683 -278.11931885 270.8723999 -278.11437988 269.97155762 C-278.10197176 267.83517112 -278.08291967 265.69882494 -278.0625 263.5625 C-276.57552203 263.59071933 -276.57552203 263.59071933 -275.0585041 263.61950874 C-250.82399493 264.07334976 -226.59116297 264.37402535 -202.35278511 264.51846504 C-190.63018815 264.59178815 -178.91190919 264.71301073 -167.19140625 264.95117188 C-156.96316689 265.15888406 -146.73870941 265.27247765 -136.50829303 265.27783382 C-131.10005989 265.2838279 -125.70104609 265.33365775 -120.29507828 265.4966774 C-92.38595327 266.66553138 -92.38595327 266.66553138 -68.80901909 253.58706474 C-60.30388461 245.0239062 -52.3149205 236.12857673 -52.30212402 223.37475586 C-52.42602621 221.04701146 -52.67822089 218.7537267 -52.9375 216.4375 C-53.02018637 214.77400644 -53.09050086 213.10985183 -53.1484375 211.4453125 C-53.3128967 207.46230193 -53.63641242 203.52569819 -54.0625 199.5625 C-55.00931641 199.58497803 -55.95613281 199.60745605 -56.93164062 199.63061523 C-58.80625977 199.6568396 -58.80625977 199.6568396 -60.71875 199.68359375 C-61.95431641 199.70607178 -63.18988281 199.7285498 -64.46289062 199.75170898 C-69.85496542 199.46828129 -73.84655172 197.91045892 -78.0625 194.5625 C-83.46635878 188.43812671 -86.31037935 181.78660678 -86.31646729 173.5798645 C-86.32492676 171.81786209 -86.32492676 171.81786209 -86.33355713 170.02026367 C-86.32748444 168.1078186 -86.32748444 168.1078186 -86.32128906 166.15673828 C-86.32400155 164.78953872 -86.32756393 163.42234061 -86.33190918 162.05514526 C-86.34100653 158.35256553 -86.33749945 154.65009759 -86.33115101 150.94751596 C-86.32607521 147.064851 -86.33078704 143.18219538 -86.33392334 139.29953003 C-86.33755925 132.77795704 -86.33277464 126.25642938 -86.32324219 119.73486328 C-86.31236748 112.20836691 -86.31587755 104.68197899 -86.326895 97.15548527 C-86.33598948 90.68224734 -86.33724233 84.20904194 -86.33201766 77.73579967 C-86.32890865 73.87464108 -86.32845893 70.01353335 -86.33509064 66.15237808 C-86.34089464 62.51946855 -86.33681169 58.88669788 -86.32530212 55.25380325 C-86.32142255 53.29446856 -86.32731575 51.33512205 -86.33355713 49.37579346 C-86.27179508 36.44976854 -83.07792877 24.00684658 -75.0625 13.5625 C-74.64484375 13.01335938 -74.2271875 12.46421875 -73.796875 11.8984375 C-56.50751482 -9.66576448 -23.067148 -16.16069628 0 0 Z " fill="#030303" transform="translate(286.0625,16.4375)"/>
<path d="M0 0 C4.63450646 1.85576636 5.74779037 4.56346331 7.77734375 8.9453125 C10.13540371 14.83669553 11.67249217 20.81358084 13 27 C13.277229 28.25731934 13.277229 28.25731934 13.56005859 29.54003906 C16.49901327 43.39120057 17.35885484 56.95155238 17.3125 71.0625 C17.31004272 71.84644135 17.30758545 72.63038269 17.30505371 73.43807983 C17.26242473 81.03052055 17.03920718 88.47241621 16 96 C16.89445328 96.18298141 16.89445328 96.18298141 17.80697632 96.36965942 C23.43122839 97.53478664 28.77215622 99.16505218 34.1875 101.0625 C44.54746542 104.90869818 44.54746542 104.90869818 55.125 102.875 C56.83429688 102.17503906 56.83429688 102.17503906 58.578125 101.4609375 C59.70734375 100.97882813 60.8365625 100.49671875 62 100 C70.23688528 96.48530811 78.50376625 93.35888522 87.03369141 90.62939453 C89.00763978 89.99755459 90.97835694 89.35623697 92.94921875 88.71484375 C110.08701074 83.19275972 126.15301412 79.77013798 144.25 79.75 C145.31414124 79.74799088 145.31414124 79.74799088 146.39978027 79.74594116 C158.15528804 79.75074514 169.47898279 80.58306311 181 83 C182.17433594 83.22816406 183.34867187 83.45632813 184.55859375 83.69140625 C193.63023395 85.67335011 200.76885803 88.98354467 206.90625 96.05859375 C208.52914438 98.93923128 208.99216017 100.64455188 209 104 C207.56102304 107.2562856 205.61879815 110.12166979 203.625 113.0625 C203.07062256 113.90522461 202.51624512 114.74794922 201.94506836 115.61621094 C200.82579854 117.31022347 199.69853095 118.99898119 198.56298828 120.68212891 C197.23957125 122.64472204 195.94029709 124.61956463 194.65234375 126.60546875 C180.48661253 147.92026058 161.69555641 166.11925824 141 181 C140.11183594 181.66128906 139.22367187 182.32257813 138.30859375 183.00390625 C109.66658164 203.89173572 76.13284402 215.72689669 41.5 221.75 C40.84378662 221.86569336 40.18757324 221.98138672 39.51147461 222.10058594 C12.73621392 226.4448398 -18.47134264 226.5086559 -45 221 C-46.00804687 220.80132324 -47.01609375 220.60264648 -48.0546875 220.39794922 C-75.32798392 214.9408373 -101.01048424 205.17102197 -125 191 C-125 190.34 -125 189.68 -125 189 C-125.53367187 188.91878906 -126.06734375 188.83757812 -126.6171875 188.75390625 C-140.50368063 184.36031088 -153.65322728 169.83007198 -164 160 C-164.53560547 159.49307617 -165.07121094 158.98615234 -165.62304688 158.46386719 C-173.92125132 150.55541194 -181.14613508 142.17814693 -188 133 C-189.06154297 131.61361328 -189.06154297 131.61361328 -190.14453125 130.19921875 C-195.27310252 123.37123925 -199.64020201 116.1723377 -203.93603516 108.80615234 C-204.91995556 107.13588085 -205.93335272 105.48306803 -206.94921875 103.83203125 C-210.54815825 97.92227593 -213.34248882 92.08187522 -215.69140625 85.57421875 C-216.62713366 83.01842597 -217.59967924 80.52538921 -218.65234375 78.01953125 C-224.78754441 63.24897637 -229.01528344 47.87773249 -231 32 C-176.22 32 -121.44 32 -65 32 C-67.64 37.28 -70.28 42.56 -73 48 C-75.62285482 55.46504834 -77.46669592 62.13376487 -78 70 C-77.08476562 70.13277344 -76.16953125 70.26554687 -75.2265625 70.40234375 C-74.03804687 70.57894531 -72.84953125 70.75554687 -71.625 70.9375 C-70.44164062 71.11152344 -69.25828125 71.28554688 -68.0390625 71.46484375 C-65 72 -65 72 -63 73 C-62.9175 71.783125 -62.835 70.56625 -62.75 69.3125 C-60.33173681 48.24379609 -47.59683225 35.40749469 -33.23046875 21.26953125 C-31.20652897 19.21014594 -29.33996687 17.09810768 -27.5 14.875 C-26.675 13.92625 -25.85 12.9775 -25 12 C-24.34 12 -23.68 12 -23 12 C-23.19190918 12.71687988 -23.38381836 13.43375977 -23.58154297 14.17236328 C-25.53661114 21.6949407 -27.01299122 29.18416082 -28.125 36.875 C-28.29676758 38.05868164 -28.46853516 39.24236328 -28.64550781 40.46191406 C-30.50495391 54.2651421 -30.82942816 68.0895724 -31 82 C-29.845 82.103125 -28.69 82.20625 -27.5 82.3125 C-22.98828481 82.86035113 -19.19394251 84.2774879 -15 86 C-15.01047363 85.05906494 -15.02094727 84.11812988 -15.03173828 83.14868164 C-15.66005442 18.1815886 -15.66005442 18.1815886 0 0 Z " fill="#EFBB5E" transform="translate(255,264)"/>
<path d="M0 0 C6 2 6 2 8.82421875 3 C29.79576795 10.32430641 53.89142361 10.92392907 74.5 1.75 C75.655 1.1725 76.81 0.595 78 0 C78.66 0 79.32 0 80 0 C80 34.65 80 69.3 80 105 C53.6 105 27.2 105 0 105 C0 70.35 0 35.7 0 0 Z " fill="#FDFDFD" transform="translate(216,63)"/>
<path d="M0 0 C54.78 0 109.56 0 166 0 C162.47334806 18.80881035 162.47334806 18.80881035 160.125 27.25 C159.74190674 28.64532959 159.74190674 28.64532959 159.35107422 30.06884766 C157.40747231 36.96592662 155.08893117 43.52144524 152 50 C147.71105113 50 147.21627965 49.73080118 144 47.3125 C125.00237176 34.20537013 99.44298055 32.55566974 77 32.5625 C76.24364258 32.5614325 75.48728516 32.56036499 74.70800781 32.55926514 C55.37063708 32.59835002 37.77604025 36.68599198 19.5078125 42.86328125 C16 44 16 44 14 44 C13.85304688 42.9790625 13.85304688 42.9790625 13.703125 41.9375 C11.31132168 26.43201642 7.19821846 14.39643692 0 0 Z " fill="#FDFDFD" transform="translate(322,296)"/>
<path d="M0 0 C54.78 0 109.56 0 166 0 C163.36 5.28 160.72 10.56 158 16 C156.51692565 20.37116651 155.15107685 24.55926667 154 29 C153.77570313 29.85207031 153.55140625 30.70414062 153.3203125 31.58203125 C152.85983641 33.38293431 152.42574772 35.19057221 152 37 C145.90942043 37.16138633 140.25168839 36.56123298 134.25 35.5625 C122.1089701 33.56133656 110.11420378 32.81328652 97.81958008 32.81469727 C95.70047816 32.81251337 93.58190105 32.79428188 91.46289062 32.77539062 C64.35991757 32.66400612 39.5980788 40.224972 15 51 C10.35340949 40.76761451 6.4624322 30.81887583 3.8125 19.875 C3.55275391 18.84246094 3.29300781 17.80992187 3.02539062 16.74609375 C1.63238272 11.09487305 0.72966595 5.83732759 0 0 Z " fill="#FEFEFC" transform="translate(24,296)"/>
<path d="M0 0 C0.70942749 -0.00133942 1.41885498 -0.00267883 2.14978027 -0.00405884 C13.90528804 0.00074514 25.22898279 0.83306311 36.75 3.25 C37.92433594 3.47816406 39.09867188 3.70632813 40.30859375 3.94140625 C49.38023395 5.92335011 56.51885803 9.23354467 62.65625 16.30859375 C64.22146845 19.08685649 64.64911697 21.04502379 64.75 24.25 C63.57284644 26.93260873 62.4743031 29.03774649 60.875 31.4375 C60.25371216 32.37601807 60.25371216 32.37601807 59.61987305 33.33349609 C56.68848988 37.49133664 54.40934922 39.82117609 49.2734375 40.8203125 C48.44070313 40.96210938 47.60796875 41.10390625 46.75 41.25 C44.72792295 41.91288476 42.70723562 42.58001506 40.6875 43.25 C9.75447876 51.88865255 -22.42272041 49.75024158 -52.67626953 40.05712891 C-57.13403966 38.65916002 -61.62970491 37.39599961 -66.125 36.125 C-67.00148193 35.87548584 -67.87796387 35.62597168 -68.78100586 35.36889648 C-72.68792018 34.25690303 -76.59667671 33.15173603 -80.5078125 32.0546875 C-81.74273437 31.70664062 -82.97765625 31.35859375 -84.25 31 C-85.301875 30.70609375 -86.35375 30.4121875 -87.4375 30.109375 C-90.11403508 29.29154484 -92.67004031 28.33130664 -95.25 27.25 C-95.25 26.59 -95.25 25.93 -95.25 25.25 C-94.45078125 24.94707031 -93.6515625 24.64414062 -92.828125 24.33203125 C-87.30293321 22.22441701 -81.80955128 20.08226656 -76.375 17.75 C-70.10061425 15.11508735 -63.69344762 12.9520142 -57.21630859 10.87939453 C-55.24236022 10.24755459 -53.27164306 9.60623697 -51.30078125 8.96484375 C-34.16298926 3.44275972 -18.09698588 0.02013798 0 0 Z " fill="#FCFCFB" transform="translate(399.25,343.75)"/>
<path d="M0 0 C4.63450646 1.85576636 5.74779037 4.56346331 7.77734375 8.9453125 C10.13540371 14.83669553 11.67249217 20.81358084 13 27 C13.18481934 27.83821289 13.36963867 28.67642578 13.56005859 29.54003906 C16.50348844 43.41229185 17.35878016 56.99263984 17.3125 71.125 C17.30881409 72.30731705 17.30881409 72.30731705 17.30505371 73.51351929 C17.26463733 80.75041232 17.14950887 87.84377216 16 95 C10.30271936 94.39229007 5.26886247 92.89634966 -0.125 91 C-6.94906844 88.58781467 -6.94906844 88.58781467 -14 87 C-18.68653648 61.43025699 -15.59023204 28.5847745 -4 5 C-2.71490966 3.29585846 -1.39291718 1.61720045 0 0 Z " fill="#FBFBFA" transform="translate(255,264)"/>
<path d="M0 0 C6.64553398 3.76440058 11.27691184 8.46847958 13.625 15.8125 C14.91747446 23.80669387 13.23190228 30.19805592 8.625 36.8125 C4.16019128 41.83938678 -1.15344025 45.22707569 -7.91015625 46.1640625 C-14.99504586 46.54272045 -20.67680773 45.13354598 -26.375 40.8125 C-32.11810472 34.23706127 -34.94573733 27.44041763 -34.74609375 18.7265625 C-33.87229757 11.86496303 -30.80440152 6.55936141 -25.375 2.3125 C-17.45501927 -3.18038986 -8.78582925 -4.17622377 0 0 Z " fill="#060606" transform="translate(266.375,106.1875)"/>
<path d="M0 0 C5.12260247 4.12035416 8.36855239 9.09437959 9.421875 15.609375 C9.82380995 23.51409563 7.59533841 29.86361551 2.390625 35.8515625 C-2.90277611 40.78073876 -8.68620169 43.07249713 -15.875 43.5 C-21.67969965 43.27674232 -26.35101227 41.47070981 -31 38 C-36.74655349 31.43420644 -39.57815435 24.61839889 -39.3671875 15.91015625 C-38.44771254 8.62282808 -35.07996748 3.5092022 -29.4375 -1.0625 C-20.18526175 -7.87740685 -9.1822947 -6.02172225 0 0 Z " fill="#040202" transform="translate(351,413)"/>
<path d="M0 0 C5.12260247 4.12035416 8.36855239 9.09437959 9.421875 15.609375 C9.82380995 23.51409563 7.59533841 29.86361551 2.390625 35.8515625 C-2.90277611 40.78073876 -8.68620169 43.07249713 -15.875 43.5 C-21.67969965 43.27674232 -26.35101227 41.47070981 -31 38 C-36.74655349 31.43420644 -39.57815435 24.61839889 -39.3671875 15.91015625 C-38.44771254 8.62282808 -35.07996748 3.5092022 -29.4375 -1.0625 C-20.18526175 -7.87740685 -9.1822947 -6.02172225 0 0 Z " fill="#040202" transform="translate(191,381)"/>
<path d="M0 0 C5.12260247 4.12035416 8.36855239 9.09437959 9.421875 15.609375 C9.82380995 23.51409563 7.59533841 29.86361551 2.390625 35.8515625 C-2.90277611 40.78073876 -8.68620169 43.07249713 -15.875 43.5 C-21.67969965 43.27674232 -26.35101227 41.47070981 -31 38 C-36.74655349 31.43420644 -39.57815435 24.61839889 -39.3671875 15.91015625 C-38.44771254 8.62282808 -35.07996748 3.5092022 -29.4375 -1.0625 C-20.18526175 -7.87740685 -9.1822947 -6.02172225 0 0 Z " fill="#040202" transform="translate(127,365)"/>
<path d="M0 0 C6.64553398 3.76440058 11.27691184 8.46847958 13.625 15.8125 C14.918461 23.8127958 13.22589643 30.18999756 8.625 36.8125 C3.47139939 42.74164245 -2.57758971 45.45084188 -10.3125 46.1875 C-16.23036364 45.91956523 -21.47936036 44.32039517 -26.125 40.625 C-31.73633384 33.61083269 -34.83156719 27.91647968 -34.7109375 18.796875 C-34.04885718 12.91513817 -31.68234888 8.05937401 -27.4375 3.92578125 C-19.06465038 -2.62343635 -9.89077195 -4.70144317 0 0 Z " fill="#060303" transform="translate(258.375,426.1875)"/>
<path d="M0 0 C0.66 0 1.32 0 2 0 C3.40795898 1.43798828 3.40795898 1.43798828 5.05859375 3.4453125 C7.71735335 6.57415566 10.46185981 9.50912545 13.41015625 12.3671875 C14.17263672 13.10839844 14.93511719 13.84960938 15.72070312 14.61328125 C17.28002973 16.11928643 18.84514331 17.61932301 20.41601562 19.11328125 C25.69528065 24.27185182 29.49194016 29.51885237 33 36 C33.39485596 36.68521729 33.78971191 37.37043457 34.1965332 38.07641602 C39.78460046 47.86620322 40.48697841 58.97985889 40 70 C29.13378726 74.67944565 18.06788872 78.82698912 7 83 C7.02094727 81.8440332 7.04189453 80.68806641 7.06347656 79.49707031 C7.51345473 52.23629334 6.98536141 26.53730852 0 0 Z " fill="#FBFBFB" transform="translate(280,276)"/>
<path d="M0 0 C5.39820101 3.71080665 11.21112658 8.08658316 13.94921875 14.234375 C13.78125 16.34375 13.78125 16.34375 12.94921875 18.234375 C-0.84613873 27.24358805 -20.54900583 28.52520991 -36.40625 25.50390625 C-43.51915764 23.87998649 -49.96025349 21.26171585 -56.05078125 17.234375 C-55.28856206 10.56495705 -50.77571584 6.6535357 -46.05078125 2.234375 C-43.18015374 0.18669298 -40.26879535 -1.33926199 -37.05078125 -2.765625 C-36.42816406 -3.08273438 -35.80554688 -3.39984375 -35.1640625 -3.7265625 C-23.9978972 -8.82975754 -10.23986689 -5.9262738 0 0 Z " fill="#F9F9F9" transform="translate(277.05078125,29.765625)"/>
<path d="M0 0 C0.66 0 1.32 0 2 0 C1.80809082 0.71615479 1.61618164 1.43230957 1.41845703 2.17016602 C-0.54324199 9.71398995 -2.0136048 17.22428424 -3.125 24.9375 C-3.29676758 26.12375977 -3.46853516 27.31001953 -3.64550781 28.53222656 C-5.46022511 41.98932434 -5.82675043 55.43276629 -6 69 C-7.01578125 68.74605469 -8.0315625 68.49210937 -9.078125 68.23046875 C-9.73917236 68.06522705 -10.40021973 67.89998535 -11.08129883 67.72973633 C-12.53429933 67.36644531 -13.98726121 67.00299979 -15.44018555 66.6394043 C-18.83556485 65.7899037 -22.23144182 64.94270009 -25.62890625 64.1015625 C-26.67949219 63.84117187 -27.73007813 63.58078125 -28.8125 63.3125 C-29.74707031 63.08175781 -30.68164062 62.85101563 -31.64453125 62.61328125 C-33.44877438 62.14351977 -35.2312795 61.5895735 -37 61 C-37.89333475 47.82331249 -32.94461449 36.03055981 -24.51953125 26.06640625 C-19.32603218 20.23909897 -13.792363 14.74300111 -8.23046875 9.26953125 C-6.20652897 7.21014594 -4.33996687 5.09810768 -2.5 2.875 C-1.675 1.92625 -0.85 0.9775 0 0 Z " fill="#FAFAF9" transform="translate(230,276)"/>
<path d="M0 0 C26.4 0 52.8 0 80 0 C80 11.55555556 80 11.55555556 77 15 C73.59866333 16.13377889 70.97595778 16.14084176 67.38891602 16.16113281 C66.72190674 16.16609772 66.05489746 16.17106262 65.36767578 16.17617798 C63.16307542 16.19077284 60.95854697 16.19759638 58.75390625 16.203125 C57.2207794 16.20887777 55.68765257 16.21463549 54.15452576 16.22039795 C50.94082301 16.2308997 47.72714522 16.23674806 44.51342773 16.24023438 C40.39631983 16.24572358 36.2795419 16.26976389 32.16253757 16.29820633 C28.99609919 16.31683097 25.82974041 16.32203816 22.66325188 16.32357025 C21.14539723 16.3265967 19.62754399 16.334625 18.10974312 16.34775543 C15.98639915 16.36481624 13.86386327 16.3629364 11.74047852 16.35644531 C10.53263199 16.36009094 9.32478546 16.36373657 8.08033752 16.36749268 C4.7216871 15.96679651 3.35437859 15.38881028 1 13 C0 10 0 10 0 0 Z " fill="#FEFEFE" transform="translate(216,184)"/>
<path d="M0 0 C5.28 0 10.56 0 16 0 C16 10.56 16 21.12 16 32 C10.72 32 5.44 32 0 32 C0 21.44 0 10.88 0 0 Z " fill="#FFFFFF" transform="translate(248,216)"/>
<path d="M0 0 C1.8046875 0.640625 1.8046875 0.640625 3.8046875 2.328125 C5.10888306 5.34407723 5.21189969 7.38292747 4.8046875 10.640625 C3.8046875 12.953125 3.8046875 12.953125 1.8046875 14.640625 C-1.89512811 15.78748929 -4.99215762 16.10337688 -8.6328125 14.703125 C-11.01371087 11.56033915 -11.62081384 8.5537177 -11.1953125 4.640625 C-8.1181485 -0.22327939 -5.38557002 -1.09743691 0 0 Z " fill="#F1F1F1" transform="translate(259.1953125,120.359375)"/>
<path d="M0 0 C4.0743356 0.84881992 5.54405875 2.30225596 8 5.625 C8.625 8.625 8.625 8.625 8 11.625 C5.54405875 14.94774404 4.0743356 16.40118008 0 17.25 C-4.0743356 16.40118008 -5.54405875 14.94774404 -8 11.625 C-8.625 8.625 -8.625 8.625 -8 5.625 C-5.54405875 2.30225596 -4.0743356 0.84881992 0 0 Z " fill="#EFB959" transform="translate(248,439.375)"/>
<path d="M0 0 C4.0743356 0.84881992 5.54405875 2.30225596 8 5.625 C8.625 8.625 8.625 8.625 8 11.625 C5.54405875 14.94774404 4.0743356 16.40118008 0 17.25 C-4.0743356 16.40118008 -5.54405875 14.94774404 -8 11.625 C-8.625 8.625 -8.625 8.625 -8 5.625 C-5.54405875 2.30225596 -4.0743356 0.84881992 0 0 Z " fill="#E2B667" transform="translate(336,423.375)"/>
<path d="M0 0 C4.0743356 0.84881992 5.54405875 2.30225596 8 5.625 C8.625 8.625 8.625 8.625 8 11.625 C5.54405875 14.94774404 4.0743356 16.40118008 0 17.25 C-4.0743356 16.40118008 -5.54405875 14.94774404 -8 11.625 C-8.625 8.625 -8.625 8.625 -8 5.625 C-5.54405875 2.30225596 -4.0743356 0.84881992 0 0 Z " fill="#E2B667" transform="translate(176,391.375)"/>
<path d="M0 0 C4.0743356 0.84881992 5.54405875 2.30225596 8 5.625 C8.625 8.625 8.625 8.625 8 11.625 C5.54405875 14.94774404 4.0743356 16.40118008 0 17.25 C-4.0743356 16.40118008 -5.54405875 14.94774404 -8 11.625 C-8.625 8.625 -8.625 8.625 -8 5.625 C-5.54405875 2.30225596 -4.0743356 0.84881992 0 0 Z " fill="#E2B667" transform="translate(112,375.375)"/>
<path d="M0 0 C1.32 0.66 2.64 1.32 4 2 C3.67 2.33 3.34 2.66 3 3 C2.75266863 7.14276875 2.75266863 7.14276875 4 11 C5.65 11 7.3 11 9 11 C10.4606285 8.35261084 11 7.10551666 11 4 C11.3062434 2.66018514 11.63451555 1.32488113 12 0 C14.34549674 3.51824511 14.57991403 4.85775694 14 9 C11.54405875 12.32274404 10.0743356 13.77618008 6 14.625 C1.9256644 13.77618008 0.45594125 12.32274404 -2 9 C-2.57991403 4.85775694 -2.34549674 3.51824511 0 0 Z " fill="#D0AF66" transform="translate(242,442)"/>
<path d="M0 0 C1.32 0 2.64 0 4 0 C4 0.66 4 1.32 4 2 C4.99 1.67 5.98 1.34 7 1 C7.66 1.66 8.32 2.32 9 3 C8.625 5.625 8.625 5.625 8 8 C6.35 8.33 4.7 8.66 3 9 C3 9.66 3 10.32 3 11 C2.01 10.67 1.02 10.34 0 10 C-1.36952673 7.26094655 -1.12621361 5.02912668 -1 2 C-0.67 1.34 -0.34 0.68 0 0 Z " fill="#EBB758" transform="translate(331,426)"/>
<path d="M0 0 C1.32 0 2.64 0 4 0 C4 0.66 4 1.32 4 2 C4.99 1.67 5.98 1.34 7 1 C7.66 1.66 8.32 2.32 9 3 C8.625 5.625 8.625 5.625 8 8 C6.35 8.33 4.7 8.66 3 9 C3 9.66 3 10.32 3 11 C2.01 10.67 1.02 10.34 0 10 C-1.36952673 7.26094655 -1.12621361 5.02912668 -1 2 C-0.67 1.34 -0.34 0.68 0 0 Z " fill="#EBB758" transform="translate(171,394)"/>
<path d="M0 0 C1.32 0 2.64 0 4 0 C4 0.66 4 1.32 4 2 C4.99 1.67 5.98 1.34 7 1 C7.66 1.66 8.32 2.32 9 3 C8.625 5.625 8.625 5.625 8 8 C6.35 8.33 4.7 8.66 3 9 C3 9.66 3 10.32 3 11 C2.01 10.67 1.02 10.34 0 10 C-1.36952673 7.26094655 -1.12621361 5.02912668 -1 2 C-0.67 1.34 -0.34 0.68 0 0 Z " fill="#EBB758" transform="translate(107,378)"/>
<path d="M0 0 C0 0.33 0 0.66 0 1 C-2.97 1.66 -5.94 2.32 -9 3 C-9 3.66 -9 4.32 -9 5 C-16.02804699 5.85373239 -22.92278069 6.12109311 -30 6 C-26.08791347 3.39194231 -22.37032093 2.81368166 -17.8125 1.875 C-16.5740332 1.60236328 -16.5740332 1.60236328 -15.31054688 1.32421875 C-10.0974792 0.23148747 -5.32437807 -0.18423454 0 0 Z " fill="#E9C272" transform="translate(101,329)"/>
<path d="M0 0 C0.66 0.33 1.32 0.66 2 1 C1.67 1.99 1.34 2.98 1 4 C1 4.99 1 5.98 1 7 C0.34 7 -0.32 7 -1 7 C-1.33 7.66 -1.66 8.32 -2 9 C-2 8.34 -2 7.68 -2 7 C-2.66 7 -3.32 7 -4 7 C-4.33 7.66 -4.66 8.32 -5 9 C-5.66 8.67 -6.32 8.34 -7 8 C-6.67 6.68 -6.34 5.36 -6 4 C-6.66 4 -7.32 4 -8 4 C-8 3.01 -8 2.02 -8 1 C-5.26094655 -0.36952673 -3.02912668 -0.12621361 0 0 Z " fill="#E5B761" transform="translate(251,440)"/>
<path d="M0 0 C0.66 0.66 1.32 1.32 2 2 C1.03578125 2.10957031 0.0715625 2.21914063 -0.921875 2.33203125 C-2.18515625 2.49058594 -3.4484375 2.64914062 -4.75 2.8125 C-6.00296875 2.96332031 -7.2559375 3.11414063 -8.546875 3.26953125 C-11.95898991 3.99132479 -13.40900438 4.79038925 -16 7 C-16.66 7 -17.32 7 -18 7 C-18.33 7.99 -18.66 8.98 -19 10 C-19.66 10 -20.32 10 -21 10 C-21.66 11.65 -22.32 13.3 -23 15 C-24.27162597 11.1851221 -23.64661571 9.6068725 -22 6 C-20.1875 5.3125 -20.1875 5.3125 -18 5 C-17.236875 4.525625 -16.47375 4.05125 -15.6875 3.5625 C-10.74903225 0.69129782 -5.69771665 -0.53002015 0 0 Z " fill="#E3BC70" transform="translate(338,406)"/>
<path d="M0 0 C0.66 0.66 1.32 1.32 2 2 C1.03578125 2.10957031 0.0715625 2.21914063 -0.921875 2.33203125 C-2.18515625 2.49058594 -3.4484375 2.64914062 -4.75 2.8125 C-6.00296875 2.96332031 -7.2559375 3.11414063 -8.546875 3.26953125 C-11.95898991 3.99132479 -13.40900438 4.79038925 -16 7 C-16.66 7 -17.32 7 -18 7 C-18.33 7.99 -18.66 8.98 -19 10 C-19.66 10 -20.32 10 -21 10 C-21.66 11.65 -22.32 13.3 -23 15 C-24.27162597 11.1851221 -23.64661571 9.6068725 -22 6 C-20.1875 5.3125 -20.1875 5.3125 -18 5 C-17.236875 4.525625 -16.47375 4.05125 -15.6875 3.5625 C-10.74903225 0.69129782 -5.69771665 -0.53002015 0 0 Z " fill="#E3BC70" transform="translate(178,374)"/>
<path d="M0 0 C0.66 0.66 1.32 1.32 2 2 C1.03578125 2.10957031 0.0715625 2.21914063 -0.921875 2.33203125 C-2.18515625 2.49058594 -3.4484375 2.64914062 -4.75 2.8125 C-6.00296875 2.96332031 -7.2559375 3.11414063 -8.546875 3.26953125 C-11.95898991 3.99132479 -13.40900438 4.79038925 -16 7 C-16.66 7 -17.32 7 -18 7 C-18.33 7.99 -18.66 8.98 -19 10 C-19.66 10 -20.32 10 -21 10 C-21.66 11.65 -22.32 13.3 -23 15 C-24.27162597 11.1851221 -23.64661571 9.6068725 -22 6 C-20.1875 5.3125 -20.1875 5.3125 -18 5 C-17.236875 4.525625 -16.47375 4.05125 -15.6875 3.5625 C-10.74903225 0.69129782 -5.69771665 -0.53002015 0 0 Z " fill="#E3BC70" transform="translate(114,358)"/>
<path d="M0 0 C1 3 1 3 0 6 C-0.99 6.33 -1.98 6.66 -3 7 C-3.99 8.485 -3.99 8.485 -5 10 C-7.5 11.5 -7.5 11.5 -10 13 C-10.99 14.485 -10.99 14.485 -12 16 C-12.66 16 -13.32 16 -14 16 C-14.33 16.66 -14.66 17.32 -15 18 C-15.99 17.67 -16.98 17.34 -18 17 C-17.3709375 16.443125 -16.741875 15.88625 -16.09375 15.3125 C-10.55111432 10.37087301 -5.18518301 5.31553677 0 0 Z " fill="#26170A" transform="translate(428,416)"/>
<path d="M0 0 C0.33 0 0.66 0 1 0 C1.125 5.75 1.125 5.75 0 8 C0.66 8 1.32 8 2 8 C2 8.66 2 9.32 2 10 C-0.375 10.125 -0.375 10.125 -3 10 C-3.66 9.34 -4.32 8.68 -5 8 C-8.18762365 5.87491756 -10.26512223 5.4979837 -14 5 C-14 4.34 -14 3.68 -14 3 C-12.0412957 3.14076315 -10.08303907 3.2877676 -8.125 3.4375 C-6.48917969 3.55931641 -6.48917969 3.55931641 -4.8203125 3.68359375 C-2 4 -2 4 0 5 C0 3.35 0 1.7 0 0 Z " fill="#E8BC66" transform="translate(192,332)"/>
<path d="M0 0 C0.66 0.99 1.32 1.98 2 3 C1.32904297 3.56267578 1.32904297 3.56267578 0.64453125 4.13671875 C-3.79785368 7.89711708 -7.94071444 11.82493132 -11.9453125 16.0546875 C-12.99332031 17.14136719 -12.99332031 17.14136719 -14.0625 18.25 C-14.71347656 18.93578125 -15.36445313 19.6215625 -16.03515625 20.328125 C-18.08033015 22.06835249 -19.37711741 22.60277057 -22 23 C-19.27781663 20.27272844 -16.54934073 17.5523692 -13.80859375 14.84375 C-12.68486393 13.72919883 -11.56116645 12.61461505 -10.4375 11.5 C-9.87353516 10.94441406 -9.30957031 10.38882812 -8.72851562 9.81640625 C-5.58774819 6.69400588 -2.69298228 3.5291895 0 0 Z " fill="#DDDDDD" transform="translate(446,420)"/>
<path d="M0 0 C0.99 0.33 1.98 0.66 3 1 C-12.56036446 8.66742597 -12.56036446 8.66742597 -21 10 C-17.46416382 7.09556314 -17.46416382 7.09556314 -14.875 6.5625 C-13.946875 6.2840625 -13.946875 6.2840625 -13 6 C-12.72414063 5.34257812 -12.44828125 4.68515625 -12.1640625 4.0078125 C-11 2 -11 2 -8.90625 1.42578125 C-7.71515625 1.36970703 -7.71515625 1.36970703 -6.5 1.3125 C-3.1213829 1.16136685 -3.1213829 1.16136685 0 0 Z " fill="#E4B967" transform="translate(359,464)"/>
<path d="M0 0 C7.08426372 1.07143492 13.39681274 3.16044567 20.01953125 5.87890625 C22.69715694 6.88608656 25.18440209 7.53680552 28 8 C26.44921875 9.1328125 26.44921875 9.1328125 24 10 C21.45294364 9.42476259 19.23992898 8.77457484 16.8125 7.875 C16.14919678 7.64143799 15.48589355 7.40787598 14.80249023 7.16723633 C9.75008522 5.35845688 4.85077648 3.29773623 0 1 C0 0.67 0 0.34 0 0 Z " fill="#E5C277" transform="translate(243,351)"/>
<path d="M0 0 C8.34642647 -0.71404789 13.84639381 0.6550765 21 5 C21 5.33 21 5.66 21 6 C14.25 7.125 14.25 7.125 12 6 C12 5.34 12 4.68 12 4 C11.01 3.67 10.02 3.34 9 3 C9 2.67 9 2.34 9 2 C6.03 1.67 3.06 1.34 0 1 C0 0.67 0 0.34 0 0 Z " fill="#0E0708" transform="translate(330,408)"/>
<path d="M0 0 C8.34642647 -0.71404789 13.84639381 0.6550765 21 5 C21 5.33 21 5.66 21 6 C14.25 7.125 14.25 7.125 12 6 C12 5.34 12 4.68 12 4 C11.01 3.67 10.02 3.34 9 3 C9 2.67 9 2.34 9 2 C6.03 1.67 3.06 1.34 0 1 C0 0.67 0 0.34 0 0 Z " fill="#0E0708" transform="translate(170,376)"/>
<path d="M0 0 C8.34642647 -0.71404789 13.84639381 0.6550765 21 5 C21 5.33 21 5.66 21 6 C14.25 7.125 14.25 7.125 12 6 C12 5.34 12 4.68 12 4 C11.01 3.67 10.02 3.34 9 3 C9 2.67 9 2.34 9 2 C6.03 1.67 3.06 1.34 0 1 C0 0.67 0 0.34 0 0 Z " fill="#0E0708" transform="translate(106,360)"/>
<path d="M0 0 C4.41421994 5.14992327 6.28948502 8.98637188 6.125 15.8125 C6.10695313 16.78832031 6.08890625 17.76414062 6.0703125 18.76953125 C6.03550781 19.87361328 6.03550781 19.87361328 6 21 C4.05433049 17.52452927 3.92362873 15.87493656 5 12 C4.34 12 3.68 12 3 12 C2.34 11.01 1.68 10.02 1 9 C0.34 8.34 -0.32 7.68 -1 7 C-0.625 3.375 -0.625 3.375 0 0 Z " fill="#271807" transform="translate(354,416)"/>
<path d="M0 0 C4.41421994 5.14992327 6.28948502 8.98637188 6.125 15.8125 C6.10695312 16.78832031 6.08890625 17.76414062 6.0703125 18.76953125 C6.03550781 19.87361328 6.03550781 19.87361328 6 21 C4.05433049 17.52452927 3.92362873 15.87493656 5 12 C4.34 12 3.68 12 3 12 C2.34 11.01 1.68 10.02 1 9 C0.34 8.34 -0.32 7.68 -1 7 C-0.625 3.375 -0.625 3.375 0 0 Z " fill="#271807" transform="translate(194,384)"/>
<path d="M0 0 C4.41421994 5.14992327 6.28948502 8.98637188 6.125 15.8125 C6.10695312 16.78832031 6.08890625 17.76414062 6.0703125 18.76953125 C6.03550781 19.87361328 6.03550781 19.87361328 6 21 C4.05433049 17.52452927 3.92362873 15.87493656 5 12 C4.34 12 3.68 12 3 12 C2.34 11.01 1.68 10.02 1 9 C0.34 8.34 -0.32 7.68 -1 7 C-0.625 3.375 -0.625 3.375 0 0 Z " fill="#271807" transform="translate(130,368)"/>
<path d="M0 0 C2.0625 0.4375 2.0625 0.4375 4 1 C1.14325205 4.01693943 -1.82348931 6.40554531 -5.25 8.75 C-6.58804687 9.67039062 -6.58804687 9.67039062 -7.953125 10.609375 C-8.62859375 11.06828125 -9.3040625 11.5271875 -10 12 C-10 9 -10 9 -8 6 C-6.68 6 -5.36 6 -4 6 C-4 5.01 -4 4.02 -4 3 C-3.01 2.34 -2.02 1.68 -1 1 C-0.67 0.67 -0.34 0.34 0 0 Z " fill="#E1B963" transform="translate(399,438)"/>
<path d="M0 0 C0.66 1.32 1.32 2.64 2 4 C1.34 4 0.68 4 0 4 C-0.99 8.95 -1.98 13.9 -3 19 C-3.33 19 -3.66 19 -4 19 C-4.50146657 11.42228293 -3.94998798 6.54216759 0 0 Z " fill="#251508" transform="translate(316,418)"/>
<path d="M0 0 C0.66 1.32 1.32 2.64 2 4 C1.34 4 0.68 4 0 4 C-0.99 8.95 -1.98 13.9 -3 19 C-3.33 19 -3.66 19 -4 19 C-4.50146657 11.42228293 -3.94998798 6.54216759 0 0 Z " fill="#251508" transform="translate(156,386)"/>
<path d="M0 0 C0.66 1.32 1.32 2.64 2 4 C1.34 4 0.68 4 0 4 C-0.99 8.95 -1.98 13.9 -3 19 C-3.33 19 -3.66 19 -4 19 C-4.50146657 11.42228293 -3.94998798 6.54216759 0 0 Z " fill="#251508" transform="translate(92,370)"/>
<path d="M0 0 C1.32 0.66 2.64 1.32 4 2 C3.67 2.33 3.34 2.66 3 3 C2.75266863 7.14276875 2.75266863 7.14276875 4 11 C2.68 11 1.36 11 0 11 C-2 9 -2 9 -2.25 6.0625 C-2 3 -2 3 0 0 Z " fill="#D8AD59" transform="translate(242,442)"/>
<path d="M0 0 C1.0625 1.875 1.0625 1.875 2 4 C1.67 4.66 1.34 5.32 1 6 C0.34 6 -0.32 6 -1 6 C-1.66 10.29 -2.32 14.58 -3 19 C-3.33 19 -3.66 19 -4 19 C-4.50146657 11.42228293 -3.94998798 6.54216759 0 0 Z " fill="#28190B" transform="translate(228,434)"/>
<path d="M0 0 C-3.75 6.875 -3.75 6.875 -6 8 C-6.99 7.67 -7.98 7.34 -9 7 C-9 6.34 -9 5.68 -9 5 C-8.360625 4.87625 -7.72125 4.7525 -7.0625 4.625 C-6.381875 4.41875 -5.70125 4.2125 -5 4 C-4.67 3.34 -4.34 2.68 -4 2 C-5.98 2.33 -7.96 2.66 -10 3 C-6.88378718 -0.11621282 -4.21175599 -0.11383124 0 0 Z " fill="#E3BD71" transform="translate(454,383)"/>
<path d="M0 0 C2.375 2 2.375 2 4 4 C3.34 4 2.68 4 2 4 C1.67 4.66 1.34 5.32 1 6 C0.01 5.34 -0.98 4.68 -2 4 C-2.66 4 -3.32 4 -4 4 C-4 3.34 -4 2.68 -4 2 C-5.32 1.67 -6.64 1.34 -8 1 C-5.15916359 -0.42041821 -3.14522722 -0.31452272 0 0 Z " fill="#D2A863" transform="translate(339,424)"/>
<path d="M0 0 C2.375 2 2.375 2 4 4 C3.34 4 2.68 4 2 4 C1.67 4.66 1.34 5.32 1 6 C0.01 5.34 -0.98 4.68 -2 4 C-2.66 4 -3.32 4 -4 4 C-4 3.34 -4 2.68 -4 2 C-5.32 1.67 -6.64 1.34 -8 1 C-5.15916359 -0.42041821 -3.14522722 -0.31452272 0 0 Z " fill="#D2A863" transform="translate(179,392)"/>
<path d="M0 0 C2.375 2 2.375 2 4 4 C3.34 4 2.68 4 2 4 C1.67 4.66 1.34 5.32 1 6 C0.01 5.34 -0.98 4.68 -2 4 C-2.66 4 -3.32 4 -4 4 C-4 3.34 -4 2.68 -4 2 C-5.32 1.67 -6.64 1.34 -8 1 C-5.15916359 -0.42041821 -3.14522722 -0.31452272 0 0 Z " fill="#D2A863" transform="translate(115,376)"/>
<path d="M0 0 C0.33 1.32 0.66 2.64 1 4 C1.556875 3.814375 2.11375 3.62875 2.6875 3.4375 C6.42776723 2.72988188 9.0163851 3.3536245 12.1875 5.4375 C14 7 14 7 16 9 C10.47293087 8.27275406 5.30039859 6.66554027 0 5 C0 3.35 0 1.7 0 0 Z " fill="#3C2C17" transform="translate(224,341)"/>
<path d="M0 0 C-5.30311615 5.74504249 -5.30311615 5.74504249 -9 6 C-9.66 5.67 -10.32 5.34 -11 5 C-8.10998474 1.78887193 -4.47884754 -2.23942377 0 0 Z " fill="#201209" transform="translate(242,426)"/>
<path d="M0 0 C1.32 0 2.64 0 4 0 C4 0.66 4 1.32 4 2 C4.99 1.67 5.98 1.34 7 1 C7.66 2.32 8.32 3.64 9 5 C8.01 5.66 7.02 6.32 6 7 C6 6.34 6 5.68 6 5 C5.34 5 4.68 5 4 5 C3.67 5.66 3.34 6.32 3 7 C2.690625 6.360625 2.38125 5.72125 2.0625 5.0625 C1.1654837 3.06389179 1.1654837 3.06389179 0 2 C0 1.34 0 0.68 0 0 Z " fill="#F4C162" transform="translate(331,426)"/>
<path d="M0 0 C1.32 0 2.64 0 4 0 C4 0.66 4 1.32 4 2 C4.99 1.67 5.98 1.34 7 1 C7.66 2.32 8.32 3.64 9 5 C8.01 5.66 7.02 6.32 6 7 C6 6.34 6 5.68 6 5 C5.34 5 4.68 5 4 5 C3.67 5.66 3.34 6.32 3 7 C2.690625 6.360625 2.38125 5.72125 2.0625 5.0625 C1.1654837 3.06389179 1.1654837 3.06389179 0 2 C0 1.34 0 0.68 0 0 Z " fill="#F4C162" transform="translate(171,394)"/>
<path d="M0 0 C1.32 0 2.64 0 4 0 C4 0.66 4 1.32 4 2 C4.99 1.67 5.98 1.34 7 1 C7.66 2.32 8.32 3.64 9 5 C8.01 5.66 7.02 6.32 6 7 C6 6.34 6 5.68 6 5 C5.34 5 4.68 5 4 5 C3.67 5.66 3.34 6.32 3 7 C2.690625 6.360625 2.38125 5.72125 2.0625 5.0625 C1.1654837 3.06389179 1.1654837 3.06389179 0 2 C0 1.34 0 0.68 0 0 Z " fill="#F4C162" transform="translate(107,378)"/>
<path d="M0 0 C0 0.33 0 0.66 0 1 C-1.98 1 -3.96 1 -6 1 C-6.33 1.99 -6.66 2.98 -7 4 C-9.06640625 4.73046875 -9.06640625 4.73046875 -11.5625 5.1875 C-12.38878906 5.34605469 -13.21507812 5.50460937 -14.06640625 5.66796875 C-15.02353516 5.83232422 -15.02353516 5.83232422 -16 6 C-13.63078826 3.28787603 -11.32893261 2.07761003 -8 0.75 C-7.13375 0.39421875 -6.2675 0.0384375 -5.375 -0.328125 C-3 -1 -3 -1 0 0 Z " fill="#ECC57F" transform="translate(55,342)"/>
<path d="M0 0 C1.485 0.99 1.485 0.99 3 2 C3 2.66 3 3.32 3 4 C5.475 4.99 5.475 4.99 8 6 C5.35261084 7.4606285 4.10551666 8 1 8 C0.67 5.36 0.34 2.72 0 0 Z " fill="#DCB25F" transform="translate(229,463)"/>
<path d="M0 0 C-3.18900456 2.12600304 -5.90414569 3.02136239 -9.5625 4.125 C-11.29693359 4.65480469 -11.29693359 4.65480469 -13.06640625 5.1953125 C-16 6 -16 6 -18 6 C-18 5.34 -18 4.68 -18 4 C-16.58398286 3.51891725 -15.16715563 3.04021859 -13.75 2.5625 C-12.96109375 2.29566406 -12.1721875 2.02882813 -11.359375 1.75390625 C-7.4155535 0.49371163 -4.16018847 -0.11556079 0 0 Z " fill="#FDF5D9" transform="translate(74,333)"/>
<path d="M0 0 C0.66 1.32 1.32 2.64 2 4 C-1.19990508 6.74277578 -4.00499382 8.6302836 -8 10 C-7.04367001 8.70684939 -6.08486149 7.41553147 -5.125 6.125 C-4.59132813 5.40570313 -4.05765625 4.68640625 -3.5078125 3.9453125 C-2 2 -2 2 0 0 Z " fill="#211508" transform="translate(437,406)"/>
<path d="M0 0 C0.66 0.33 1.32 0.66 2 1 C2.33 1.99 2.66 2.98 3 4 C0.36 5.98 -2.28 7.96 -5 10 C-5.66 9.67 -6.32 9.34 -7 9 C-4.69 6.03 -2.38 3.06 0 0 Z " fill="#191005" transform="translate(445,396)"/>
<path d="M0 0 C4.47238653 1.41807378 8.71146306 3.11304374 13 5 C13 5.33 13 5.66 13 6 C8.28596212 5.52060632 4.33420699 5.03165952 0 3 C0 2.01 0 1.02 0 0 Z " fill="#221407" transform="translate(149,465)"/>
<path d="M0 0 C1.9375 1.5625 1.9375 1.5625 3 3 C-4.26153846 4.47692308 -4.26153846 4.47692308 -8 2.0625 C-8.66 1.381875 -9.32 0.70125 -10 0 C-6.22941703 -1.25686099 -3.86146303 -0.82745636 0 0 Z " fill="#1D120C" transform="translate(330,450)"/>
<path d="M0 0 C0.33 0.99 0.66 1.98 1 3 C-0.66442897 5.02185443 -1.52984103 5.92078843 -4.15625 6.36328125 C-4.9296875 6.34652344 -5.703125 6.32976562 -6.5 6.3125 C-7.2734375 6.30863281 -8.046875 6.30476563 -8.84375 6.30078125 C-11 6 -11 6 -14 4 C-13.34 3.34 -12.68 2.68 -12 2 C-11.34 2.66 -10.68 3.32 -10 4 C-6.04841529 4.34361606 -3.39464446 4.08901197 0 2 C0 1.34 0 0.68 0 0 Z " fill="#2B160B" transform="translate(343,435)"/>
<path d="M0 0 C1.9375 1.5625 1.9375 1.5625 3 3 C-4.26153846 4.47692308 -4.26153846 4.47692308 -8 2.0625 C-8.66 1.381875 -9.32 0.70125 -10 0 C-6.22941703 -1.25686099 -3.86146303 -0.82745636 0 0 Z " fill="#1D120C" transform="translate(170,418)"/>
<path d="M0 0 C0.33 0.99 0.66 1.98 1 3 C-0.66442897 5.02185443 -1.52984103 5.92078843 -4.15625 6.36328125 C-4.9296875 6.34652344 -5.703125 6.32976562 -6.5 6.3125 C-7.2734375 6.30863281 -8.046875 6.30476563 -8.84375 6.30078125 C-11 6 -11 6 -14 4 C-13.34 3.34 -12.68 2.68 -12 2 C-11.34 2.66 -10.68 3.32 -10 4 C-6.04841529 4.34361606 -3.39464446 4.08901197 0 2 C0 1.34 0 0.68 0 0 Z " fill="#2B160B" transform="translate(183,403)"/>
<path d="M0 0 C1.9375 1.5625 1.9375 1.5625 3 3 C-4.26153846 4.47692308 -4.26153846 4.47692308 -8 2.0625 C-8.66 1.381875 -9.32 0.70125 -10 0 C-6.22941703 -1.25686099 -3.86146303 -0.82745636 0 0 Z " fill="#1D120C" transform="translate(106,402)"/>
<path d="M0 0 C0.33 0.99 0.66 1.98 1 3 C-0.66442897 5.02185443 -1.52984103 5.92078843 -4.15625 6.36328125 C-4.9296875 6.34652344 -5.703125 6.32976562 -6.5 6.3125 C-7.2734375 6.30863281 -8.046875 6.30476563 -8.84375 6.30078125 C-11 6 -11 6 -14 4 C-13.34 3.34 -12.68 2.68 -12 2 C-11.34 2.66 -10.68 3.32 -10 4 C-6.04841529 4.34361606 -3.39464446 4.08901197 0 2 C0 1.34 0 0.68 0 0 Z " fill="#2B160B" transform="translate(119,387)"/>
<path d="M0 0 C0.66 0.33 1.32 0.66 2 1 C0.4375 3.9375 0.4375 3.9375 -2 7 C-5.75 7.875 -5.75 7.875 -9 8 C-6.14723863 5.06799526 -3.34920216 2.35684596 0 0 Z " fill="#281908" transform="translate(401,440)"/>
<path d="M0 0 C0.99 1.485 0.99 1.485 2 3 C2.99 2.34 3.98 1.68 5 1 C6.32 1.99 7.64 2.98 9 4 C4.545 5.485 4.545 5.485 0 7 C0 4.69 0 2.38 0 0 Z " fill="#E5E3E2" transform="translate(287,352)"/>
<path d="M0 0 C2.475 0.495 2.475 0.495 5 1 C5 1.66 5 2.32 5 3 C5.99 2.67 6.98 2.34 8 2 C7.34 3.65 6.68 5.3 6 7 C1.125 3.375 1.125 3.375 0 0 Z " fill="#E2B65F" transform="translate(71,401)"/>
<path d="M0 0 C2.96404505 2.80804268 5.44499019 5.18315774 7 9 C6.01 9 5.02 9 4 9 C3.896875 8.360625 3.79375 7.72125 3.6875 7.0625 C3.3471875 6.0415625 3.3471875 6.0415625 3 5 C2.01 4.67 1.02 4.34 0 4 C-0.33 3.01 -0.66 2.02 -1 1 C-0.67 0.67 -0.34 0.34 0 0 Z " fill="#24160A" transform="translate(65,395)"/>
<path d="M0 0 C-5.62870885 2.93161919 -8.77166905 3.2019586 -15 2 C-15 1.67 -15 1.34 -15 1 C-13.25215171 0.63536268 -11.50159498 0.2836922 -9.75 -0.0625 C-8.28820312 -0.35833984 -8.28820312 -0.35833984 -6.796875 -0.66015625 C-4.131881 -0.98397535 -2.51128277 -0.85503199 0 0 Z " fill="#261908" transform="translate(316,483)"/>
<path d="M0 0 C2.16874252 0.50603992 3.99967627 0.99983813 6 2 C6.625 4.5625 6.625 4.5625 7 7 C5.1875 6.875 5.1875 6.875 3 6 C1.25 2.9375 1.25 2.9375 0 0 Z " fill="#E3B65F" transform="translate(56,380)"/>
<path d="M0 0 C1 4 1 4 -0.1875 6.6875 C-2 9 -2 9 -6 10 C-4.02 6.7 -2.04 3.4 0 0 Z " fill="#2E1D0C" transform="translate(453,384)"/>
<path d="M0 0 C-2.42130331 2.42130331 -3.80111377 2.52840504 -7.125 3.125 C-8.03507812 3.29257812 -8.94515625 3.46015625 -9.8828125 3.6328125 C-10.58148438 3.75398438 -11.28015625 3.87515625 -12 4 C-12 3.34 -12 2.68 -12 2 C-10.68 2 -9.36 2 -8 2 C-8 1.34 -8 0.68 -8 0 C-4.71303767 -0.79953138 -3.28976808 -1.09658936 0 0 Z " fill="#F7EDCF" transform="translate(456,381)"/>
<path d="M0 0 C6.15234375 0.5859375 6.15234375 0.5859375 8 1 C8.33 1.66 8.66 2.32 9 3 C8.34 3 7.68 3 7 3 C7 3.66 7 4.32 7 5 C6.34 5 5.68 5 5 5 C5 4.34 5 3.68 5 3 C3.35 2.67 1.7 2.34 0 2 C0 1.34 0 0.68 0 0 Z " fill="#E6BD65" transform="translate(296,369)"/>
<path d="M0 0 C0.99 0.33 1.98 0.66 3 1 C2.38125 1.598125 1.7625 2.19625 1.125 2.8125 C-1.13676954 5.00811144 -1.13676954 5.00811144 -3 8 C-3.99 7.67 -4.98 7.34 -6 7 C-4.02 4.69 -2.04 2.38 0 0 Z " fill="#262626" transform="translate(217,23)"/>
<path d="M0 0 C1.72880982 -0.05449838 3.45812712 -0.09301688 5.1875 -0.125 C6.15042969 -0.14820313 7.11335938 -0.17140625 8.10546875 -0.1953125 C11.12812778 0.0086456 13.26769985 0.73125368 16 2 C16 2.33 16 2.66 16 3 C14.00045254 3.04254356 11.99958364 3.04080783 10 3 C9.67 2.67 9.34 2.34 9 2 C7.48530552 1.76807135 5.96245438 1.58784762 4.4375 1.4375 C3.61121094 1.35371094 2.78492188 1.26992188 1.93359375 1.18359375 C1.29550781 1.12300781 0.65742188 1.06242187 0 1 C0 0.67 0 0.34 0 0 Z " fill="#2A1908" transform="translate(330,408)"/>
<path d="M0 0 C2.475 0.99 2.475 0.99 5 2 C3.02 4.97 3.02 4.97 1 8 C0.17361624 5.10765685 0 3.11257569 0 0 Z " fill="#DAB15F" transform="translate(444,389)"/>
<path d="M0 0 C5.57142857 5.14285714 5.57142857 5.14285714 6 9 C5.01 9 4.02 9 3 9 C3 8.01 3 7.02 3 6 C2.01 6 1.02 6 0 6 C0 4.02 0 2.04 0 0 Z " fill="#312010" transform="translate(57,383)"/>
<path d="M0 0 C1.72880982 -0.05449838 3.45812712 -0.09301688 5.1875 -0.125 C6.15042969 -0.14820313 7.11335937 -0.17140625 8.10546875 -0.1953125 C11.12812778 0.0086456 13.26769985 0.73125368 16 2 C16 2.33 16 2.66 16 3 C14.00045254 3.04254356 11.99958364 3.04080783 10 3 C9.67 2.67 9.34 2.34 9 2 C7.48530552 1.76807135 5.96245438 1.58784762 4.4375 1.4375 C3.61121094 1.35371094 2.78492188 1.26992188 1.93359375 1.18359375 C1.29550781 1.12300781 0.65742188 1.06242187 0 1 C0 0.67 0 0.34 0 0 Z " fill="#2A1908" transform="translate(170,376)"/>
<path d="M0 0 C1.72880982 -0.05449838 3.45812712 -0.09301688 5.1875 -0.125 C6.15042969 -0.14820313 7.11335938 -0.17140625 8.10546875 -0.1953125 C11.12812778 0.0086456 13.26769985 0.73125368 16 2 C16 2.33 16 2.66 16 3 C14.00045254 3.04254356 11.99958364 3.04080783 10 3 C9.67 2.67 9.34 2.34 9 2 C7.48530552 1.76807135 5.96245438 1.58784762 4.4375 1.4375 C3.61121094 1.35371094 2.78492187 1.26992188 1.93359375 1.18359375 C1.29550781 1.12300781 0.65742187 1.06242187 0 1 C0 0.67 0 0.34 0 0 Z " fill="#2A1908" transform="translate(106,360)"/>
<path d="M0 0 C0.66 0.33 1.32 0.66 2 1 C0.06745228 3.0245738 -1.63158688 4.42105792 -4 6 C-4.99 5.01 -5.98 4.02 -7 3 C-4.69631264 1.93347808 -2.35981813 0.93578995 0 0 Z " fill="#2E220F" transform="translate(363,464)"/>
<path d="M0 0 C0.99 0.33 1.98 0.66 3 1 C0.63707344 3.52588702 -0.66462511 4.88820837 -4 6 C-4.33 5.01 -4.66 4.02 -5 3 C-2.6875 1.4375 -2.6875 1.4375 0 0 Z " fill="#101010" transform="translate(401,457)"/>
<path d="M0 0 C6.625 0.75 6.625 0.75 10 3 C10 3.66 10 4.32 10 5 C8.51800098 4.55090939 7.03944764 4.09043436 5.5625 3.625 C4.73878906 3.36976563 3.91507813 3.11453125 3.06640625 2.8515625 C1 2 1 2 0 0 Z " fill="#CEA962" transform="translate(252,423)"/>
<path d="M0 0 C1.65 1.65 3.3 3.3 5 5 C4.01 6.485 4.01 6.485 3 8 C0.9375 6.25 0.9375 6.25 -1 4 C-0.75 1.75 -0.75 1.75 0 0 Z " fill="#1F1F1F" transform="translate(294,23)"/>
<path d="M0 0 C1.32 0.99 2.64 1.98 4 3 C3.01 3.33 2.02 3.66 1 4 C-0.21869929 6.50447516 -0.21869929 6.50447516 -1 9 C-2.25541557 5.23375329 -1.37061958 3.62811066 0 0 Z " fill="#DAB164" transform="translate(316,412)"/>
<path d="M0 0 C-2 2 -2 2 -4.3828125 2.1953125 C-5.28773438 2.17210937 -6.19265625 2.14890625 -7.125 2.125 C-8.49011719 2.09792969 -8.49011719 2.09792969 -9.8828125 2.0703125 C-10.58148438 2.04710937 -11.28015625 2.02390625 -12 2 C-12 1.67 -12 1.34 -12 1 C-3.96428571 -1.27678571 -3.96428571 -1.27678571 0 0 Z " fill="#E9C178" transform="translate(444,387)"/>
<path d="M0 0 C1.32 0.99 2.64 1.98 4 3 C3.01 3.33 2.02 3.66 1 4 C-0.21869929 6.50447516 -0.21869929 6.50447516 -1 9 C-2.25541557 5.23375329 -1.37061958 3.62811066 0 0 Z " fill="#DAB164" transform="translate(156,380)"/>
<path d="M0 0 C1.32 0.99 2.64 1.98 4 3 C3.01 3.33 2.02 3.66 1 4 C-0.21869929 6.50447516 -0.21869929 6.50447516 -1 9 C-2.25541557 5.23375329 -1.37061958 3.62811066 0 0 Z " fill="#DAB164" transform="translate(92,364)"/>
<path d="M0 0 C3.63 0 7.26 0 11 0 C10.01 0.495 10.01 0.495 9 1 C9 1.66 9 2.32 9 3 C4.545 2.01 4.545 2.01 0 1 C0 0.67 0 0.34 0 0 Z " fill="#F4BD6B" transform="translate(175,472)"/>
<path d="M0 0 C0.33 0.66 0.66 1.32 1 2 C0.22265625 3.7265625 0.22265625 3.7265625 -0.9375 5.625 C-1.618125 6.73875 -2.29875 7.8525 -3 9 C-3.66 8.01 -4.32 7.02 -5 6 C-4.67 5.34 -4.34 4.68 -4 4 C-3.34 4 -2.68 4 -2 4 C-1.34 2.68 -0.68 1.36 0 0 Z " fill="#1B0D04" transform="translate(270,454)"/>
<path d="M0 0 C1.50662097 3.01324195 1.17770373 5.68286377 1 9 C0.34 9.66 -0.32 10.32 -1 11 C-2.38550197 8.22899606 -2.1877467 6.0665294 -2 3 C-1.34 2.01 -0.68 1.02 0 0 Z " fill="#C4A064" transform="translate(330,426)"/>
<path d="M0 0 C0.33 0 0.66 0 1 0 C1.125 2.375 1.125 2.375 1 5 C0.34 5.66 -0.32 6.32 -1 7 C-3.125 6.625 -3.125 6.625 -5 6 C-3.35830472 3.97945196 -1.69088222 1.97956942 0 0 Z " fill="#CCA55F" transform="translate(196,412)"/>
<path d="M0 0 C0.33 0 0.66 0 1 0 C1.125 2.375 1.125 2.375 1 5 C0.34 5.66 -0.32 6.32 -1 7 C-3.125 6.625 -3.125 6.625 -5 6 C-3.35830472 3.97945196 -1.69088222 1.97956942 0 0 Z " fill="#CCA55F" transform="translate(132,396)"/>
<path d="M0 0 C1.50662097 3.01324195 1.17770373 5.68286377 1 9 C0.34 9.66 -0.32 10.32 -1 11 C-2.38550197 8.22899606 -2.1877467 6.0665294 -2 3 C-1.34 2.01 -0.68 1.02 0 0 Z " fill="#C4A064" transform="translate(170,394)"/>
<path d="M0 0 C1.50662097 3.01324195 1.17770373 5.68286377 1 9 C0.34 9.66 -0.32 10.32 -1 11 C-2.38550197 8.22899606 -2.1877467 6.0665294 -2 3 C-1.34 2.01 -0.68 1.02 0 0 Z " fill="#C4A064" transform="translate(106,378)"/>
<path d="M0 0 C0.66 0.33 1.32 0.66 2 1 C1.34 2.32 0.68 3.64 0 5 C-1.98 5 -3.96 5 -6 5 C-4.06745228 2.9754262 -2.36841312 1.57894208 0 0 Z " fill="#352612" transform="translate(387,450)"/>
<path d="M0 0 C0.99 1.32 1.98 2.64 3 4 C1.125 5.0625 1.125 5.0625 -1 6 C-1.66 5.67 -2.32 5.34 -3 5 C-1.125 1.125 -1.125 1.125 0 0 Z " fill="#D8AC54" transform="translate(314,442)"/>
<path d="M0 0 C0.99 1.32 1.98 2.64 3 4 C1.125 5.0625 1.125 5.0625 -1 6 C-1.66 5.67 -2.32 5.34 -3 5 C-1.125 1.125 -1.125 1.125 0 0 Z " fill="#D8AC54" transform="translate(154,410)"/>
<path d="M0 0 C1.32 0.66 2.64 1.32 4 2 C1.69 3.32 -0.62 4.64 -3 6 C-1.125 1.125 -1.125 1.125 0 0 Z " fill="#CFAB5E" transform="translate(391,444)"/>
<path d="M0 0 C2.31 0.33 4.62 0.66 7 1 C6.67 2.32 6.34 3.64 6 5 C3.98079663 3.69593116 1.98075027 2.36176581 0 1 C0 0.67 0 0.34 0 0 Z " fill="#D4B062" transform="translate(110,440)"/>
<path d="M0 0 C2 2 2 2 2.125 5.625 C2.08375 6.73875 2.0425 7.8525 2 9 C1.01 8.34 0.02 7.68 -1 7 C-0.67 4.69 -0.34 2.38 0 0 Z " fill="#190F0D" transform="translate(354,416)"/>
<path d="M0 0 C0.86625 0.3403125 0.86625 0.3403125 1.75 0.6875 C0 2.25 0 2.25 -2.25 3.6875 C-4.5 3.375 -4.5 3.375 -6.25 2.6875 C-2.80384615 -0.38942308 -2.80384615 -0.38942308 0 0 Z " fill="#3A230F" transform="translate(328.25,409.3125)"/>
<path d="M0 0 C2 2 2 2 2.125 5.625 C2.08375 6.73875 2.0425 7.8525 2 9 C1.01 8.34 0.02 7.68 -1 7 C-0.67 4.69 -0.34 2.38 0 0 Z " fill="#190F0D" transform="translate(194,384)"/>
<path d="M0 0 C0.86625 0.3403125 0.86625 0.3403125 1.75 0.6875 C0 2.25 0 2.25 -2.25 3.6875 C-4.5 3.375 -4.5 3.375 -6.25 2.6875 C-2.80384615 -0.38942308 -2.80384615 -0.38942308 0 0 Z " fill="#3A230F" transform="translate(168.25,377.3125)"/>
<path d="M0 0 C1.32 0.66 2.64 1.32 4 2 C2.3125 3.5625 2.3125 3.5625 0 5 C-2.75 4.6875 -2.75 4.6875 -5 4 C-3.35 2.68 -1.7 1.36 0 0 Z " fill="#FBFAE9" transform="translate(335,375)"/>
<path d="M0 0 C2 2 2 2 2.125 5.625 C2.08375 6.73875 2.0425 7.8525 2 9 C1.01 8.34 0.02 7.68 -1 7 C-0.67 4.69 -0.34 2.38 0 0 Z " fill="#190F0D" transform="translate(130,368)"/>
<path d="M0 0 C-3.8503105 2.56687367 -5.58569763 1.83288724 -10 1 C-6.42181037 -1.33958553 -4.07775191 -0.9267618 0 0 Z " fill="#2E1D11" transform="translate(295,364)"/>
<path d="M0 0 C0.86625 0.3403125 0.86625 0.3403125 1.75 0.6875 C0 2.25 0 2.25 -2.25 3.6875 C-4.5 3.375 -4.5 3.375 -6.25 2.6875 C-2.80384615 -0.38942308 -2.80384615 -0.38942308 0 0 Z " fill="#3A230F" transform="translate(104.25,361.3125)"/>
<path d="M0 0 C0.33 0 0.66 0 1 0 C1 1.98 1 3.96 1 6 C-2.75 7.125 -2.75 7.125 -5 6 C-5 5.34 -5 4.68 -5 4 C-2.525 4.495 -2.525 4.495 0 5 C0 3.35 0 1.7 0 0 Z " fill="#B89B69" transform="translate(192,332)"/>
<path d="M0 0 C2.97 0 5.94 0 9 0 C7.515 1.485 7.515 1.485 6 3 C2.8125 2.6875 2.8125 2.6875 0 2 C0 1.34 0 0.68 0 0 Z " fill="#1C0E08" transform="translate(177,332)"/>
</svg>
