<?xml version="1.0" encoding="UTF-8"?>
<svg version="1.1" xmlns="http://www.w3.org/2000/svg" width="512" height="512">
<path d="M0 0 C1.16874161 -0.01283524 2.33748322 -0.02567047 3.54164124 -0.03889465 C4.80721359 -0.04628159 6.07278595 -0.05366852 7.37670898 -0.0612793 C9.33241066 -0.07338692 9.33241066 -0.07338692 11.32762146 -0.08573914 C14.09243641 -0.10075943 16.85722577 -0.11059825 19.62207031 -0.11816406 C23.14011566 -0.12917785 26.65751962 -0.16352039 30.1753397 -0.20333576 C33.55493511 -0.23600554 36.93446801 -0.24029933 40.31420898 -0.2487793 C41.56561172 -0.26628738 42.81701447 -0.28379547 44.1063385 -0.30183411 C53.9010112 -0.27777061 62.1009135 1.47877489 69.56030273 8.17700195 C70.32858398 8.83700195 71.09686523 9.49700195 71.88842773 10.17700195 C78.56164436 18.44317996 80.72417176 25.98471687 81.94311523 36.34887695 C82.06875854 37.36236206 82.19440186 38.37584717 82.32385254 39.42004395 C82.84035256 43.66077225 83.34643692 47.89544007 83.71313477 52.15209961 C84.39259303 64.18190871 84.39259303 64.18190871 90.40979004 73.99121094 C96.38885804 77.5663963 104.21139259 81.16160462 111.22827148 79.47607422 C113.09777788 78.3096057 114.89570858 77.1716712 116.63061523 75.8137207 C117.54339233 75.11073853 117.54339233 75.11073853 118.47460938 74.39355469 C119.12163818 73.88896729 119.76866699 73.38437988 120.43530273 72.86450195 C126.64235948 68.12325374 132.9421949 63.54821033 139.37280273 59.11450195 C140.54963623 58.29308716 140.54963623 58.29308716 141.75024414 57.45507812 C150.72885491 51.30641024 159.29648365 48.20154294 170.31030273 49.17700195 C181.53589071 51.38731152 189.0568164 57.45489842 197.00952148 65.37231445 C197.8075972 66.16040497 198.60567291 66.94849548 199.42793274 67.76046753 C201.10496427 69.42238365 202.77801675 71.08832369 204.44726562 72.75805664 C206.98523159 75.28946329 209.54621706 77.79588879 212.10913086 80.30200195 C213.74406352 81.92813038 215.37757504 83.55568914 217.00952148 85.18481445 C218.14716194 86.29012009 218.14716194 86.29012009 219.30778503 87.41775513 C226.66573051 94.87074119 231.39922385 103.78048208 231.49780273 114.42700195 C231.25530111 127.76459112 224.62699586 136.44161768 217.06030273 146.92700195 C216.50173584 147.70350098 215.94316895 148.48 215.36767578 149.2800293 C212.70047049 152.96541288 209.99986604 156.59682754 207.13842773 160.1340332 C202.30894224 165.76042653 202.30894224 165.76042653 200.18920898 172.58325195 C200.79155428 174.77971988 200.79155428 174.77971988 202.05859375 176.68676758 C203.31030273 179.17700195 203.31030273 179.17700195 203.83129883 182.2980957 C204.68442871 186.47619816 205.59481252 188.85167593 208.31030273 192.17700195 C215.36510586 195.44421934 223.74188243 195.75317659 231.37280273 196.61450195 C235.59712363 197.14609829 239.81601491 197.71095077 244.03295898 198.2980957 C245.03851334 198.43591461 246.04406769 198.57373352 247.08009338 198.71572876 C257.09895366 200.21470417 265.84686528 203.51106069 272.84545898 211.17700195 C277.42425315 217.42858225 280.41311147 224.11087048 280.48730469 231.86669922 C280.50013992 233.03544083 280.51297516 234.20418243 280.52619934 235.40834045 C280.53727974 237.30669899 280.53727974 237.30669899 280.54858398 239.2434082 C280.55665573 240.54720932 280.56472748 241.85101044 280.57304382 243.19432068 C280.58806412 245.95913563 280.59790294 248.72392499 280.60546875 251.48876953 C280.61648253 255.00681488 280.65082508 258.52421884 280.69064045 262.04203892 C280.72331023 265.42163433 280.72760402 268.80116723 280.73608398 272.1809082 C280.75359207 273.43231094 280.77110016 274.68371368 280.78913879 275.97303772 C280.76507529 285.76771042 279.0085298 293.96761272 272.31030273 301.42700195 C271.65030273 302.1952832 270.99030273 302.96356445 270.31030273 303.75512695 C259.43539252 312.53435134 247.28429289 314.02969794 233.87280273 316.05200195 C231.94609356 316.36017162 230.01965776 316.67005562 228.09350586 316.98168945 C213.02056695 319.37927222 213.02056695 319.37927222 208.31030273 319.17700195 C207.91842773 320.41450195 207.52655273 321.65200195 207.12280273 322.92700195 C205.49343266 327.92584607 203.34663612 332.62947244 201.10327148 337.38012695 C200.11129773 340.87891124 200.77209535 341.9474998 202.31030273 345.17700195 C203.63159719 347.26365712 203.63159719 347.26365712 205.18139648 349.2590332 C205.75075928 350.01861328 206.32012207 350.77819336 206.90673828 351.56079102 C207.51428955 352.36226563 208.12184082 353.16374023 208.74780273 353.98950195 C213.41678818 360.24382705 218.04544689 366.51606893 222.49780273 372.92700195 C222.94244873 373.55711182 223.38709473 374.18722168 223.84521484 374.83642578 C229.66700621 383.28158209 232.22235914 391.87905599 231.31030273 402.17700195 C229.09999316 413.40258993 223.03240627 420.92351562 215.11499023 428.8762207 C214.32689972 429.67429642 213.5388092 430.47237213 212.72683716 431.29463196 C211.06492104 432.97166349 209.398981 434.64471597 207.72924805 436.31396484 C205.19784139 438.8519308 202.69141589 441.41291628 200.18530273 443.97583008 C198.55917431 445.61076274 196.93161555 447.24427426 195.30249023 448.8762207 C194.56561981 449.63464767 193.82874939 450.39307465 193.06954956 451.17448425 C185.6165635 458.53242973 176.70682261 463.26592307 166.06030273 463.36450195 C152.72271356 463.12200033 144.04568701 456.49369507 133.56030273 448.92700195 C132.78380371 448.36843506 132.00730469 447.80986816 131.20727539 447.234375 C127.5218918 444.56716971 123.89047714 441.86656526 120.35327148 439.00512695 C114.72687815 434.17564146 114.72687815 434.17564146 107.90405273 432.0559082 C105.70758481 432.6582535 105.70758481 432.6582535 103.80053711 433.92529297 C101.31030273 435.17700195 101.31030273 435.17700195 98.18920898 435.69799805 C94.01110653 436.55112793 91.63562876 437.46151174 88.31030273 440.17700195 C85.04308535 447.23180508 84.73412809 455.60858165 83.87280273 463.23950195 C83.34120639 467.46382285 82.77635392 471.68271413 82.18920898 475.8996582 C82.05139008 476.90521255 81.91357117 477.91076691 81.77157593 478.9467926 C80.27260051 488.96565288 76.976244 497.7135645 69.31030273 504.7121582 C63.05872243 509.29095237 56.37643421 512.27981069 48.62060547 512.35400391 C46.86749306 512.37325676 46.86749306 512.37325676 45.07896423 512.39289856 C43.1806057 512.40397896 43.1806057 512.40397896 41.24389648 512.4152832 C39.94009537 512.42335495 38.63629425 512.4314267 37.29298401 512.43974304 C34.52816906 512.45476334 31.76337969 512.46460215 28.99853516 512.47216797 C25.48048981 512.48318175 21.96308585 512.51752429 18.44526577 512.55733967 C15.06567036 512.59000945 11.68613746 512.59430324 8.30639648 512.6027832 C7.05499374 512.62029129 5.803591 512.63779938 4.51426697 512.65583801 C-5.28040573 512.63177451 -13.48030803 510.87522902 -20.93969727 504.17700195 C-21.70797852 503.51700195 -22.47625977 502.85700195 -23.26782227 502.17700195 C-32.04704666 491.30209174 -33.54239325 479.15099211 -35.56469727 465.73950195 C-35.87286693 463.81279277 -36.18275093 461.88635698 -36.49438477 459.96020508 C-38.89196754 444.88726617 -38.89196754 444.88726617 -38.68969727 440.17700195 C-39.92719727 439.78512695 -41.16469727 439.39325195 -42.43969727 438.98950195 C-47.43854138 437.36013188 -52.14216775 435.21333534 -56.89282227 432.9699707 C-60.39160656 431.97799695 -61.46019511 432.63879457 -64.68969727 434.17700195 C-66.77635243 435.49829641 -66.77635243 435.49829641 -68.77172852 437.0480957 C-69.53130859 437.6174585 -70.29088867 438.18682129 -71.07348633 438.7734375 C-71.87496094 439.38098877 -72.67643555 439.98854004 -73.50219727 440.61450195 C-79.75652236 445.28348739 -86.02876424 449.9121461 -92.43969727 454.36450195 C-93.06980713 454.80914795 -93.69991699 455.25379395 -94.34912109 455.71191406 C-102.79427741 461.53370543 -111.3917513 464.08905836 -121.68969727 463.17700195 C-132.91528524 460.96669238 -140.43621093 454.89910548 -148.38891602 446.98168945 C-149.58602959 445.79955368 -149.58602959 445.79955368 -150.80732727 444.59353638 C-152.48435881 442.93162026 -154.15741128 441.26568022 -155.82666016 439.59594727 C-158.36462612 437.06454061 -160.92561159 434.55811511 -163.48852539 432.05200195 C-165.12345805 430.42587352 -166.75696957 428.79831476 -168.38891602 427.16918945 C-169.14734299 426.43231903 -169.90576996 425.69544861 -170.68717957 424.93624878 C-178.23217773 417.29379392 -182.72444199 408.34195518 -182.93969727 397.48950195 C-182.70864766 383.29045341 -174.20990338 373.22683879 -166.25219727 362.17700195 C-165.41229248 361.00633179 -165.41229248 361.00633179 -164.55541992 359.81201172 C-162.1105586 356.42635292 -159.66013593 353.08504361 -156.96704102 349.8918457 C-153.04757537 345.46584285 -153.04757537 345.46584285 -151.70141602 339.9699707 C-152.3102608 337.76288517 -152.3102608 337.76288517 -153.50048828 335.76098633 C-154.68969727 333.17700195 -154.68969727 333.17700195 -155.19848633 330.03759766 C-156.05768741 325.86455104 -156.9699936 323.49430385 -159.68969727 320.17700195 C-166.74688599 316.91229612 -175.11995962 316.60097601 -182.75219727 315.73950195 C-186.97651816 315.20790561 -191.19540944 314.64305314 -195.41235352 314.0559082 C-196.41790787 313.91808929 -197.42346222 313.78027039 -198.45948792 313.63827515 C-208.47834819 312.13929973 -217.22625982 308.84294322 -224.22485352 301.17700195 C-228.80364768 294.92542165 -231.792506 288.24313343 -231.86669922 280.48730469 C-231.87953445 279.31856308 -231.89236969 278.14982147 -231.90559387 276.94566345 C-231.9129808 275.68009109 -231.92036774 274.41451874 -231.92797852 273.1105957 C-231.93605026 271.80679459 -231.94412201 270.50299347 -231.95243835 269.15968323 C-231.96745865 266.39486828 -231.97729747 263.63007891 -231.98486328 260.86523438 C-231.99587707 257.34718903 -232.03021961 253.82978507 -232.07003498 250.31196499 C-232.10270476 246.93236958 -232.10699855 243.55283668 -232.11547852 240.1730957 C-232.1329866 238.92169296 -232.15049469 237.67029022 -232.16853333 236.38096619 C-232.14446983 226.58629349 -230.38792433 218.38639119 -223.68969727 210.92700195 C-223.02969727 210.1587207 -222.36969727 209.39043945 -221.68969727 208.59887695 C-210.81478705 199.81965256 -198.66368742 198.32430597 -185.25219727 196.30200195 C-183.32548809 195.99383229 -181.39905229 195.68394829 -179.47290039 195.37231445 C-164.39996148 192.97473168 -164.39996148 192.97473168 -159.68969727 193.17700195 C-159.29782227 191.93950195 -158.90594727 190.70200195 -158.50219727 189.42700195 C-156.87282719 184.42815784 -154.72603065 179.72453147 -152.48266602 174.97387695 C-151.49069226 171.47509266 -152.15148988 170.4065041 -153.68969727 167.17700195 C-155.01099172 165.09034679 -155.01099172 165.09034679 -156.56079102 163.0949707 C-157.41483521 161.95560059 -157.41483521 161.95560059 -158.28613281 160.79321289 C-158.89368408 159.99173828 -159.50123535 159.19026367 -160.12719727 158.36450195 C-164.79618271 152.11017686 -169.42484142 145.83793498 -173.87719727 139.42700195 C-174.32184326 138.79689209 -174.76648926 138.16678223 -175.22460938 137.51757812 C-181.139172 128.93784677 -183.52504823 120.61129489 -182.68969727 110.17700195 C-180.54143744 98.96207074 -174.38665482 91.40523023 -166.49438477 83.4777832 C-165.70629425 82.67970749 -164.91820374 81.88163177 -164.10623169 81.05937195 C-162.44431557 79.38234041 -160.77837553 77.70928794 -159.10864258 76.04003906 C-156.57723592 73.5020731 -154.07081042 70.94108763 -151.56469727 68.37817383 C-149.93856884 66.74324117 -148.31101008 65.10972964 -146.68188477 63.4777832 C-145.94501434 62.71935623 -145.20814392 61.96092926 -144.44894409 61.17951965 C-136.80648923 53.63452149 -127.8546505 49.14225722 -117.00219727 48.92700195 C-102.80314873 49.15805156 -92.7395341 57.65679584 -81.68969727 65.61450195 C-80.90925049 66.17443848 -80.12880371 66.734375 -79.32470703 67.3112793 C-75.93904824 69.75614062 -72.59773892 72.20656329 -69.40454102 74.8996582 C-64.96324773 78.82820274 -64.96324773 78.82820274 -59.44750977 80.1652832 C-57.00475845 79.41333306 -54.94606654 78.37844533 -52.68969727 77.17700195 C-50.55020473 76.26612889 -48.4040645 75.37074282 -46.25219727 74.48950195 C-45.24286133 74.05250977 -44.23352539 73.61551758 -43.19360352 73.1652832 C-40.68969727 72.17700195 -40.68969727 72.17700195 -38.68969727 72.17700195 C-38.64868896 71.59104248 -38.60768066 71.00508301 -38.56542969 70.40136719 C-37.90120905 62.078706 -36.70475603 53.86412852 -35.38037109 45.62548828 C-35.12874783 44.03793878 -34.88554388 42.44903138 -34.65087891 40.85888672 C-32.82993025 28.53666819 -30.32189321 16.43552459 -20.68969727 7.6418457 C-14.43811696 3.06305154 -7.75582874 0.07419322 0 0 Z M-29.68969727 164.17700195 C-30.67583008 164.72098633 -31.66196289 165.2649707 -32.67797852 165.82543945 C-56.54256788 179.98532605 -72.68330422 204.47048077 -79.68579102 230.94262695 C-81.20053853 237.63940543 -82.32266352 244.31805888 -82.68969727 251.17700195 C-82.73094727 251.92723633 -82.77219727 252.6774707 -82.81469727 253.45043945 C-83.35684232 273.84864712 -77.53701863 292.55059009 -67.68969727 310.17700195 C-67.14571289 311.16313477 -66.60172852 312.14926758 -66.04125977 313.1652832 C-51.87131118 337.04683069 -27.4190142 353.10791733 -0.95922852 360.1730957 C6.08934134 361.77958545 13.09107236 362.81490889 20.31030273 363.17700195 C21.00897461 363.21825195 21.70764648 363.25950195 22.42749023 363.30200195 C42.39683693 363.90485016 61.07643665 357.80502035 78.31030273 348.17700195 C79.29643555 347.63301758 80.28256836 347.0890332 81.29858398 346.52856445 C105.34052673 332.26344647 120.69481418 308.08475251 128.30639648 281.7277832 C135.22639168 253.22005181 129.6174224 223.73464068 114.61889648 198.70825195 C110.81795273 192.68273129 106.09686983 187.42772101 101.31030273 182.17700195 C100.72764648 181.5118457 100.14499023 180.84668945 99.54467773 180.16137695 C81.42016331 160.57225531 53.05466464 150.51414179 27.02124023 149.0480957 C6.61828282 148.53631583 -12.05528554 154.32521132 -29.68969727 164.17700195 Z " fill="#3582BA" transform="translate(231.689697265625,-0.177001953125)"/>
<path d="M0 0 C16.68940115 15.19182109 26.56739632 35.33872202 28.00683594 57.89916992 C28.35043217 81.75047521 20.36265828 102.70494943 3.68261719 119.92651367 C-11.57548402 135.05639554 -32.02125187 142.34430369 -53.19628906 142.96557617 C-76.2582962 142.69927124 -96.64840947 133.47837424 -112.84765625 117.1418457 C-124.78258241 104.51986188 -133.43580574 86.20669268 -134.19628906 68.71557617 C-134.27363281 67.21510742 -134.27363281 67.21510742 -134.35253906 65.68432617 C-134.97509367 42.64980556 -127.26206347 21.9017388 -111.51904297 4.99536133 C-82.25207921 -25.22176425 -31.82772728 -27.6563523 0 0 Z " fill="#3582BA" transform="translate(309.1962890625,194.284423828125)"/>
</svg>
