<?xml version="1.0" encoding="UTF-8"?>
<svg version="1.1" xmlns="http://www.w3.org/2000/svg" width="512" height="512">
<path d="M0 0 C1.50023248 -0.00302563 3.00046341 -0.00691717 4.50069165 -0.01159257 C8.59707938 -0.02182844 12.69337915 -0.01970205 16.78977394 -0.01541197 C21.21800289 -0.01293667 25.64621111 -0.02196892 30.07443237 -0.02944946 C38.74014595 -0.04217662 47.40582851 -0.04399259 56.07154986 -0.0416492 C63.1187407 -0.0398635 70.16592216 -0.04162109 77.21311188 -0.04587364 C78.21752214 -0.04646883 79.22193239 -0.04706402 80.25677933 -0.04767724 C82.29750449 -0.04888905 84.33822964 -0.05010318 86.3789548 -0.05131962 C105.50287292 -0.06218772 124.6267734 -0.06003625 143.75069252 -0.05393478 C161.22536952 -0.04876745 178.69999075 -0.0600175 196.17465672 -0.07903299 C214.1388898 -0.09843059 232.10309652 -0.10666395 250.06734014 -0.10290974 C260.14432565 -0.10100047 270.22126372 -0.10345849 280.29824066 -0.11762428 C288.87792498 -0.12956363 297.45753264 -0.13091446 306.03721806 -0.11883412 C310.40972796 -0.11296306 314.78209783 -0.11179658 319.15459824 -0.12383652 C323.16675036 -0.13475526 327.17864654 -0.13152157 331.19078699 -0.11757483 C332.63284194 -0.11494425 334.07491735 -0.11724216 335.51695213 -0.1253107 C348.22465583 -0.19140953 361.03810496 1.04040679 372.58428955 6.76069641 C373.28811768 7.10326477 373.9919458 7.44583313 374.71710205 7.79878235 C391.4237548 16.34126919 403.95968163 31.43832941 409.9553833 49.21382141 C411.99139929 56.34474822 413.08226022 63.33591536 413.09071732 70.76485443 C413.09455846 72.03749728 413.09839961 73.31014012 413.10235715 74.6213479 C413.10157705 76.02102826 413.10069829 77.42070856 413.09973145 78.82038879 C413.1023173 80.3171679 413.10533108 81.81394631 413.10873485 83.31072378 C413.11678235 87.41612548 413.11859316 91.52150967 413.11933231 95.62691832 C413.12118682 100.0579395 413.12873621 104.48895169 413.13546753 108.91996765 C413.14903593 118.60620055 413.1550734 128.2924293 413.15947819 137.97867012 C413.16224344 144.03078422 413.16648134 150.08289674 413.17098236 156.13500977 C413.18317365 172.90252329 413.19347287 189.67003554 413.19685745 206.43755341 C413.19707702 207.51024462 413.19729658 208.58293584 413.1975228 209.68813285 C413.19774108 210.76334533 413.19795936 211.83855781 413.19818425 212.94635248 C413.19862771 215.12502702 413.19907428 217.30370156 413.19952393 219.4823761 C413.19974536 220.56306671 413.19996679 221.64375732 413.20019493 222.75719613 C413.20414073 240.25799053 413.22158877 257.75874324 413.24488345 275.25952154 C413.26862501 293.24170457 413.2810606 311.22386671 413.28222537 329.20606565 C413.28314061 339.29652903 413.28885486 349.3869381 413.30704498 359.47738647 C413.32248392 368.07180165 413.32754415 376.66614572 413.31930688 385.26057214 C413.31541363 389.64115906 413.31626478 394.02160297 413.33036423 398.40217209 C413.34318319 402.42187939 413.3418363 406.44133738 413.32977352 410.46104473 C413.32783024 411.90591353 413.33083066 413.35080048 413.33961788 414.79564387 C413.41108985 427.35482853 412.41887829 440.29047207 406.27178955 451.51069641 C405.92366211 452.17198547 405.57553467 452.83327454 405.21685791 453.51460266 C395.77543424 471.0089429 381.81156634 483.31760074 362.75078273 489.44628507 C353.20124316 492.23234 343.84890317 492.54995866 333.95654297 492.52139282 C332.46043529 492.52441848 330.96432915 492.52831003 329.46822572 492.53298539 C325.38323949 492.54322092 321.29834146 492.54109496 317.21334815 492.5368048 C312.79738923 492.53432943 308.3814511 492.54336182 303.96549988 492.55084229 C295.32384975 492.56356927 286.68223072 492.56538544 278.04057279 492.56304202 C271.01292809 492.5612563 263.98529281 492.56301395 256.95764923 492.56726646 C255.45519688 492.56815925 255.45519688 492.56815925 253.92239197 492.56907007 C251.88730381 492.57028187 249.85221565 492.571496 247.8171275 492.57271244 C228.74614448 492.58358048 209.67517916 492.5814291 190.60419515 492.5753276 C173.17801703 492.57016029 155.75189485 492.5814103 138.32572779 492.60042582 C120.41121524 492.61982358 102.49672913 492.62805674 84.58220601 492.62430257 C74.53316612 492.62239331 64.48417381 492.62485108 54.43514252 492.63901711 C45.8792467 492.65095666 37.32342775 492.65230706 28.76753083 492.64022694 C24.40717239 492.63435603 20.04695437 492.63318901 15.68660545 492.64522934 C11.68555562 492.65614857 7.68476244 492.65291382 3.68372431 492.63896766 C2.24570702 492.63633721 0.80766921 492.63863455 -0.63032785 492.64670352 C-22.59887149 492.76129871 -42.45942068 486.82543592 -58.8493042 471.60835266 C-74.43870495 454.90740819 -79.53548872 435.02849259 -79.42166138 412.7389679 C-79.42512777 411.23528169 -79.42989885 409.73159803 -79.43584311 408.22791958 C-79.44824817 404.14052536 -79.4422312 400.05334404 -79.43288445 395.96594954 C-79.42605078 391.54051311 -79.43659644 387.11511137 -79.44482422 382.68968201 C-79.45811798 374.03786793 -79.45530332 365.38613222 -79.4465863 356.73431516 C-79.43979294 349.69865864 -79.43890015 342.66302398 -79.44215775 335.62736511 C-79.44261744 334.62349681 -79.44307714 333.61962851 -79.44355077 332.58533996 C-79.44451001 330.54558094 -79.44548265 328.50582192 -79.44646855 326.4660629 C-79.45500968 307.36882187 -79.44520838 288.27162413 -79.42906745 269.1743902 C-79.41566544 252.8115357 -79.41799389 236.44874507 -79.43182373 220.08589172 C-79.44790214 201.0539053 -79.45418582 182.02195676 -79.44498694 162.98996449 C-79.44403136 160.95798557 -79.44308824 158.92600664 -79.44215775 156.89402771 C-79.44169492 155.89442707 -79.44123209 154.89482643 -79.44075524 153.86493486 C-79.43817213 146.84310869 -79.44252166 139.82130668 -79.44959641 132.79948425 C-79.45803676 124.23453061 -79.45567817 115.66965939 -79.43975417 107.10471511 C-79.43190546 102.74028221 -79.42872137 98.3759864 -79.43870163 94.01155472 C-79.4477201 90.00695776 -79.44259962 86.0026234 -79.42676897 81.99804986 C-79.42345115 80.55880874 -79.42504655 79.11954488 -79.43239634 77.68031871 C-79.49146284 65.14013202 -78.49039431 52.21284147 -72.35321045 41.01069641 C-72.00508301 40.34940735 -71.65695557 39.68811829 -71.29827881 39.00679016 C-61.85691737 21.51256523 -47.89290882 9.20345405 -28.83205533 3.07510775 C-19.27015483 0.28529834 -9.90513912 -0.02852169 0 0 Z M-38.04071045 30.26069641 C-38.8193042 30.84721985 -39.59789795 31.43374329 -40.40008545 32.03804016 C-51.40631248 41.06831703 -57.0356402 53.33163859 -59.04071045 67.26069641 C-59.1299272 69.35414479 -59.17145039 71.44996337 -59.17493153 73.54530907 C-59.17938937 74.79444379 -59.18384721 76.04357852 -59.18844014 77.33056581 C-59.18835086 78.70891787 -59.18816103 80.08726992 -59.18788147 81.46562195 C-59.191183 82.93607671 -59.19490918 84.40653057 -59.19902295 85.87698328 C-59.2090184 89.91430218 -59.21275579 93.9516062 -59.21541226 97.98893571 C-59.21932267 102.34501159 -59.22890056 106.70107577 -59.23762512 111.05714417 C-59.25736983 121.57613051 -59.2674537 132.0951178 -59.27635291 142.61411804 C-59.28073951 147.57211331 -59.28610539 152.53010752 -59.29134178 157.48810196 C-59.30835287 173.97763281 -59.32284562 190.467163 -59.33009052 206.95670128 C-59.33200031 211.23397701 -59.33392066 215.51125273 -59.33587646 219.78852844 C-59.33636021 220.85157855 -59.33684395 221.91462867 -59.33734234 223.00989242 C-59.34563735 240.21909521 -59.37096585 257.42822838 -59.40345714 274.63740079 C-59.43656925 292.32010344 -59.45454308 310.00277075 -59.45773476 327.68550456 C-59.45989613 337.60780253 -59.46858989 347.52999901 -59.49419594 357.45226669 C-59.51595979 365.90505784 -59.52392552 374.35772282 -59.51422916 382.81053881 C-59.50970074 387.11837818 -59.51148503 391.42595754 -59.5309906 395.73376083 C-59.54874056 399.68824296 -59.54753004 403.64227769 -59.53209331 407.59676535 C-59.52973501 409.01678604 -59.53394691 410.4368387 -59.54592196 411.85681085 C-59.65655593 425.85860445 -57.64280948 439.81128254 -49.04071045 451.26069641 C-48.47739014 452.0276886 -47.91406982 452.79468079 -47.3336792 453.58491516 C-38.05557613 465.08976297 -25.34029687 470.43443312 -11.04071045 472.26069641 C-8.91468256 472.34723715 -6.78648514 472.38964818 -4.65869808 472.39212418 C-3.4133057 472.39596532 -2.16791332 472.39980647 -0.88478178 472.40376401 C0.48414558 472.40298392 1.85307288 472.40210516 3.22200012 472.40113831 C4.68649353 472.40372427 6.15098624 472.40673808 7.61547798 472.41014171 C11.63159778 472.41818781 15.64769968 472.41999994 19.66382658 472.42073917 C23.99871333 472.42259391 28.33359088 472.43014338 32.66847229 472.43687439 C42.14390094 472.45044149 51.61932534 472.45647997 61.09476209 472.46088505 C67.01487076 472.46365035 72.9349778 472.46788824 78.85508537 472.47238922 C95.25630497 472.48458003 111.65752326 472.49487955 128.05874729 472.49826431 C129.10794918 472.49848388 130.15715107 472.49870344 131.23814696 472.49892966 C132.81564949 472.49925708 132.81564949 472.49925708 134.42502075 472.49959111 C136.55599121 472.50003457 138.68696167 472.50048114 140.81793213 472.50093079 C141.87496013 472.50115222 142.93198813 472.50137365 144.02104729 472.50160179 C161.14099262 472.50554812 178.26089534 472.52299796 195.38082422 472.54629031 C212.97088815 472.57002847 230.56093072 472.58246729 248.15101093 472.58363223 C258.02178992 472.58454763 267.89251339 472.59026588 277.76327705 472.60845184 C286.16997454 472.62388615 294.57659935 472.6289537 302.98330832 472.62071374 C307.26858501 472.61681895 311.5537155 472.6176793 315.838974 472.63177109 C319.77042739 472.64458058 323.70162577 472.64325131 327.63307916 472.63118038 C329.04697484 472.62923549 330.46088903 472.63224517 331.87475879 472.64102474 C349.07731581 472.74098767 365.11193195 469.66845927 377.92803955 457.45600891 C390.88976664 443.44737309 393.27441379 427.99977746 393.21998596 409.51696777 C393.2230118 408.04902097 393.22690344 406.58107573 393.23157853 405.11313325 C393.24181164 401.10602689 393.23968874 397.09901047 393.23539793 393.09189689 C393.23292214 388.75980228 393.24195545 384.42772885 393.24943542 380.09564209 C393.26216093 371.61876108 393.26397879 363.14191177 393.26163516 354.66502281 C393.25984939 347.77180883 393.2616072 340.87860445 393.2658596 333.98539162 C393.26675239 332.51164748 393.26675239 332.51164748 393.26766321 331.00813073 C393.26887501 329.01193584 393.27008914 327.01574096 393.27130558 325.01954607 C393.28217291 306.31437018 393.28002249 287.60921233 393.27392074 268.90403543 C393.26875266 251.81020743 393.28000559 234.71643644 393.29901896 217.62261971 C393.31841377 200.05050565 393.32665045 182.47841853 393.32289571 164.90629369 C393.32098611 155.04899266 393.32344762 145.19174014 393.33761024 135.33444786 C393.34954598 126.94248111 393.3509044 118.55059272 393.33882008 110.15862485 C393.3329467 105.88142526 393.33178909 101.60436886 393.34382248 97.32717896 C393.35473314 93.40328059 393.35151697 89.47964407 393.3375608 85.55575768 C393.33492803 84.1446759 393.33723515 82.73357326 393.34529666 81.32251205 C393.43974071 63.54144222 390.05496013 47.66126542 377.43585205 34.51460266 C366.91665667 24.94113936 353.84419602 20.15001606 339.6746769 20.12647533 C337.80097481 20.11978857 337.80097481 20.11978857 335.88942015 20.11296672 C334.5110681 20.113056 333.13271604 20.11324583 331.75436401 20.11352539 C330.28390925 20.11022386 328.81345539 20.10649768 327.34300268 20.10238391 C323.30568379 20.09238846 319.26837976 20.08865107 315.23105025 20.0859946 C310.87497438 20.08208419 306.51891019 20.0725063 302.1628418 20.06378174 C291.64385545 20.04403703 281.12486817 20.03395316 270.60586792 20.02505395 C265.64787265 20.02066735 260.68987844 20.01530147 255.731884 20.01006508 C239.24235315 19.99305399 222.75282296 19.97856124 206.26328468 19.97131634 C201.98600895 19.96940655 197.70873323 19.96748621 193.43145752 19.9655304 C192.36840741 19.96504666 191.30535729 19.96456292 190.21009354 19.96406452 C173.00089075 19.95576951 155.79175758 19.93044101 138.58258517 19.89794972 C120.89988252 19.86483761 103.21721521 19.84686378 85.53448141 19.8436721 C75.61218343 19.84151073 65.68998696 19.83281697 55.76771927 19.80721092 C47.31492812 19.78544707 38.86226314 19.77748134 30.40944715 19.7871777 C26.10160778 19.79170612 21.79402842 19.78992183 17.48622513 19.77041626 C13.531743 19.7526663 9.57770827 19.75387683 5.62322061 19.76931355 C4.20319992 19.77167185 2.78314726 19.76745995 1.36317511 19.7554849 C-12.62303106 19.64497409 -26.61095583 21.64841627 -38.04071045 30.26069641 Z " fill="#000000" transform="translate(89.04071044921875,9.739303588867188)"/>
<path d="M0 0 C1.03447848 -0.00467997 2.06895696 -0.00935994 3.13478327 -0.01418173 C6.58229761 -0.02609566 10.0294118 -0.01668837 13.47692871 -0.00723267 C15.95623506 -0.01129995 18.43553959 -0.01664271 20.9148407 -0.02316284 C26.93856396 -0.03540623 32.96213166 -0.03363645 38.98584878 -0.02492492 C43.88354497 -0.01813643 48.78120975 -0.01723668 53.6789093 -0.02049637 C54.37725778 -0.02095607 55.07560626 -0.02141577 55.79511681 -0.0218894 C57.21401243 -0.02284862 58.63290805 -0.02382126 60.05180365 -0.02480717 C73.34171759 -0.03335191 86.63156935 -0.02354134 99.92147309 -0.00740607 C111.31287354 0.00599629 122.70418226 0.00366794 134.09558105 -0.01016235 C147.33950672 -0.02623438 160.58337794 -0.03252802 173.82731199 -0.02332556 C175.24084694 -0.02236996 176.6543819 -0.02142685 178.06791687 -0.02049637 C178.76331547 -0.02003354 179.45871407 -0.01957072 180.17518535 -0.01909386 C185.0642574 -0.01650884 189.95329477 -0.02086443 194.84236145 -0.02793503 C201.42846518 -0.03725096 208.01442288 -0.03057254 214.60051918 -0.01325226 C217.01557948 -0.00929037 219.43065438 -0.01041634 221.84570885 -0.01704025 C225.14627688 -0.02525729 228.44629313 -0.01493158 231.74682617 0 C232.69888144 -0.00669217 233.65093671 -0.01338433 234.63184214 -0.02027929 C243.21586491 0.05486592 250.46911265 1.73152221 256.86950684 7.70126343 C262.95380114 14.49670902 263.59015764 21.35470544 263.68591309 30.06845093 C263.71491699 30.92890015 263.7439209 31.78934937 263.77380371 32.6758728 C263.84818745 40.26873605 261.61648851 45.72556876 257.68591309 52.13095093 C249.69182112 59.90898635 240.8789439 60.53206198 230.25944519 60.5146637 C228.7360737 60.51806203 228.7360737 60.51806203 227.18192703 60.52152902 C223.78049348 60.52785672 220.37909991 60.52704044 216.97766113 60.5262146 C214.53820748 60.52920685 212.09875431 60.53260954 209.65930176 60.53639221 C203.72144689 60.54431172 197.78360138 60.54744658 191.84574231 60.54800459 C187.01758565 60.54848026 182.18943225 60.55053754 177.36127663 60.55370522 C163.66327025 60.56250895 149.9652717 60.56712504 136.26726248 60.56637474 C135.16025503 60.56631481 135.16025503 60.56631481 134.03088379 60.56625366 C133.29197451 60.56621278 132.55306524 60.5661719 131.79176477 60.56612978 C119.81897253 60.5657234 107.84621175 60.57529162 95.87342861 60.58939203 C83.57074795 60.60376628 71.26808263 60.61066163 58.96539336 60.60979825 C52.06204099 60.60946664 45.15872161 60.61219793 38.25537682 60.6229763 C31.76209585 60.63304971 25.2688665 60.63273522 18.77558136 60.62545967 C16.39438335 60.62441405 14.013181 60.62677537 11.63199043 60.63282013 C8.37735585 60.64054608 5.12296139 60.63589107 1.86833191 60.62818909 C0.46052516 60.63590443 0.46052516 60.63590443 -0.97572213 60.64377564 C-10.62449262 60.59344273 -18.58964134 59.38723443 -25.62658691 52.38095093 C-31.04041824 45.2744577 -31.8530504 39.50873271 -31.93908691 30.75595093 C-31.96809082 29.79559937 -31.99709473 28.8352478 -32.02697754 27.84579468 C-32.09483349 20.15197416 -30.6299639 14.17536724 -25.80236816 8.07626343 C-25.18748535 7.5580603 -24.57260254 7.03985718 -23.93908691 6.50595093 C-23.03609863 5.70544312 -23.03609863 5.70544312 -22.11486816 4.88876343 C-15.10806821 0.64288465 -8.03791876 -0.05649995 0 0 Z M-11.62658691 23.38095093 C-12.18759825 26.73697266 -12.18759825 26.73697266 -12.00158691 30.44345093 C-11.98869629 31.69255249 -11.97580566 32.94165405 -11.96252441 34.22860718 C-11.9502442 37.47609039 -11.9502442 37.47609039 -9.62658691 39.38095093 C-7.70249103 39.68411245 -7.70249103 39.68411245 -5.46611786 39.63542652 C-4.58903687 39.64125871 -3.71195588 39.64709091 -2.80829668 39.65309983 C-1.83885858 39.64932051 -0.86942048 39.64554119 0.12939453 39.64164734 C1.66729857 39.64738566 1.66729857 39.64738566 3.23627138 39.65323991 C6.69414584 39.66361237 10.15185556 39.65956973 13.60974121 39.65560913 C16.07966771 39.65995323 18.54959286 39.66513535 21.01951599 39.6710968 C27.04515783 39.68313281 33.07073417 39.68563439 39.09638202 39.68329654 C43.99191782 39.68151618 48.88744007 39.68325693 53.78297424 39.68752098 C54.82662511 39.68841376 54.82662511 39.68841376 55.89135984 39.68932458 C57.30463231 39.69053629 58.71790478 39.69175042 60.13117725 39.69296696 C73.39507979 39.70385207 86.65895694 39.70167531 99.92286092 39.69558211 C112.06878459 39.69041103 124.21462811 39.7016717 136.36053592 39.72068033 C148.82013323 39.74003105 161.27969257 39.74831968 173.73930502 39.74455708 C180.73919912 39.74264095 187.73902497 39.74517253 194.73890686 39.75927162 C201.31832054 39.77238927 207.89759968 39.76996316 214.47702217 39.75686073 C216.8982454 39.75448232 219.31947976 39.75727444 221.74069023 39.76548386 C225.03312809 39.77584636 228.32501448 39.76793562 231.61743164 39.75517273 C232.58686974 39.76254701 233.55630784 39.7699213 234.55512285 39.77751905 C235.43220384 39.7703125 236.30928483 39.76310596 237.21294403 39.75568104 C238.35389629 39.75576356 238.35389629 39.75576356 239.51789808 39.75584775 C241.78742724 39.52445515 241.78742724 39.52445515 243.37341309 36.38095093 C243.76683827 33.54691449 243.76683827 33.54691449 243.74841309 30.44345093 C243.77677246 29.40317749 243.80513184 28.36290405 243.83435059 27.29110718 C243.57613881 24.36753032 243.57613881 24.36753032 241.95905304 22.2303915 C238.00014068 19.39868513 234.29710385 19.83150286 229.54223633 19.87974548 C228.02838702 19.87144389 228.02838702 19.87144389 226.48395491 19.86297458 C223.09204168 19.84932881 219.70085927 19.86435907 216.30895996 19.87924194 C213.88139024 19.87546021 211.45382268 19.86996138 209.02626038 19.86286926 C203.11112846 19.85033249 197.1961911 19.85649939 191.28108132 19.87154485 C184.39444081 19.88839544 177.50785358 19.88519589 170.62119883 19.88145076 C158.33462164 19.87557057 146.04814688 19.88974996 133.76159668 19.91439819 C121.83610189 19.93831946 109.91074397 19.94540268 97.98522949 19.93490601 C85.00287351 19.92349961 72.02058086 19.92156327 59.03822565 19.9360041 C57.65419166 19.93752996 56.27015766 19.93905032 54.88612366 19.94056511 C54.20513122 19.94132292 53.52413878 19.94208074 52.82251021 19.94286152 C48.02081898 19.94760651 43.21915601 19.94575139 38.41746521 19.94149971 C31.95619211 19.93606183 25.49506681 19.94680339 19.03382683 19.96845436 C16.65860065 19.97403173 14.28335625 19.97447887 11.90812874 19.9695015 C8.67340289 19.96357177 5.43926281 19.97600979 2.20458984 19.99327087 C1.25790546 19.98726083 0.31122108 19.98125078 -0.66415071 19.97505862 C-6.82258622 19.89239863 -6.82258622 19.89239863 -11.62658691 23.38095093 Z " fill="#000000" transform="translate(175.6265869140625,119.61904907226563)"/>
<path d="M0 0 C1.01628656 -0.00226556 2.03257312 -0.00453111 3.07965624 -0.00686532 C6.48342376 -0.01319301 9.88715133 -0.01237675 13.29092407 -0.0115509 C15.73200024 -0.01454314 18.17307593 -0.01794582 20.614151 -0.02172852 C26.55568088 -0.02964781 32.4972014 -0.03278286 38.43873547 -0.03334089 C43.2692844 -0.03381653 48.09983006 -0.03587364 52.93037796 -0.03904152 C66.63345 -0.04784481 80.33651421 -0.05246135 94.03958909 -0.05171105 C94.77785678 -0.05167109 95.51612448 -0.05163113 96.27676392 -0.05158997 C97.38552129 -0.05152864 97.38552129 -0.05152864 98.51667781 -0.05146609 C110.49661213 -0.05105961 122.47651502 -0.06063033 134.45644026 -0.07472833 C146.76476614 -0.08909825 159.07307671 -0.09599819 171.38141119 -0.09513456 C178.28864407 -0.09480282 185.19584399 -0.09753972 192.10306931 -0.10831261 C198.59880948 -0.11837903 205.09449805 -0.11807597 211.59024239 -0.11079597 C213.97347299 -0.10974958 216.35670792 -0.11211625 218.73993111 -0.11815643 C221.99491562 -0.1258714 225.24965936 -0.12123465 228.50463867 -0.11352539 C229.44608935 -0.11866895 230.38754002 -0.12381252 231.35751951 -0.12911195 C240.96424764 -0.07888491 248.36805857 1.91138013 255.87930298 8.13371277 C261.41754658 14.95001258 262.22328397 21.53403062 262.19180298 30.00871277 C262.20791626 30.86851746 262.22402954 31.72832214 262.2406311 32.61418152 C262.246893 40.86736617 260.28769894 47.40989125 254.62539673 53.59465027 C249.49018635 58.12098783 243.2393716 60.25405468 236.46105671 60.26514053 C235.13548723 60.27090225 235.13548723 60.27090225 233.78313857 60.27678037 C232.33320936 60.27548064 232.33320936 60.27548064 230.85398865 60.27415466 C229.82378229 60.27712579 228.79357594 60.28009691 227.73215121 60.28315806 C224.26923075 60.2918514 220.80634483 60.29335386 217.34341431 60.29484558 C214.86484707 60.29947332 212.38628054 60.30449792 209.90771484 60.30989075 C203.16582557 60.32302145 196.42394983 60.32949782 189.68205094 60.33390141 C185.47076368 60.33666534 181.2594787 60.340903 177.04819298 60.34540558 C165.38405533 60.35759789 153.71991952 60.3678969 142.05577564 60.37128067 C141.30937454 60.37150024 140.56297343 60.3717198 139.79395412 60.37194602 C138.67169865 60.37227344 138.67169865 60.37227344 137.52677137 60.37260747 C136.01073698 60.37305093 134.4947026 60.3734975 132.97866821 60.37394714 C132.22666548 60.37416857 131.47466274 60.37439 130.69987204 60.37461814 C118.52000965 60.37856452 106.34020715 60.39601382 94.16036788 60.41930667 C81.64982812 60.44303841 69.13931838 60.45548337 56.62875575 60.45664859 C49.60686429 60.45756439 42.58505085 60.46329255 35.56318092 60.4814682 C28.95664287 60.4985087 22.35022655 60.50010816 15.74366379 60.49132919 C13.32053799 60.49055838 10.89740426 60.49490734 8.47429848 60.50478745 C5.1625347 60.51749764 1.85129582 60.51163468 -1.46046448 60.50120544 C-2.89366328 60.51329005 -2.89366328 60.51329005 -4.35581559 60.52561879 C-11.99312992 60.46949544 -19.53698343 59.23576293 -25.43319702 54.00871277 C-26.04807983 53.49050964 -26.66296265 52.97230652 -27.29647827 52.43840027 C-32.68374306 45.63221992 -33.81732683 38.69256644 -33.68319702 30.19621277 C-33.67296509 29.22490417 -33.66273315 28.25359558 -33.65219116 27.25285339 C-33.40949881 19.09619028 -32.05062111 13.35905256 -26.40585327 7.28996277 C-18.70790316 0.14788214 -10.01815326 -0.01640124 0 0 Z M-13.12069702 23.13371277 C-13.75734949 26.45171149 -13.75734949 26.45171149 -13.62069702 30.13371277 C-13.63100952 31.37121277 -13.64132202 32.60871277 -13.65194702 33.88371277 C-13.41585767 37.0760446 -13.41585767 37.0760446 -11.70194244 38.81260777 C-7.67002879 40.87617803 -3.75589682 40.54974771 0.71047974 40.52139282 C2.22432904 40.52947113 2.22432904 40.52947113 3.76876116 40.53771263 C7.16054911 40.55205403 10.55195018 40.54487316 13.9437561 40.5377655 C16.37132584 40.54346579 18.79889289 40.55042871 21.22645569 40.55856323 C27.14154463 40.5746775 33.05653552 40.57658788 38.97163475 40.57135033 C43.77843865 40.56731084 48.58521115 40.56874954 53.39201355 40.57409859 C54.41773961 40.57522122 54.41773961 40.57522122 55.46418741 40.57636653 C56.85329736 40.57789799 58.2424073 40.57943633 59.63151723 40.5809815 C72.66087033 40.59471235 85.69016341 40.58926454 98.71951514 40.57779629 C110.64412631 40.56786111 122.56858237 40.58080838 134.49316961 40.60473048 C146.73362605 40.62910153 158.97401019 40.63873441 171.21449041 40.63207775 C178.08812311 40.62858135 184.96163647 40.6308453 191.83525085 40.64832878 C198.29654004 40.66455949 204.75760547 40.65990026 211.21888924 40.64102364 C213.59412134 40.63732344 215.96937521 40.64048754 218.34458733 40.65090942 C221.57944759 40.66402274 224.81330978 40.65265719 228.04812622 40.63491821 C228.99481061 40.64452322 229.94149499 40.65412823 230.91686678 40.66402429 C236.03482977 40.63996516 236.03482977 40.63996516 240.46494293 38.28427219 C242.35092189 35.41660789 242.34722794 33.47986935 242.25430298 30.07121277 C242.24141235 29.02836121 242.22852173 27.98550964 242.21524048 26.91105652 C242.06578017 23.9250913 242.06578017 23.9250913 239.87930298 21.13371277 C237.12783138 20.21655557 235.51278762 20.00703208 232.67945957 20.002285 C231.81903791 19.99844386 230.95861625 19.99460271 230.0721212 19.99064517 C229.12641493 19.99151165 228.18070865 19.99237813 227.2063446 19.99327087 C226.20204971 19.99029975 225.19775482 19.98732863 224.16302675 19.98426747 C220.78206687 19.9755634 217.40114233 19.97407079 214.02017212 19.97257996 C211.60260441 19.96795307 209.18503743 19.96292859 206.76747131 19.95753479 C200.18907862 19.94439818 193.6106933 19.93792713 187.0322907 19.93352413 C182.92607637 19.93076217 178.81986439 19.92652496 174.71365166 19.92201996 C163.34807133 19.90982844 151.98249289 19.8995282 140.61690617 19.89614487 C139.88948541 19.8959253 139.16206465 19.89570573 138.41260084 19.89547952 C137.68342977 19.89526124 136.95425871 19.89504296 136.20299155 19.89481807 C134.72538507 19.8943746 133.24777859 19.89392804 131.77017212 19.89347839 C131.03722663 19.89325696 130.30428114 19.89303553 129.54912519 19.89280739 C117.66651424 19.88885737 105.78396454 19.87139663 93.90137727 19.84811887 C81.7061667 19.82442114 69.5109869 19.81194377 57.31575292 19.81077695 C50.46670949 19.80985941 43.61774591 19.80408718 36.76872444 19.78595734 C30.32965457 19.76897279 23.89069599 19.76729186 17.45160866 19.77609634 C15.08443547 19.77686989 12.71725431 19.7724825 10.35010147 19.76263809 C7.12629914 19.75001411 3.90304274 19.75574335 0.679245 19.76622009 C-0.73596834 19.75413549 -0.73596834 19.75413549 -2.17977184 19.74180675 C-8.3240699 19.65122866 -8.3240699 19.65122866 -13.12069702 23.13371277 Z " fill="#000000" transform="translate(177.12069702148438,225.8662872314453)"/>
<path d="M0 0 C1.06302363 -0.00594224 2.12604726 -0.01188449 3.22128373 -0.0180068 C6.78934402 -0.03537342 10.35727004 -0.03839664 13.92536926 -0.04138184 C16.48128038 -0.05063873 19.03718874 -0.06068812 21.59309387 -0.07147217 C28.54159576 -0.09771938 35.49005346 -0.11068362 42.43859649 -0.11949348 C46.77972065 -0.12502369 51.12083595 -0.1334994 55.46195412 -0.14250183 C67.48813282 -0.16688368 79.51430443 -0.1874827 91.54050732 -0.19425201 C92.30986263 -0.19469115 93.07921794 -0.19513028 93.87188705 -0.19558272 C94.64305338 -0.19601927 95.41421971 -0.19645583 96.20875472 -0.19690561 C97.77135671 -0.19779254 99.33395869 -0.19868566 100.89656067 -0.19958496 C101.67166051 -0.20002782 102.44676036 -0.20047068 103.24534807 -0.20092696 C115.79960956 -0.20881993 128.35363866 -0.24372016 140.90781041 -0.29030401 C153.80598778 -0.33777683 166.70404865 -0.3626578 179.60231477 -0.36498785 C186.84061838 -0.36681887 194.07861921 -0.37826007 201.31683922 -0.41462708 C208.12710614 -0.44872402 214.93670135 -0.45190068 221.74706268 -0.43434906 C224.24395854 -0.43280821 226.74088526 -0.44149538 229.23770332 -0.46126556 C232.6524775 -0.48671442 236.06521926 -0.47494964 239.47998047 -0.45410156 C240.46297896 -0.47021437 241.44597745 -0.48632718 242.45876378 -0.50292826 C249.74782554 -0.39918283 254.80787812 1.80321088 260.55744934 6.28088379 C266.83506662 13.04967879 267.90325885 20.18896434 267.86994934 29.15588379 C267.88606262 30.01568848 267.9021759 30.87549316 267.91877747 31.76135254 C267.92503937 40.01453719 265.9658453 46.55706227 260.30354309 52.74182129 C255.16294381 57.2729088 248.91040895 59.39923659 242.12637901 59.41510487 C241.23979933 59.41956271 240.35321965 59.42402055 239.43977392 59.42861348 C238.46994561 59.42842912 237.50011731 59.42824476 236.50090027 59.42805481 C235.46731593 59.4317315 234.43373159 59.43540819 233.36882651 59.43919629 C229.89442366 59.45023728 226.42005071 59.45407769 222.94563293 59.45788574 C220.45883591 59.46415008 217.97203981 59.47079685 215.48524475 59.47779846 C208.01479401 59.49702757 200.54435121 59.50762703 193.073883 59.51652625 C189.55361972 59.52091211 186.03335795 59.52627816 182.51309586 59.53151512 C170.806928 59.54852592 159.10076107 59.56301923 147.39458275 59.57026386 C144.35788853 59.57217367 141.32119431 59.57409402 138.28450012 59.5760498 C137.15240356 59.57677541 137.15240356 59.57677541 135.99743636 59.57751568 C123.77619787 59.58581281 111.55505736 59.61114501 99.33386163 59.64363048 C86.77924698 59.67672944 74.22468207 59.69471519 61.67002356 59.6979081 C54.62403831 59.70007061 47.57819592 59.70878114 40.53225327 59.73436928 C33.90188866 59.75839295 27.27173456 59.76188416 20.64131927 59.75160789 C18.21054607 59.75111236 15.77976023 59.75743798 13.34902573 59.77116394 C10.02434369 59.78888426 6.70058343 59.78177507 3.37590027 59.76863098 C1.94123431 59.78508485 1.94123431 59.78508485 0.4775852 59.80187112 C-7.18113058 59.72903061 -14.05741473 58.01886138 -20.09880066 53.13244629 C-21.01145691 52.03029785 -21.01145691 52.03029785 -21.94255066 50.90588379 C-22.57161316 50.17627441 -23.20067566 49.44666504 -23.84880066 48.69494629 C-29.50828507 40.12249196 -28.37814312 28.13527983 -27.44255066 18.28088379 C-25.6760565 11.30954075 -21.52976509 6.09828945 -15.44255066 2.28088379 C-10.49319684 -0.37895596 -5.46970396 -0.00953456 0 0 Z M-7.44255066 22.28088379 C-7.83988992 25.53223092 -7.83988992 25.53223092 -7.81755066 29.21838379 C-7.84591003 30.46490723 -7.87426941 31.71143066 -7.90348816 32.99572754 C-7.74761897 36.22041445 -7.74761897 36.22041445 -6.02819061 37.96197605 C-1.99269637 40.02043921 1.92096445 39.69692689 6.3886261 39.66856384 C7.9024754 39.67664215 7.9024754 39.67664215 9.44690752 39.68488365 C12.83869547 39.69922505 16.23009655 39.69204418 19.62190247 39.68493652 C22.0494722 39.69063681 24.47703925 39.69759973 26.90460205 39.70573425 C32.81969099 39.72184853 38.73468188 39.7237589 44.64978111 39.71852135 C49.45658501 39.71448186 54.26335751 39.71592056 59.07015991 39.72126961 C60.09588597 39.72239224 60.09588597 39.72239224 61.14233378 39.72353755 C62.53144372 39.72506901 63.92055366 39.72660735 65.30966359 39.72815252 C78.3390167 39.74188337 91.36830977 39.73643556 104.39766151 39.72496731 C116.32227267 39.71503213 128.24672873 39.7279794 140.17131597 39.7519015 C152.41177241 39.77627255 164.65215655 39.78590543 176.89263678 39.77924877 C183.76626947 39.77575237 190.63978283 39.77801632 197.51339722 39.7954998 C203.97468641 39.81173051 210.43575183 39.80707128 216.8970356 39.78819466 C219.2722677 39.78449446 221.64752157 39.78765856 224.02273369 39.79808044 C227.25759396 39.81119376 230.49145615 39.79982821 233.72627258 39.78208923 C234.67295697 39.79169424 235.61964135 39.80129925 236.59501314 39.81119531 C241.71297613 39.78713618 241.71297613 39.78713618 246.14308929 37.43144321 C248.02906825 34.56377891 248.0253743 32.62704037 247.93244934 29.21838379 C247.91955872 28.17553223 247.90666809 27.13268066 247.89338684 26.05822754 C247.74392654 23.07226232 247.74392654 23.07226232 245.55744934 20.28088379 C243.64088574 19.82988422 243.64088574 19.82988422 241.39698029 19.90615368 C240.0813588 19.89534386 240.0813588 19.89534386 238.73915911 19.88431567 C237.76972101 19.89168995 236.80028291 19.89906424 235.8014679 19.90666199 C234.77619853 19.90268758 233.75092917 19.89871318 232.69459105 19.89461833 C229.23662946 19.88494372 225.77907175 19.89684472 222.32112122 19.90856934 C219.85119473 19.90614308 217.38126922 19.90242538 214.91134644 19.89750671 C208.88566497 19.88905263 202.86014352 19.89463283 196.8344804 19.90676966 C189.82287571 19.92036803 182.81129971 19.91875372 175.79968518 19.91663633 C163.29232026 19.91344404 150.78501223 19.92512785 138.27766418 19.94470215 C126.13083666 19.96370733 113.98407582 19.97079 101.8372345 19.96520996 C88.6219982 19.95915711 75.40679126 19.95932016 62.19155741 19.97069579 C60.78337511 19.97190313 59.3751928 19.97310912 57.9670105 19.97431374 C56.92763008 19.97521904 56.92763008 19.97521904 55.86725208 19.97614264 C50.97548321 19.98002791 46.08372524 19.97962581 41.19195557 19.97772789 C34.61255424 19.97538865 28.03322685 19.98390816 21.45384026 19.99978828 C19.03262119 20.00404671 16.61139342 20.00487131 14.1901722 20.00209808 C10.89782918 19.99889804 7.60574696 20.00790289 4.31343079 20.02018738 C3.34399269 20.01640805 2.37455459 20.01262873 1.37573957 20.00873488 C0.49865859 20.01456708 -0.3784224 20.02039927 -1.2820816 20.0264082 C-2.04271644 20.02727497 -2.80335128 20.02814175 -3.58703566 20.02903479 C-5.68899239 20.12360653 -5.68899239 20.12360653 -7.44255066 22.28088379 Z " fill="#000000" transform="translate(171.4425506591797,332.7191162109375)"/>
<path d="M0 0 C1.2890625 -0.01611328 2.578125 -0.03222656 3.90625 -0.04882812 C12.29312288 -0.0531335 18.87518076 0.13330543 25.5 5.75 C29.44928807 10.51237679 29.95190042 14.18450112 29.99609375 20.296875 C30.00963646 21.45851166 30.00963646 21.45851166 30.02345276 22.64361572 C30.03793813 24.28092598 30.04683775 25.91829391 30.05053711 27.55566406 C30.0623961 30.04072759 30.11156054 32.52327547 30.16210938 35.0078125 C30.31390829 49.87238572 30.31390829 49.87238572 24.625 56.3125 C18.06008587 61.27621556 10.86079421 60.53016171 2.9453125 60.55273438 C0.89541473 60.5624037 -1.1534637 60.5934364 -3.203125 60.625 C-18.60058038 60.6856199 -18.60058038 60.6856199 -23.88134766 55.96630859 C-30.14620127 48.96835759 -29.74758457 41.56230685 -29.74560547 32.70288086 C-29.74996685 30.51661561 -29.78628864 28.3323915 -29.82421875 26.14648438 C-29.88471395 18.65878497 -29.70806368 12.70854805 -25.375 6.3125 C-18.24315148 -0.81934852 -9.42922825 -0.02343248 0 0 Z M-9.375 20.3125 C-9.375 26.9125 -9.375 33.5125 -9.375 40.3125 C-3.105 40.3125 3.165 40.3125 9.625 40.3125 C9.625 33.7125 9.625 27.1125 9.625 20.3125 C3.355 20.3125 -2.915 20.3125 -9.375 20.3125 Z " fill="#000000" transform="translate(102.375,225.6875)"/>
<path d="M0 0 C2.0432675 0.00316032 4.08508474 -0.02033995 6.12817383 -0.0456543 C14.60108494 -0.04984259 20.35950616 0.06134414 26.92700195 5.75317383 C30.98293284 10.50440715 31.43203276 14.17508515 31.45043945 20.33520508 C31.45709625 21.11200119 31.46375305 21.8887973 31.47061157 22.68913269 C31.48072047 24.33065429 31.48542914 25.97221684 31.48510742 27.61376953 C31.48946933 30.10950531 31.52577314 32.60345517 31.5637207 35.09887695 C31.56959176 36.69848032 31.57355922 38.29809204 31.57543945 39.89770508 C31.58981049 40.63648392 31.60418152 41.37526276 31.61898804 42.13642883 C31.57138988 47.60776294 30.19041674 50.78257596 27.11450195 55.31567383 C19.86986814 61.51174222 10.79483213 60.53061856 1.86450195 60.56567383 C0.56641602 60.58629883 -0.73166992 60.60692383 -2.0690918 60.62817383 C-17.10541113 60.689484 -17.10541113 60.689484 -22.39379883 55.96948242 C-28.65380585 48.96695224 -28.25808303 41.56733517 -28.25610352 32.70605469 C-28.2604649 30.51978944 -28.29678669 28.33556532 -28.3347168 26.1496582 C-28.39521199 18.6619588 -28.21856173 12.71172187 -23.88549805 6.31567383 C-17.11063691 -0.45918731 -9.01948743 -0.02920328 0 0 Z M-7.88549805 20.31567383 C-7.88549805 26.91567383 -7.88549805 33.51567383 -7.88549805 40.31567383 C-1.61549805 40.31567383 4.65450195 40.31567383 11.11450195 40.31567383 C11.11450195 33.71567383 11.11450195 27.11567383 11.11450195 20.31567383 C4.84450195 20.31567383 -1.42549805 20.31567383 -7.88549805 20.31567383 Z " fill="#000000" transform="translate(100.885498046875,119.684326171875)"/>
<path d="M0 0 C0.79711899 -0.00241196 1.59423798 -0.00482391 2.41551208 -0.00730896 C4.09045416 -0.00633492 5.76543022 0.00695233 7.44018555 0.03198242 C9.99314356 0.06636652 12.542648 0.05260212 15.09570312 0.03320312 C16.73048337 0.04010085 18.36525475 0.04977257 20 0.0625 C20.75640274 0.05754013 21.51280548 0.05258026 22.29212952 0.04747009 C27.42967324 0.16082874 30.33271346 1.29380922 34.43359375 4.62890625 C38.91425769 9.71506532 39.60694163 12.81491657 39.671875 19.453125 C39.67994675 20.23275101 39.68801849 21.01237701 39.69633484 21.81562805 C39.71017755 23.46910376 39.72089887 25.12260808 39.72875977 26.77612305 C39.7459099 29.28946258 39.78978423 31.80146477 39.83398438 34.31445312 C39.8441172 35.92316744 39.85263146 37.53189291 39.859375 39.140625 C39.87688309 39.88567795 39.89439117 40.6307309 39.91242981 41.39836121 C39.88984815 46.9077028 38.58471141 50.09040127 35.43359375 54.62890625 C28.23981609 60.20775423 21.67960364 59.8769676 12.97485352 59.92407227 C11.49786779 59.93555939 10.0209225 59.95595953 8.54418945 59.9855957 C-6.72571514 60.29184925 -6.72571514 60.29184925 -13.56640625 55.62890625 C-20.31910989 48.69849988 -19.93904937 41.14081233 -19.93701172 32.01928711 C-19.9413731 29.83302186 -19.97769489 27.64879775 -20.015625 25.46289062 C-20.13703194 11.3637533 -20.13703194 11.3637533 -15.56640625 5.62890625 C-10.70827111 1.00891152 -6.57828155 -0.11561336 0 0 Z M0.43359375 20.62890625 C0.43359375 26.89890625 0.43359375 33.16890625 0.43359375 39.62890625 C6.70359375 39.62890625 12.97359375 39.62890625 19.43359375 39.62890625 C19.43359375 33.35890625 19.43359375 27.08890625 19.43359375 20.62890625 C13.16359375 20.62890625 6.89359375 20.62890625 0.43359375 20.62890625 Z " fill="#000000" transform="translate(92.56640625,332.37109375)"/>
</svg>
