<?xml version="1.0" encoding="UTF-8"?>
<svg version="1.1" xmlns="http://www.w3.org/2000/svg" width="512" height="512">
<path d="M0 0 C0.98818222 -0.00852997 1.97636444 -0.01705994 2.99449158 -0.02584839 C4.06733398 -0.02494202 5.14017639 -0.02403564 6.24552917 -0.02310181 C7.38433029 -0.02981903 8.52313141 -0.03653625 9.69644165 -0.04345703 C13.46179059 -0.06245747 17.22696145 -0.06636235 20.99235535 -0.06851196 C23.61163405 -0.07493863 26.23091202 -0.0816669 28.85018921 -0.08868408 C34.34200702 -0.10146482 39.83377663 -0.10445006 45.3256073 -0.10317993 C51.65987811 -0.10197935 57.99380774 -0.12306762 64.32799226 -0.15466726 C70.43570078 -0.18404391 76.54324649 -0.19115405 82.65102196 -0.18996048 C85.24292582 -0.19231844 87.8348323 -0.20115289 90.42669106 -0.21662521 C94.05539231 -0.23625795 97.68321958 -0.23045663 101.31193542 -0.21841431 C102.37870514 -0.22965332 103.44547485 -0.24089233 104.54457092 -0.25247192 C112.07522668 -0.18908455 117.32010241 1.13190338 123.17985535 6.16195679 C129.09258152 13.22557856 131.15957098 17.78867461 131.03923035 27.01351929 C131.03203979 28.06001648 131.03203979 28.06001648 131.02470398 29.12765503 C131.01224096 30.84095381 130.99318634 32.55420243 130.9728241 34.26742554 C131.74550692 34.26373837 132.51818974 34.26005119 133.31428719 34.25625229 C152.11808975 34.16790283 170.92185087 34.1017167 189.72581673 34.06017685 C198.81929606 34.03955437 207.91263683 34.0114398 217.00602722 33.96566772 C224.93212472 33.92579031 232.85812186 33.89999044 240.7843169 33.89107156 C244.98095745 33.88585832 249.1773109 33.87361203 253.37385941 33.84450531 C257.32519972 33.8173218 261.2761351 33.80898638 265.22756004 33.81499481 C266.67636377 33.81389588 268.12518127 33.80595915 269.57390404 33.79060364 C271.55542025 33.77063401 273.53715454 33.77788678 275.51875305 33.78640747 C277.1807458 33.78087671 277.1807458 33.78087671 278.87631416 33.77523422 C283.89083103 34.5722934 286.98904419 37.1507024 290.2853241 40.89242554 C292.55795426 44.09094207 293.10177764 45.74219431 293.14982605 49.60604858 C293.16266129 50.50425827 293.17549652 51.40246796 293.1887207 52.32789612 C293.1998011 53.78876396 293.1998011 53.78876396 293.21110535 55.27914429 C293.21917709 56.28073074 293.22724884 57.2823172 293.23556519 58.31425476 C293.24941377 60.43851995 293.26013245 62.56280747 293.26799011 64.68710327 C293.28516323 67.92459834 293.32903824 71.1610618 293.37321472 74.39828491 C293.38334511 76.46273053 293.39186013 78.52718483 293.39860535 80.59164429 C293.41611343 81.55543503 293.43362152 82.51922577 293.45166016 83.51222229 C293.43202658 89.64590775 292.60173703 93.26994546 288.9728241 98.26742554 C281.75300715 103.86646725 275.75024196 103.35433066 266.9728241 103.26742554 C266.93247008 104.24555741 266.89211607 105.22368929 266.85053921 106.23146152 C266.13359729 122.09094334 264.7565878 137.90009925 263.43432987 153.7177242 C263.08117849 157.94993491 262.731369 162.18242214 262.38108826 166.41487122 C261.6965895 174.67896276 261.0089498 182.94278994 260.32005424 191.20651602 C259.76000202 197.92499387 259.20093366 204.6435529 258.6425457 211.36216927 C256.88401561 232.51999918 255.12210619 253.67754498 253.35760301 274.83487756 C251.96767991 291.50238142 250.58296405 308.1703132 249.20063735 324.83844864 C247.77829112 341.98849101 246.35224595 359.13822226 244.92228645 376.28763157 C244.12069023 385.90197281 243.32057693 395.51643194 242.52440071 405.13122368 C241.8471951 413.30888409 241.16651776 421.48624647 240.48138971 429.6632471 C240.13231276 433.83063657 239.78480986 437.99814089 239.44166374 442.16602325 C239.1270052 445.98738457 238.80769262 449.80832852 238.48480081 453.6290027 C238.31501004 455.65198899 238.15006604 457.67538032 237.98534495 459.69878572 C236.6365007 475.52039497 234.83025948 491.18750424 222.4259491 502.51742554 C215.36285594 507.55606524 206.75634368 512.38166052 197.98322392 512.40443993 C196.94659927 512.40951447 195.90997463 512.41458901 194.84193712 512.41981733 C193.12806918 512.42056396 193.12806918 512.42056396 191.37957764 512.42132568 C189.563085 512.42789906 189.563085 512.42789906 187.70989555 512.43460524 C184.34216033 512.44567581 180.97447158 512.45221957 177.60672486 512.45678639 C173.97664775 512.46274215 170.34658777 512.4743523 166.71652222 512.4850769 C157.94493389 512.50960515 149.1733399 512.52423055 140.40172783 512.53713697 C137.92347142 512.54084919 135.44521557 512.54482242 132.96695971 512.54888964 C117.57299562 512.57413114 102.17903062 512.5961815 86.78505039 512.60861778 C83.21881672 512.61154743 79.65258309 512.6145091 76.08634949 512.61752319 C74.75681103 512.61864227 74.75681103 512.61864227 73.40041321 512.61978395 C59.05296125 512.63242821 44.70563348 512.66563805 30.35823954 512.70732503 C15.62272409 512.74978799 0.88727213 512.77331802 -13.84830433 512.77853835 C-22.11952963 512.78194799 -30.39056101 512.79364989 -38.661726 512.82664108 C-45.70864363 512.85470307 -52.7553276 512.86561419 -59.80229675 512.85444562 C-63.39478872 512.84927417 -66.98679188 512.85204571 -70.57921219 512.87691116 C-74.48336279 512.90370726 -78.38685475 512.89129129 -82.29107666 512.87542725 C-83.4135788 512.88930933 -84.53608093 512.90319142 -85.69259828 512.91749418 C-98.04041469 512.79435383 -108.0428477 507.90107617 -116.8943634 499.49398804 C-128.56833079 487.21878628 -129.09895475 471.26473095 -130.40660095 455.20448303 C-130.53165076 453.71415176 -130.65713486 452.22385687 -130.78301132 450.73359519 C-131.12498748 446.67001709 -131.46082746 442.6059524 -131.79559684 438.54177511 C-132.15870852 434.14682785 -132.52757821 429.75236327 -132.89570618 425.35783386 C-133.61479297 416.76280271 -134.32858709 408.16733995 -135.04054298 399.5717155 C-135.87012798 389.55816808 -136.70485677 379.54505143 -137.53975581 369.53194592 C-139.0291019 351.66766516 -140.51359817 333.80298469 -141.99543762 315.93807983 C-143.43302499 298.60670582 -144.87433396 281.27564646 -146.31965637 263.94491577 C-148.14592056 242.04625114 -149.96886398 220.14731257 -151.78908769 198.24814504 C-152.36927334 191.26911422 -152.95065035 184.29018323 -153.53242874 177.31128502 C-154.24105773 168.80993404 -154.9475314 160.30840707 -155.65129603 151.80665197 C-156.0103655 147.46948409 -156.37034768 143.13239725 -156.73283005 138.79551315 C-157.06462308 134.82543891 -157.39373741 130.85515201 -157.72071646 126.88467846 C-157.83943503 125.44876863 -157.95912561 124.01293875 -158.07988872 122.57719942 C-158.24401102 120.62418694 -158.40421743 118.67084657 -158.56424141 116.71749401 C-158.65429014 115.63306237 -158.74433888 114.54863074 -158.83711636 113.43133754 C-159.04105636 110.03635823 -159.05894404 106.66771058 -159.0271759 103.26742554 C-159.8728009 103.31383179 -160.7184259 103.36023804 -161.5896759 103.40805054 C-168.62769222 103.63198742 -174.27737718 103.65766594 -180.0271759 99.26742554 C-183.79716179 95.30410704 -185.13691439 92.21389303 -185.20417786 86.79940796 C-185.21701309 85.89804611 -185.22984833 84.99668427 -185.24307251 84.06800842 C-185.25045944 83.09612076 -185.25784637 82.12423309 -185.26545715 81.12289429 C-185.2735289 80.1203511 -185.28160065 79.11780792 -185.28991699 78.08488464 C-185.30374953 75.96239955 -185.3144754 73.8398923 -185.32234192 71.71737671 C-185.33955453 68.47776992 -185.38344865 65.23918378 -185.42756653 61.99984741 C-185.43769378 59.93670387 -185.44620978 57.87355166 -185.45295715 55.81039429 C-185.47046524 54.84457932 -185.48797333 53.87876434 -185.50601196 52.88368225 C-185.48760405 47.15273677 -184.91217719 43.78520945 -181.0271759 39.26742554 C-177.22890237 35.92132743 -174.88253369 34.15963646 -169.84040833 34.07455444 C-168.54347298 34.05046005 -168.54347298 34.05046005 -167.22033691 34.02587891 C-163.26427488 33.98141945 -159.30838052 33.94036374 -155.35212708 33.91732788 C-153.26575059 33.90076805 -151.17943084 33.87347776 -149.09333801 33.83529663 C-146.08530751 33.7805229 -143.07860673 33.75865312 -140.07014465 33.74398804 C-139.1397789 33.72131866 -138.20941315 33.69864929 -137.25085449 33.67529297 C-132.67356397 33.69021774 -130.66298427 33.79068093 -126.89949036 36.61264038 C-125.0271759 39.26742554 -125.0271759 39.26742554 -125.0271759 42.26742554 C-122.41956744 42.23441784 -119.82054745 42.16731074 -117.2146759 42.07992554 C-116.47668762 42.07412476 -115.73869934 42.06832397 -114.97834778 42.06234741 C-112.53152928 42.01426039 -112.53152928 42.01426039 -109.0271759 41.26742554 C-107.05678635 38.94277818 -107.05678635 38.94277818 -106.0271759 36.26742554 C-103.52699178 33.76724142 -102.04860293 34.03228827 -98.63796997 34.01858521 C-97.51264107 34.02937103 -97.51264107 34.02937103 -96.36457825 34.04037476 C-95.17908134 34.03993668 -95.17908134 34.03993668 -93.96963501 34.03948975 C-91.35068377 34.04088592 -88.7320151 34.05646048 -86.1131134 34.07211304 C-84.29993343 34.07584215 -82.48675144 34.0786896 -80.67356873 34.08068848 C-75.89609739 34.08833296 -71.11874723 34.10798842 -66.34132385 34.13009644 C-61.46839538 34.15053734 -56.59544737 34.15968643 -51.7224884 34.16976929 C-42.15733093 34.19123357 -32.59226348 34.22537931 -23.0271759 34.26742554 C-23.05037903 33.24842163 -23.07358215 32.22941772 -23.0974884 31.17953491 C-23.11625813 29.82342249 -23.13445703 28.46730209 -23.1521759 27.11117554 C-23.16893372 26.44182983 -23.18569153 25.77248413 -23.20295715 25.08285522 C-23.2753321 17.68251736 -21.06948475 12.55508187 -16.0896759 7.17367554 C-11.18150864 2.63733913 -6.82699032 0.02675709 0 0 Z " fill="#91C861" transform="translate(202.0271759033203,-0.267425537109375)"/>
<path d="M0 0 C0.98818222 -0.00852997 1.97636444 -0.01705994 2.99449158 -0.02584839 C4.06733398 -0.02494202 5.14017639 -0.02403564 6.24552917 -0.02310181 C7.38433029 -0.02981903 8.52313141 -0.03653625 9.69644165 -0.04345703 C13.46179059 -0.06245747 17.22696145 -0.06636235 20.99235535 -0.06851196 C23.61163405 -0.07493863 26.23091202 -0.0816669 28.85018921 -0.08868408 C34.34200702 -0.10146482 39.83377663 -0.10445006 45.3256073 -0.10317993 C51.65987811 -0.10197935 57.99380774 -0.12306762 64.32799226 -0.15466726 C70.43570078 -0.18404391 76.54324649 -0.19115405 82.65102196 -0.18996048 C85.24292582 -0.19231844 87.8348323 -0.20115289 90.42669106 -0.21662521 C94.05539231 -0.23625795 97.68321958 -0.23045663 101.31193542 -0.21841431 C102.37870514 -0.22965332 103.44547485 -0.24089233 104.54457092 -0.25247192 C112.07522668 -0.18908455 117.32010241 1.13190338 123.17985535 6.16195679 C129.09258152 13.22557856 131.15957098 17.78867461 131.03923035 27.01351929 C131.03203979 28.06001648 131.03203979 28.06001648 131.02470398 29.12765503 C131.01224096 30.84095381 130.99318634 32.55420243 130.9728241 34.26742554 C131.74550692 34.26373837 132.51818974 34.26005119 133.31428719 34.25625229 C152.11808975 34.16790283 170.92185087 34.1017167 189.72581673 34.06017685 C198.81929606 34.03955437 207.91263683 34.0114398 217.00602722 33.96566772 C224.93212472 33.92579031 232.85812186 33.89999044 240.7843169 33.89107156 C244.98095745 33.88585832 249.1773109 33.87361203 253.37385941 33.84450531 C257.32519972 33.8173218 261.2761351 33.80898638 265.22756004 33.81499481 C266.67636377 33.81389588 268.12518127 33.80595915 269.57390404 33.79060364 C271.55542025 33.77063401 273.53715454 33.77788678 275.51875305 33.78640747 C277.1807458 33.78087671 277.1807458 33.78087671 278.87631416 33.77523422 C283.89083103 34.5722934 286.98904419 37.1507024 290.2853241 40.89242554 C292.55795426 44.09094207 293.10177764 45.74219431 293.14982605 49.60604858 C293.16266129 50.50425827 293.17549652 51.40246796 293.1887207 52.32789612 C293.1998011 53.78876396 293.1998011 53.78876396 293.21110535 55.27914429 C293.21917709 56.28073074 293.22724884 57.2823172 293.23556519 58.31425476 C293.24941377 60.43851995 293.26013245 62.56280747 293.26799011 64.68710327 C293.28516323 67.92459834 293.32903824 71.1610618 293.37321472 74.39828491 C293.38334511 76.46273053 293.39186013 78.52718483 293.39860535 80.59164429 C293.41611343 81.55543503 293.43362152 82.51922577 293.45166016 83.51222229 C293.43202658 89.64590775 292.60173703 93.26994546 288.9728241 98.26742554 C281.75300715 103.86646725 275.75024196 103.35433066 266.9728241 103.26742554 C266.93247008 104.24555741 266.89211607 105.22368929 266.85053921 106.23146152 C266.13359729 122.09094334 264.7565878 137.90009925 263.43432987 153.7177242 C263.08117849 157.94993491 262.731369 162.18242214 262.38108826 166.41487122 C261.6965895 174.67896276 261.0089498 182.94278994 260.32005424 191.20651602 C259.76000202 197.92499387 259.20093366 204.6435529 258.6425457 211.36216927 C256.88401561 232.51999918 255.12210619 253.67754498 253.35760301 274.83487756 C251.96767991 291.50238142 250.58296405 308.1703132 249.20063735 324.83844864 C247.77829112 341.98849101 246.35224595 359.13822226 244.92228645 376.28763157 C244.12069023 385.90197281 243.32057693 395.51643194 242.52440071 405.13122368 C241.8471951 413.30888409 241.16651776 421.48624647 240.48138971 429.6632471 C240.13231276 433.83063657 239.78480986 437.99814089 239.44166374 442.16602325 C239.1270052 445.98738457 238.80769262 449.80832852 238.48480081 453.6290027 C238.31501004 455.65198899 238.15006604 457.67538032 237.98534495 459.69878572 C236.6365007 475.52039497 234.83025948 491.18750424 222.4259491 502.51742554 C215.36285594 507.55606524 206.75634368 512.38166052 197.98322392 512.40443993 C196.94659927 512.40951447 195.90997463 512.41458901 194.84193712 512.41981733 C193.12806918 512.42056396 193.12806918 512.42056396 191.37957764 512.42132568 C189.563085 512.42789906 189.563085 512.42789906 187.70989555 512.43460524 C184.34216033 512.44567581 180.97447158 512.45221957 177.60672486 512.45678639 C173.97664775 512.46274215 170.34658777 512.4743523 166.71652222 512.4850769 C157.94493389 512.50960515 149.1733399 512.52423055 140.40172783 512.53713697 C137.92347142 512.54084919 135.44521557 512.54482242 132.96695971 512.54888964 C117.57299562 512.57413114 102.17903062 512.5961815 86.78505039 512.60861778 C83.21881672 512.61154743 79.65258309 512.6145091 76.08634949 512.61752319 C74.75681103 512.61864227 74.75681103 512.61864227 73.40041321 512.61978395 C59.05296125 512.63242821 44.70563348 512.66563805 30.35823954 512.70732503 C15.62272409 512.74978799 0.88727213 512.77331802 -13.84830433 512.77853835 C-22.11952963 512.78194799 -30.39056101 512.79364989 -38.661726 512.82664108 C-45.70864363 512.85470307 -52.7553276 512.86561419 -59.80229675 512.85444562 C-63.39478872 512.84927417 -66.98679188 512.85204571 -70.57921219 512.87691116 C-74.48336279 512.90370726 -78.38685475 512.89129129 -82.29107666 512.87542725 C-83.4135788 512.88930933 -84.53608093 512.90319142 -85.69259828 512.91749418 C-98.04041469 512.79435383 -108.0428477 507.90107617 -116.8943634 499.49398804 C-128.56833079 487.21878628 -129.09895475 471.26473095 -130.40660095 455.20448303 C-130.53165076 453.71415176 -130.65713486 452.22385687 -130.78301132 450.73359519 C-131.12498748 446.67001709 -131.46082746 442.6059524 -131.79559684 438.54177511 C-132.15870852 434.14682785 -132.52757821 429.75236327 -132.89570618 425.35783386 C-133.61479297 416.76280271 -134.32858709 408.16733995 -135.04054298 399.5717155 C-135.87012798 389.55816808 -136.70485677 379.54505143 -137.53975581 369.53194592 C-139.0291019 351.66766516 -140.51359817 333.80298469 -141.99543762 315.93807983 C-143.43302499 298.60670582 -144.87433396 281.27564646 -146.31965637 263.94491577 C-148.14592056 242.04625114 -149.96886398 220.14731257 -151.78908769 198.24814504 C-152.36927334 191.26911422 -152.95065035 184.29018323 -153.53242874 177.31128502 C-154.24105773 168.80993404 -154.9475314 160.30840707 -155.65129603 151.80665197 C-156.0103655 147.46948409 -156.37034768 143.13239725 -156.73283005 138.79551315 C-157.06462308 134.82543891 -157.39373741 130.85515201 -157.72071646 126.88467846 C-157.83943503 125.44876863 -157.95912561 124.01293875 -158.07988872 122.57719942 C-158.24401102 120.62418694 -158.40421743 118.67084657 -158.56424141 116.71749401 C-158.65429014 115.63306237 -158.74433888 114.54863074 -158.83711636 113.43133754 C-159.04105636 110.03635823 -159.05894404 106.66771058 -159.0271759 103.26742554 C-159.8728009 103.31383179 -160.7184259 103.36023804 -161.5896759 103.40805054 C-168.62769222 103.63198742 -174.27737718 103.65766594 -180.0271759 99.26742554 C-183.79716179 95.30410704 -185.13691439 92.21389303 -185.20417786 86.79940796 C-185.21701309 85.89804611 -185.22984833 84.99668427 -185.24307251 84.06800842 C-185.25045944 83.09612076 -185.25784637 82.12423309 -185.26545715 81.12289429 C-185.2735289 80.1203511 -185.28160065 79.11780792 -185.28991699 78.08488464 C-185.30374953 75.96239955 -185.3144754 73.8398923 -185.32234192 71.71737671 C-185.33955453 68.47776992 -185.38344865 65.23918378 -185.42756653 61.99984741 C-185.43769378 59.93670387 -185.44620978 57.87355166 -185.45295715 55.81039429 C-185.47046524 54.84457932 -185.48797333 53.87876434 -185.50601196 52.88368225 C-185.48760405 47.15273677 -184.91217719 43.78520945 -181.0271759 39.26742554 C-177.22890237 35.92132743 -174.88253369 34.15963646 -169.84040833 34.07455444 C-168.54347298 34.05046005 -168.54347298 34.05046005 -167.22033691 34.02587891 C-163.26427488 33.98141945 -159.30838052 33.94036374 -155.35212708 33.91732788 C-153.26575059 33.90076805 -151.17943084 33.87347776 -149.09333801 33.83529663 C-146.08530751 33.7805229 -143.07860673 33.75865312 -140.07014465 33.74398804 C-139.1397789 33.72131866 -138.20941315 33.69864929 -137.25085449 33.67529297 C-132.67356397 33.69021774 -130.66298427 33.79068093 -126.89949036 36.61264038 C-125.0271759 39.26742554 -125.0271759 39.26742554 -125.0271759 42.26742554 C-122.41956744 42.23441784 -119.82054745 42.16731074 -117.2146759 42.07992554 C-116.47668762 42.07412476 -115.73869934 42.06832397 -114.97834778 42.06234741 C-112.53152928 42.01426039 -112.53152928 42.01426039 -109.0271759 41.26742554 C-107.05678635 38.94277818 -107.05678635 38.94277818 -106.0271759 36.26742554 C-103.52699178 33.76724142 -102.04860293 34.03228827 -98.63796997 34.01858521 C-97.51264107 34.02937103 -97.51264107 34.02937103 -96.36457825 34.04037476 C-95.17908134 34.03993668 -95.17908134 34.03993668 -93.96963501 34.03948975 C-91.35068377 34.04088592 -88.7320151 34.05646048 -86.1131134 34.07211304 C-84.29993343 34.07584215 -82.48675144 34.0786896 -80.67356873 34.08068848 C-75.89609739 34.08833296 -71.11874723 34.10798842 -66.34132385 34.13009644 C-61.46839538 34.15053734 -56.59544737 34.15968643 -51.7224884 34.16976929 C-42.15733093 34.19123357 -32.59226348 34.22537931 -23.0271759 34.26742554 C-23.05037903 33.24842163 -23.07358215 32.22941772 -23.0974884 31.17953491 C-23.11625813 29.82342249 -23.13445703 28.46730209 -23.1521759 27.11117554 C-23.16893372 26.44182983 -23.18569153 25.77248413 -23.20295715 25.08285522 C-23.2753321 17.68251736 -21.06948475 12.55508187 -16.0896759 7.17367554 C-11.18150864 2.63733913 -6.82699032 0.02675709 0 0 Z M-142.0271759 102.26742554 C-141.0371759 114.14742554 -140.0471759 126.02742554 -139.0271759 138.26742554 C-137.49198553 156.75745933 -137.49198553 156.75745933 -136.962677 163.14138794 C-136.84423337 164.56978624 -136.72578757 165.99818437 -136.60733986 167.42658234 C-136.54737772 168.14969435 -136.48741558 168.87280637 -136.42563641 169.61783087 C-135.8246139 176.86532781 -135.22331803 184.11280208 -134.62200928 191.36027527 C-134.55245891 192.19856332 -134.48290853 193.03685137 -134.41125058 193.9005421 C-133.31159899 207.15411512 -132.2108881 220.40759995 -131.10946655 233.661026 C-131.03426255 234.56595914 -130.95905855 235.47089228 -130.88157564 236.40324763 C-130.10760189 245.71628607 -129.33348767 255.02931282 -128.55923304 264.34232791 C-128.16448499 269.09055139 -127.76977032 273.83877764 -127.37507629 278.58700562 C-127.29655082 279.53167209 -127.21802535 280.47633856 -127.13712031 281.4496313 C-125.8594602 296.82090474 -124.58443049 312.19239534 -123.31032895 327.56396411 C-121.99539884 343.42739092 -120.67762462 359.29057965 -119.35723168 375.15355271 C-118.54619549 384.89827875 -117.73734426 394.64318093 -116.93137146 404.38832708 C-116.3798269 411.05456291 -115.82551196 417.72056481 -115.2690547 424.38639233 C-114.94892787 428.22217702 -114.62998057 432.05804964 -114.31434822 435.894207 C-113.97115014 440.06500556 -113.62208371 444.23529332 -113.27252197 448.40556335 C-113.17533841 449.59798167 -113.07815485 450.79039999 -112.97802633 452.01895219 C-111.91464966 473.58572409 -111.91464966 473.58572409 -100.32014465 490.72445679 C-93.35345733 495.41243207 -87.50295516 495.70013865 -79.28112793 495.65510559 C-77.51252001 495.6631839 -77.51252001 495.6631839 -75.70818263 495.6714254 C-72.4481407 495.68323223 -69.18842772 495.68164511 -65.92838299 495.67425859 C-62.40746715 495.66952144 -58.88660571 495.68204169 -55.3657074 495.692276 C-48.47244465 495.70945956 -41.57927307 495.71030482 -34.68599447 495.7050631 C-29.0812604 495.70101878 -23.47655324 495.70246806 -17.87182045 495.70781136 C-17.07357671 495.70855978 -16.27533297 495.7093082 -15.45290003 495.7100793 C-13.83115507 495.71161081 -12.20941012 495.71314916 -10.58766518 495.71469427 C4.61651217 495.72841809 19.82063804 495.7229828 35.02481421 495.71150906 C48.92392992 495.70158018 62.82291244 495.71451155 76.72200761 495.73844325 C91.00338808 495.7628473 105.28470655 495.7724387 119.56610745 495.76579052 C127.58006391 495.76230077 135.59391799 495.76451407 143.60785866 495.78204155 C150.4311225 495.79678003 157.25421189 495.79737774 164.07747237 495.77997064 C167.55625187 495.77147106 171.03471997 495.76928503 174.51348305 495.78462219 C178.29122347 495.79782055 182.06812085 495.78629289 185.8458252 495.76863098 C186.936406 495.77823599 188.02698681 495.78784099 189.15061551 495.79773706 C197.17538433 495.72069725 204.12355215 494.21604816 210.59391785 489.25961304 C211.19333191 488.56094116 211.79274597 487.86226929 212.4103241 487.14242554 C213.02778503 486.45922241 213.64524597 485.77601929 214.28141785 485.07211304 C218.83251885 477.52548366 219.56863085 468.84721977 220.23698425 460.23275757 C220.33726299 459.05271086 220.43754173 457.87266415 220.54085922 456.65685844 C220.81628026 453.39035688 221.08207179 450.12323818 221.34381437 446.85561752 C221.63268679 443.27998654 221.93425138 439.70542193 222.23420715 436.13070679 C222.75824754 429.86517496 223.27444027 423.59903578 223.78544617 417.33242798 C224.53498431 408.14155706 225.29668433 398.95172495 226.06144428 389.76210952 C227.28145336 375.0997264 228.4939582 360.43673411 229.70198727 345.77335954 C231.87635571 319.38295089 234.07605655 292.99467622 236.27985525 266.60671091 C237.06033989 257.26101015 237.84052149 247.91528409 238.62074161 238.56956124 C238.8145962 236.24753582 239.00845799 233.925511 239.20232701 231.60348678 C241.34389291 205.95278039 243.47940992 180.30157158 245.6134491 154.65023804 C245.7382681 153.1499449 245.7382681 153.1499449 245.86560869 151.6193428 C246.5484955 143.41119783 247.23137641 135.20305236 247.91405678 126.99489021 C248.01082681 125.8314224 248.01082681 125.8314224 248.10955179 124.64445019 C248.27990754 122.59622516 248.45025135 120.54799914 248.62059402 118.49977303 C249.07090042 113.08895415 249.52192663 107.67819519 249.9728241 102.26742554 C120.6128241 102.26742554 -8.7471759 102.26742554 -142.0271759 102.26742554 Z " fill="#1B1C1B" transform="translate(202.0271759033203,-0.267425537109375)"/>
<path d="M0 0 C5.61 0 11.22 0 17 0 C17.99 2.31 18.98 4.62 20 7 C22.78229491 8.39114745 25.05018076 8.13146906 28.16507912 8.1386652 C28.80728043 8.14150742 29.44948175 8.14434964 30.11114371 8.14727798 C32.2837134 8.15566331 34.45623003 8.15689618 36.6288147 8.15821838 C38.19384144 8.16278113 39.75886697 8.16778072 41.32389104 8.17318195 C45.64056614 8.18680526 49.95723334 8.1941935 54.27392435 8.20060861 C58.92288552 8.2085942 63.57183013 8.22229828 68.22077942 8.23532104 C76.28075265 8.25710999 84.34072753 8.27524561 92.40071487 8.29092598 C104.05421921 8.31360263 115.70770523 8.34174848 127.36119406 8.37124526 C146.26650411 8.41894826 165.17182164 8.46220508 184.07714844 8.50268555 C202.44596946 8.54202671 220.81478383 8.58344961 239.18359375 8.62768555 C240.31513963 8.63040982 241.4466855 8.63313409 242.61252065 8.63594092 C248.28894247 8.64962017 253.96536419 8.66334049 259.64178586 8.67708123 C306.76117687 8.79108853 353.88058242 8.89761541 401 9 C401 20.22 401 31.44 401 43 C254.48 43 107.96 43 -43 43 C-43 31.78 -43 20.56 -43 9 C-40.38707031 8.98582031 -37.77414063 8.97164062 -35.08203125 8.95703125 C-32.54340814 8.92639209 -30.00504524 8.88730844 -27.46655273 8.84741211 C-25.70623009 8.82425636 -23.94576939 8.80984206 -22.18530273 8.80444336 C-19.65000621 8.79513558 -17.11687372 8.75410952 -14.58203125 8.70703125 C-13.79850784 8.7109639 -13.01498444 8.71489655 -12.2077179 8.71894836 C-8.01631309 8.6077473 -6.42927928 8.34018823 -3.02612305 5.64331055 C-0.85490283 3.10830013 -0.85490283 3.10830013 0 0 Z " fill="#9DDB6D" transform="translate(77,42)"/>
<path d="M0 0 C4.24658183 2.8953967 6.38670304 6.17646554 7.46362305 11.21142578 C7.61118042 12.99782471 7.61118042 12.99782471 7.76171875 14.8203125 C7.82027542 15.47144012 7.87883209 16.12256775 7.93916321 16.79342651 C8.12137379 18.86128103 8.27986346 20.93014261 8.4375 23 C8.55376698 24.36471813 8.67159395 25.7293043 8.79101562 27.09375 C9.13031308 31.01931967 9.43997561 34.94700875 9.75 38.875 C10.01348351 41.99497932 10.27947679 45.11472917 10.546875 48.234375 C11.47588832 60.31154822 11.47588832 60.31154822 9.125 65.375 C5.9237805 68.74470473 3.2292805 70.75617199 -1.54223633 70.98486328 C-2.73755981 70.96528564 -2.73755981 70.96528564 -3.95703125 70.9453125 C-4.76245361 70.93516113 -5.56787598 70.92500977 -6.39770508 70.91455078 C-7.0089624 70.90149902 -7.62021973 70.88844727 -8.25 70.875 C-8.6939209 71.73778564 -9.1378418 72.60057129 -9.59521484 73.48950195 C-11.24461632 76.69404612 -12.89636806 79.89737391 -14.54882812 83.1003418 C-15.2633363 84.48607919 -15.97720894 85.87214447 -16.69042969 87.25854492 C-17.71642328 89.25265921 -18.74470579 91.24557843 -19.7734375 93.23828125 C-20.09122162 93.85713699 -20.40900574 94.47599274 -20.73641968 95.11360168 C-22.13084335 97.80979154 -23.56344996 100.34517493 -25.25 102.875 C-24.57063385 102.87642502 -23.8912677 102.87785004 -23.1913147 102.87931824 C-16.08498372 102.89908916 -8.97950317 102.95352174 -1.87353516 103.02758789 C0.77418912 103.05070577 3.42200454 103.06514891 6.06982422 103.07055664 C9.88826903 103.07989094 13.70529231 103.12098471 17.5234375 103.16796875 C18.69675629 103.1640361 19.87007507 103.16010345 21.07894897 103.15605164 C29.59909536 103.30542779 36.49567997 104.95131419 42.89144897 110.85002136 C48.01954418 116.27485128 50.83757337 121.65807031 51.25 129.1875 C50.95915718 137.68011048 47.43095473 143.63894869 41.3125 149.375 C36.16077342 153.87239279 31.13178146 155.12108149 24.3684082 155.1496582 C23.12303787 155.15919022 21.87766754 155.16872223 20.59455872 155.17854309 C19.2466326 155.17828152 17.89870648 155.17734377 16.55078125 155.17578125 C15.15081151 155.17967491 13.75084293 155.18401095 12.35087585 155.18876648 C9.41983205 155.19621124 6.48890871 155.19595154 3.55786133 155.19067383 C-0.1695323 155.18490183 -3.89642533 155.20176307 -7.62373638 155.2250185 C-10.51596384 155.23987024 -13.40807418 155.24061181 -16.30033302 155.23750877 C-17.67283934 155.23801694 -19.0453531 155.24315815 -20.41782188 155.25332069 C-36.51038206 155.35780748 -51.27904593 151.51013921 -63.21875 140.1328125 C-72.55695357 129.75304007 -77.30515732 117.1683716 -77.5625 103.3125 C-77.59988281 102.01183594 -77.63726562 100.71117187 -77.67578125 99.37109375 C-77.1636033 88.90375613 -71.7231966 79.34422109 -66.875 70.3125 C-66.32328125 69.26642578 -65.7715625 68.22035156 -65.203125 67.14257812 C-60.74818173 58.7189706 -60.74818173 58.7189706 -58.42871094 54.78955078 C-57.8618457 53.81872559 -57.29498047 52.84790039 -56.7109375 51.84765625 C-56.19063965 50.985354 -55.6703418 50.12305176 -55.13427734 49.23461914 C-53.97880314 46.91224831 -53.97880314 46.91224831 -54.99853516 44.69311523 C-55.90449486 43.37694631 -56.84763752 42.08611848 -57.8125 40.8125 C-60.63067321 37.01409263 -60.63888653 33.46386109 -60.25 28.875 C-57.63133334 24.09923721 -55.13849562 21.80924652 -50.33203125 19.32421875 C-48.5855127 18.40588257 -48.5855127 18.40588257 -46.80371094 17.46899414 C-45.55696181 16.83286621 -44.30988524 16.19737966 -43.0625 15.5625 C-41.79003632 14.90287099 -40.51822861 14.24197508 -39.24707031 13.57983398 C-37.34991466 12.59256099 -35.45200307 11.60701774 -33.55050659 10.62812805 C-29.9637173 8.78050395 -26.41687122 6.87986478 -22.90234375 4.8984375 C-21.76285278 4.2628894 -21.76285278 4.2628894 -20.6003418 3.61450195 C-19.25264416 2.85927118 -17.91099968 2.09307505 -16.57739258 1.31323242 C-10.93681488 -1.79018743 -6.10470615 -2.11316751 0 0 Z " fill="#1C1D1C" transform="translate(188.25,263.125)"/>
<path d="M0 0 C10.47122853 7.79879621 16.47633866 18.35633143 22.3125 29.8125 C22.83650391 30.82248047 23.36050781 31.83246094 23.90039062 32.87304688 C26.12843528 37.19505412 28.24978247 41.4592116 30 46 C30.99 45.67 31.98 45.34 33 45 C37.17440945 44.5935032 40.86568997 44.57148288 44.8125 46.0625 C48.81466099 49.60727116 50.86449674 53.27471906 51.27734375 58.53125 C51.10912109 60.49578125 51.10912109 60.49578125 50.9375 62.5 C50.87876709 63.23903564 50.82003418 63.97807129 50.75952148 64.73950195 C50.61640506 66.46355162 50.46085623 68.18659429 50.29589844 69.90869141 C50.01356132 72.85832223 49.75406665 75.80942135 49.4995575 78.76156616 C49.19747042 82.23781774 48.88032708 85.71265818 48.5625 89.1875 C48.47088089 90.2079541 48.47088089 90.2079541 48.37741089 91.24902344 C48.19773549 93.22268587 48.00721296 95.19535134 47.81640625 97.16796875 C47.70756104 98.31547607 47.59871582 99.4629834 47.48657227 100.64526367 C46.19473009 109.55203908 46.19473009 109.55203908 43.5625 112.7421875 C38.50421213 116.4094462 35.29758076 117.72027848 29 117 C26.34458669 115.94702185 24.09898288 114.91241749 21.640625 113.52734375 C20.97013123 113.1666127 20.29963745 112.80588165 19.60882568 112.43421936 C17.4804233 111.28402695 15.3655126 110.11119801 13.25 108.9375 C11.84715889 108.17624954 10.44351765 107.41647166 9.0390625 106.65820312 C5.00690707 104.47253499 1.00003699 102.24379414 -3 100 C-3.59852783 99.66655579 -4.19705566 99.33311157 -4.8137207 98.98956299 C-6.46879317 98.06474147 -8.11738955 97.12835855 -9.765625 96.19140625 C-10.68633789 95.66877197 -11.60705078 95.1461377 -12.55566406 94.60766602 C-16.23358329 92.18865901 -18.59348111 90.21955667 -20 86 C-20.5252919 79.59143885 -19.69484672 77.36348718 -16 72 C-16.35871355 68.06976505 -17.83523824 65.0167809 -19.65234375 61.55078125 C-20.18150391 60.53822266 -20.71066406 59.52566406 -21.25585938 58.48242188 C-21.81080078 57.43634766 -22.36574219 56.39027344 -22.9375 55.3125 C-23.48857422 54.25482422 -24.03964844 53.19714844 -24.60742188 52.10742188 C-27.29858485 46.6938579 -27.29858485 46.6938579 -31 42 C-33.51675613 41.9976649 -33.51675613 41.9976649 -36 43 C-37.60006867 44.81338337 -37.60006867 44.81338337 -38.7265625 47.20703125 C-39.19553955 48.09455078 -39.6645166 48.98207031 -40.14770508 49.89648438 C-40.6352124 50.85876953 -41.12271973 51.82105469 -41.625 52.8125 C-42.68346124 54.81908032 -43.74205806 56.82558913 -44.80078125 58.83203125 C-45.86813879 60.88752713 -46.93455817 62.94351047 -48 65 C-49.91668024 68.67812113 -51.85718539 72.34230219 -53.8125 76 C-54.23160645 76.81702393 -54.65071289 77.63404785 -55.08251953 78.47583008 C-58.64662173 85.14093796 -63.57182333 90.80347791 -70.86328125 93.5234375 C-79.00704762 95.33978027 -86.59853535 94.73404451 -93.84375 90.546875 C-100.70142759 85.62723673 -104.02211453 79.59149895 -105.45703125 71.38671875 C-106.16265433 62.54849068 -102.66001882 56.20052776 -98.5078125 48.75390625 C-96.68009371 45.4157152 -94.93435411 42.03712037 -93.1875 38.65625 C-92.14281536 36.64850057 -91.0961397 34.6418065 -90.04833984 32.63568115 C-89.35855559 31.31269776 -88.67130849 29.98838791 -87.98681641 28.66265869 C-79.05880388 11.42602816 -68.63523193 -1.01734746 -50 -8 C-33.00322029 -13.32656367 -14.69640553 -9.81274682 0 0 Z " fill="#1D1E1D" transform="translate(289,155)"/>
<path d="M0 0 C7.09821833 5.51317928 11.17521331 12.55920611 15.1015625 20.5 C16.13727712 22.54270524 17.17509524 24.58434508 18.21484375 26.625 C18.74029785 27.66011719 19.26575195 28.69523437 19.80712891 29.76171875 C22.37058529 34.72817209 25.08301157 39.61026739 27.7890625 44.5 C37.29556466 61.79631983 45.14611051 78.12822558 40.296875 98.37890625 C35.63233129 111.56759399 27.55269658 121.9554735 15.4140625 128.875 C6.23933247 133.09690312 -1.93241996 135.01464115 -12.05078125 134.97265625 C-13.06804039 134.97053383 -13.06804039 134.97053383 -14.10585022 134.96836853 C-16.24509328 134.96282745 -18.38422675 134.95028653 -20.5234375 134.9375 C-21.98502452 134.93247736 -23.44661319 134.9279158 -24.90820312 134.92382812 C-28.46748276 134.91287745 -32.02669941 134.89565445 -35.5859375 134.875 C-35.77929688 136.27492188 -35.77929688 136.27492188 -35.9765625 137.703125 C-36.70762942 141.50842203 -37.86162386 143.15068636 -40.5859375 145.875 C-44.5819686 148.14301765 -48.04980971 148.21520958 -52.5859375 147.875 C-55.04365367 146.70765984 -57.04634525 145.57114622 -59.2734375 144.0625 C-59.9233667 143.63743164 -60.5732959 143.21236328 -61.24291992 142.77441406 C-62.77231649 141.76749706 -64.29602182 140.75190779 -65.81542969 139.72998047 C-68.48362364 137.94350376 -71.16796108 136.18444411 -73.85716248 134.42988586 C-76.40635328 132.76195568 -78.94584662 131.07966154 -81.48330688 129.39395142 C-82.75452804 128.55164966 -84.02842321 127.713369 -85.30502319 126.87924194 C-87.12291138 125.6881954 -88.92768226 124.47937144 -90.73046875 123.265625 C-91.78596924 122.56469727 -92.84146973 121.86376953 -93.92895508 121.14160156 C-97.35147907 118.2219367 -99.11899585 115.16343477 -100.01953125 110.75 C-100.02146484 109.821875 -100.02146484 109.821875 -100.0234375 108.875 C-100.05244141 107.946875 -100.05244141 107.946875 -100.08203125 107 C-98.35947527 99.62149249 -92.26320376 96.23468823 -86.296875 92.41796875 C-85.3972403 91.8295369 -84.49760559 91.24110504 -83.57070923 90.63484192 C-80.70787346 88.76623227 -77.834622 86.9143712 -74.9609375 85.0625 C-73.02014205 83.79858691 -71.08002986 82.53362397 -69.140625 81.26757812 C-65.60219746 78.96268484 -62.06175811 76.66107282 -58.51318359 74.37182617 C-57.80132904 73.91249191 -57.08947449 73.45315765 -56.35604858 72.97990417 C-52.5900374 70.62915821 -50.05967959 70.50829983 -45.5859375 70.875 C-41.84541269 72.28247764 -39.11979213 74.18615532 -36.6484375 77.375 C-35.5859375 79.875 -35.5859375 79.875 -35.5859375 83.875 C-23.2109375 83.38 -23.2109375 83.38 -10.5859375 82.875 C-13.00068203 78.28801733 -15.416959 73.70190329 -17.83691406 69.11767578 C-18.65613431 67.5647442 -19.47452272 66.01137344 -20.29199219 64.45751953 C-25.00960058 55.49174535 -29.8065652 46.61050807 -34.97460938 37.89501953 C-39.18449116 30.0046805 -40.17490968 21.16049123 -37.96875 12.43359375 C-35.09640999 5.93905505 -29.50843559 1.98191723 -23.8984375 -2.0625 C-15.62545216 -4.71609907 -7.67706269 -3.90634992 0 0 Z " fill="#1D1D1C" transform="translate(359.5859375,283.125)"/>
<path d="M0 0 C1.21312497 10.35488814 2.37534623 20.55286325 2 31 C0.046875 31.09765625 -1.90625 31.1953125 -3.859375 31.29296875 C-9.09193305 33.02124066 -11.49795096 39.48205326 -13.8984375 44.1015625 C-14.25588043 44.77867279 -14.61332336 45.45578308 -14.9815979 46.15341187 C-16.11773708 48.30801767 -17.24659587 50.46633487 -18.375 52.625 C-19.49454663 54.75514084 -20.61559192 56.88448543 -21.73721313 59.01353455 C-22.46615171 60.39881748 -23.19336313 61.7850107 -23.91879272 63.1721344 C-26.48089293 68.06170876 -29.15495906 72.87777964 -31.9296875 77.65063477 C-33.78993991 81.73393972 -33.89551616 85.64488297 -33 90 C-30.50665497 94.98669007 -27.00649051 98.49675474 -22 101 C-20.14748936 101.09941349 -18.29144487 101.13557024 -16.4362793 101.1418457 C-14.68887703 101.15239738 -14.68887703 101.15239738 -12.90617371 101.16316223 C-11.009356 101.16940865 -11.009356 101.16940865 -9.07421875 101.17578125 C-7.0958073 101.19303768 -5.11739573 101.21031759 -3.13899708 101.22898388 C1.7490211 101.27458685 6.63692723 101.31230204 11.52514648 101.32592773 C14.26470482 101.33406488 17.00380599 101.35264182 19.74320984 101.38285828 C22.32512715 101.41103922 24.90726597 101.42391376 27.48933411 101.41999817 C29.2509211 101.44473457 29.2509211 101.44473457 31.0480957 101.4699707 C32.0790889 101.47583694 33.11008209 101.48170319 34.1723175 101.48774719 C37.7599021 102.13766114 39.43383767 103.44868366 42 106 C43.0625 109.4375 43.0625 109.4375 43 113 C41.23358828 115.80189446 39.96950178 117.51524911 37 119 C35.14368313 119.11146083 33.28340355 119.15925133 31.42382812 119.17700195 C30.25501099 119.18983719 29.08619385 119.20267242 27.88195801 119.21589661 C26.61122437 119.22328354 25.34049072 119.23067047 24.03125 119.23828125 C22.72603394 119.246353 21.42081787 119.25442474 20.0760498 119.26274109 C17.30525848 119.27777732 14.53449283 119.28760777 11.76367188 119.29516602 C8.23775065 119.30616938 4.71247125 119.34049269 1.18677521 119.38033772 C-2.19837217 119.41301416 -5.58345722 119.4173027 -8.96875 119.42578125 C-10.85055969 119.45204338 -10.85055969 119.45204338 -12.77038574 119.47883606 C-24.79251469 119.44938 -33.7803138 115.9963142 -42.625 107.75 C-48.9098409 101.2844004 -51.12565175 94.24537493 -51.3125 85.375 C-51.34988281 84.22773438 -51.38726562 83.08046875 -51.42578125 81.8984375 C-50.25125999 71.14456396 -43.61545936 61.32187462 -38.5625 51.9375 C-37.8035762 50.51782407 -37.04510977 49.09790355 -36.28710938 47.67773438 C-32.89729798 41.33864801 -29.51125683 35.01046943 -25.84765625 28.82348633 C-24.22782379 25.33888707 -24.43156949 22.78953676 -25 19 C-26.96137362 16.29385563 -26.96137362 16.29385563 -29 14 C-25.41729624 12.04051325 -21.83372858 10.08261173 -18.25 8.125 C-17.23421875 7.56941406 -16.2184375 7.01382812 -15.171875 6.44140625 C-14.1921875 5.90644531 -13.2125 5.37148438 -12.203125 4.8203125 C-11.30239258 4.32805176 -10.40166016 3.83579102 -9.47363281 3.32861328 C-8.65733398 2.8901709 -7.84103516 2.45172852 -7 2 C-6.29456055 1.61183105 -5.58912109 1.22366211 -4.86230469 0.82373047 C-3 0 -3 0 0 0 Z " fill="#FCFCFC" transform="translate(179,282)"/>
<path d="M0 0 C11.05873307 7.93512601 16.65882619 19.54198063 22.84838867 31.31103516 C24.00994944 33.51891174 25.17920542 35.72258181 26.34960938 37.92578125 C27.09419806 39.33309636 27.8383547 40.74064017 28.58203125 42.1484375 C29.1038372 43.13280289 29.1038372 43.13280289 29.63618469 44.13705444 C31.02282372 46.77882905 32.2419665 49.28839949 33.1875 52.125 C34.62390171 52.32073608 36.06169504 52.50627816 37.5 52.6875 C38.30050781 52.79191406 39.10101563 52.89632812 39.92578125 53.00390625 C42.35567116 53.27255178 42.35567116 53.27255178 45.1875 52.125 C44.59402032 62.85448787 43.53137477 73.46533317 42.1875 84.125 C38.12252792 82.86741557 34.51059788 81.36247765 30.7890625 79.3046875 C29.81582031 78.76972656 28.84257812 78.23476562 27.83984375 77.68359375 C26.84082031 77.12800781 25.84179688 76.57242188 24.8125 76 C23.27916016 75.15501953 23.27916016 75.15501953 21.71484375 74.29296875 C19.20324208 72.9080669 16.69426281 71.51863545 14.1875 70.125 C14.1875 69.465 14.1875 68.805 14.1875 68.125 C14.8475 68.125 15.5075 68.125 16.1875 68.125 C18.21174815 59.4379799 15.5117723 54.51379237 11.25 46.9375 C10.35063721 45.28463989 10.35063721 45.28463989 9.43310547 43.59838867 C8.24139976 41.41680615 7.03983024 39.24057785 5.82763672 37.0703125 C4.448132 34.59303579 3.10535126 32.10287559 1.78515625 29.59375 C-2.14295091 22.2327779 -5.92944355 17.02843897 -13.125 12.75 C-19.6978317 11.22143449 -25.99247827 11.24657593 -31.88745117 14.78198242 C-38.97084908 19.7237417 -42.43884108 27.67839393 -46.1875 35.1875 C-47.32619959 37.42025384 -48.4668156 39.65203137 -49.609375 41.8828125 C-50.43018555 43.4901123 -50.43018555 43.4901123 -51.26757812 45.12988281 C-53.25435658 48.98162081 -55.30481362 52.78980152 -57.4375 56.5625 C-58.32308594 58.13837891 -58.32308594 58.13837891 -59.2265625 59.74609375 C-60.8125 62.125 -60.8125 62.125 -63.8125 64.125 C-69.96265974 64.79592652 -69.96265974 64.79592652 -73.1875 62.25 C-75.91989697 58.6768655 -76.31994734 56.6367595 -75.8125 52.125 C-74.30656067 48.60006658 -72.40909559 45.32006515 -70.5 42 C-69.39820056 40.03919562 -68.29664361 38.07825496 -67.1953125 36.1171875 C-66.63231445 35.12428711 -66.06931641 34.13138672 -65.48925781 33.10839844 C-63.87525737 30.23666206 -62.30104897 27.34728659 -60.7421875 24.4453125 C-60.25919189 23.5495752 -59.77619629 22.65383789 -59.27856445 21.73095703 C-58.36708646 20.03864253 -57.45916123 18.34440793 -56.55541992 16.64794922 C-50.92296885 6.29237995 -43.58672649 -0.45154794 -32.4375 -4.8125 C-21.2943887 -8.02187553 -9.6678828 -6.17979988 0 0 Z " fill="#FBFBFB" transform="translate(276.8125,167.875)"/>
<path d="M0 0 C3.79362339 2.59413904 5.86961044 4.99443304 7.91015625 9.0859375 C8.41933594 10.08858643 8.92851562 11.09123535 9.453125 12.12426758 C10.24976563 13.73338013 10.24976563 13.73338013 11.0625 15.375 C12.20747783 17.63781178 13.35465962 19.89950954 14.50390625 22.16015625 C15.37233154 23.87356201 15.37233154 23.87356201 16.25830078 25.62158203 C18.89940957 30.74460747 21.70200328 35.77408633 24.5 40.8125 C37.74529445 65.00197247 37.74529445 65.00197247 33.875 80.25 C30.38009434 90.44075295 22.46701204 97.57949823 12.9921875 102.23828125 C7.59115153 104.30338324 2.19551075 104.13395548 -3.5 104.140625 C-5.37501224 104.15894342 -7.2500126 104.17851283 -9.125 104.19921875 C-12.06791446 104.22823478 -15.01005791 104.25000166 -17.953125 104.25048828 C-20.80277185 104.25382176 -23.65065888 104.28834834 -26.5 104.328125 C-27.37720703 104.3210553 -28.25441406 104.3139856 -29.15820312 104.30670166 C-33.57646151 104.39468252 -35.43740808 104.56301253 -39.03125 107.35449219 C-41.14084935 109.90140517 -41.14084935 109.90140517 -42 113 C-45.83401618 111.61624948 -48.94991082 109.83573405 -52.30078125 107.5234375 C-53.27724609 106.853125 -54.25371094 106.1828125 -55.25976562 105.4921875 C-56.77086914 104.44417969 -56.77086914 104.44417969 -58.3125 103.375 C-59.33923828 102.66859375 -60.36597656 101.9621875 -61.42382812 101.234375 C-63.95223556 99.49388988 -66.47746624 97.74898214 -69 96 C-66.14578665 93.07494941 -63.42111246 90.83718133 -59.9375 88.6875 C-58.50277344 87.79417969 -58.50277344 87.79417969 -57.0390625 86.8828125 C-56.03617187 86.26148438 -55.03328125 85.64015625 -54 85 C-51.93582276 83.69013938 -49.87324407 82.37775526 -47.8125 81.0625 C-46.20833333 80.04166667 -44.60416667 79.02083333 -43 78 C-42.34 78.99 -41.68 79.98 -41 81 C-38.95781761 83.64399905 -37.36936616 85.68626263 -34.01052856 86.45581055 C-31.57754665 86.62845949 -29.19260081 86.64066765 -26.75390625 86.59375 C-25.86517319 86.59379028 -24.97644012 86.59383057 -24.06077576 86.59387207 C-22.18554597 86.58852271 -20.31031632 86.57096484 -18.43530273 86.54199219 C-15.5753067 86.5001872 -12.71767161 86.50092211 -9.85742188 86.5078125 C-8.03123374 86.49731722 -6.20505768 86.4843773 -4.37890625 86.46875 C-3.52873428 86.46854858 -2.67856232 86.46834717 -1.80262756 86.46813965 C3.88536795 86.35560551 8.24042805 85.45805102 12.64453125 81.53515625 C15.77025877 77.663883 15.77025877 77.663883 17 73 C17.11214844 71.8553125 17.22429687 70.710625 17.33984375 69.53125 C17.31047448 63.73702006 14.50633416 59.32667823 11.75 54.375 C11.21439453 53.38169678 10.67878906 52.38839355 10.12695312 51.36499023 C8.43405333 48.23426146 6.71835199 45.11681868 5 42 C3.88938923 39.96291283 2.77999026 37.92516447 1.671875 35.88671875 C0.12399748 33.04081796 -1.42619862 30.19647974 -2.98925781 27.35888672 C-5.13028479 23.47006756 -7.25934527 19.57481201 -9.30859375 15.63671875 C-9.78123657 14.73312622 -9.78123657 14.73312622 -10.26342773 13.8112793 C-11.69077778 10.30133233 -11.56313703 7.75424688 -11 4 C-7.72794548 0.1505241 -4.96702569 -0.82783761 0 0 Z " fill="#FCFCFC" transform="translate(349,297)"/>
<path d="M0 0 C1.34375702 -0.00856522 1.34375702 -0.00856522 2.71466064 -0.01730347 C3.70014389 -0.01842133 4.68562714 -0.01953918 5.70097351 -0.02069092 C7.25481247 -0.02813828 7.25481247 -0.02813828 8.84004211 -0.03573608 C12.27896277 -0.05038297 15.71783729 -0.05716407 19.15678406 -0.06268311 C21.54091392 -0.06843266 23.92504376 -0.07419042 26.30917358 -0.07995605 C31.31363644 -0.09047337 36.31808319 -0.09631119 41.32255554 -0.09979248 C47.73871908 -0.10527742 54.15467043 -0.12930258 60.5707674 -0.15776443 C65.49752425 -0.17637828 70.42422987 -0.18159576 75.35101891 -0.18312836 C77.71653083 -0.18615845 80.08204179 -0.19419893 82.4475193 -0.20731354 C85.756127 -0.22434679 89.06421489 -0.22250016 92.37284851 -0.21600342 C93.35225906 -0.2252182 94.33166962 -0.23443298 95.34075928 -0.243927 C100.25873753 -0.21363943 103.7998246 -0.16974938 107.73100281 3.14044189 C109.73100281 6.14044189 109.73100281 6.14044189 109.73100281 17.14044189 C70.13100281 17.14044189 30.53100281 17.14044189 -10.26899719 17.14044189 C-10.26899719 6.14044189 -10.26899719 6.14044189 -8.39399719 3.01544189 C-5.42456245 0.39535242 -3.86298969 0.01471864 0 0 Z " fill="#91C761" transform="translate(206.2689971923828,16.85955810546875)"/>
</svg>
