<?xml version="1.0" encoding="UTF-8"?>
<svg version="1.1" xmlns="http://www.w3.org/2000/svg" width="512" height="512">
<path d="M0 0 C0.69891357 -0.00287018 1.39782715 -0.00574036 2.11791992 -0.00869751 C3.59392101 -0.01073675 5.06994921 -0.00521653 6.54589844 0.00732422 C8.80465138 0.0233817 11.06161518 0.0074728 13.3203125 -0.01171875 C14.75521228 -0.00973629 16.19011095 -0.00589256 17.625 0 C18.93082031 0.00338379 20.23664063 0.00676758 21.58203125 0.01025391 C24.8125 0.3984375 24.8125 0.3984375 26.49609375 1.61727905 C28.23198459 3.96601953 28.15820849 5.38447038 28.10546875 8.28515625 C28.09580078 9.22294922 28.08613281 10.16074219 28.07617188 11.12695312 C28.05103516 12.10341797 28.02589844 13.07988281 28 14.0859375 C27.98646484 15.07400391 27.97292969 16.06207031 27.95898438 17.08007812 C27.92362203 19.52007981 27.87427033 21.95898469 27.8125 24.3984375 C28.92368698 24.38955505 30.03487396 24.38067261 31.17973328 24.371521 C41.69766945 24.29011743 52.21554096 24.23032037 62.73372173 24.19118881 C68.14007985 24.17039394 73.54618183 24.14222554 78.95239258 24.09667969 C84.17846475 24.05293149 89.40429193 24.02923962 94.63053322 24.01892853 C96.61545475 24.01158885 98.60036424 23.99725745 100.58518028 23.97551727 C113.8797207 23.83580912 126.31771181 24.01574668 137.75 31.8359375 C138.58402344 32.39152344 139.41804688 32.94710937 140.27734375 33.51953125 C151.38714442 41.75345131 160.43285332 53.51260411 162.5625 67.5234375 C162.645 68.4721875 162.7275 69.4209375 162.8125 70.3984375 C163.864375 70.3365625 164.91625 70.2746875 166 70.2109375 C170.00363117 70.40783739 171.71223887 70.93646543 174.8125 73.3984375 C176.61526847 78.80674291 176.08250945 84.61369599 176.125 90.2734375 C176.15400391 91.55347656 176.18300781 92.83351563 176.21289062 94.15234375 C176.22126953 95.38597656 176.22964844 96.61960937 176.23828125 97.890625 C176.26015503 99.58227783 176.26015503 99.58227783 176.2824707 101.30810547 C175.70331692 105.11638004 174.59905779 106.76896731 171.8125 109.3984375 C169.671875 109.88671875 169.671875 109.88671875 167.5625 109.7109375 C166.325 109.6078125 165.0875 109.5046875 163.8125 109.3984375 C163.82821045 110.25074951 163.8439209 111.10306152 163.86010742 111.98120117 C163.91138962 115.15874976 163.94892482 118.33608663 163.97729492 121.51391602 C163.99233432 122.88638267 164.01277133 124.25880164 164.03881836 125.63110352 C164.07541221 127.60932406 164.09066698 129.58790264 164.10546875 131.56640625 C164.1211792 132.75516357 164.13688965 133.9439209 164.15307617 135.16870117 C163.77504917 138.7535895 163.07629917 140.60674832 160.8125 143.3984375 C158.625 144.2109375 158.625 144.2109375 156.8125 144.3984375 C156.8352664 148.00401066 156.9125221 151.6063994 157 155.2109375 C157.00580078 156.23509766 157.01160156 157.25925781 157.01757812 158.31445312 C157.09970877 161.0977693 157.21760924 163.67720249 157.8125 166.3984375 C160.15434826 168.49772199 160.15434826 168.49772199 162.8125 169.3984375 C163.76412372 172.25330865 163.93413139 174.00298067 163.92602539 176.96166992 C163.92594986 177.88239792 163.92587433 178.80312592 163.92579651 179.75175476 C163.92063522 180.74246475 163.91547394 181.73317474 163.91015625 182.75390625 C163.90803383 184.27906609 163.90803383 184.27906609 163.90586853 185.83503723 C163.90026707 189.08536714 163.88771432 192.33562838 163.875 195.5859375 C163.86998519 197.78841046 163.86542225 199.99088451 163.86132812 202.19335938 C163.85029717 207.59507554 163.83355762 212.99675162 163.8125 218.3984375 C164.42176331 218.3911412 165.03102661 218.38384491 165.65875244 218.37632751 C166.86455963 218.36781517 166.86455963 218.36781517 168.09472656 218.35913086 C168.88961487 218.35183456 169.68450317 218.34453827 170.503479 218.33702087 C186.82836592 218.77123931 200.87217829 229.28002173 211.7734375 240.3984375 C223.37378049 252.96125436 228.94638553 269.17541662 228.93275452 286.20054626 C228.93403615 287.17119431 228.93403615 287.17119431 228.93534368 288.1614514 C228.93697847 290.30940482 228.93151022 292.4572785 228.92602539 294.60522461 C228.92574306 296.15303546 228.92590215 297.70084645 228.9264679 299.24865723 C228.92675408 303.43613751 228.92088627 307.62358897 228.91389394 311.81106257 C228.90763061 316.19260813 228.90705424 320.57415439 228.90586853 324.95570374 C228.90276399 333.24635491 228.89456244 341.53699285 228.88451904 349.82763821 C228.87333064 359.26897338 228.86784058 368.7103092 228.86282361 378.15164936 C228.85237909 397.5672529 228.83479666 416.98284413 228.8125 436.3984375 C229.78832031 436.36363281 230.76414062 436.32882812 231.76953125 436.29296875 C233.04183594 436.26589844 234.31414062 436.23882812 235.625 436.2109375 C236.88957031 436.17613281 238.15414063 436.14132812 239.45703125 436.10546875 C242.8125 436.3984375 242.8125 436.3984375 244.73745728 437.70825195 C246.53480808 440.53405253 246.20239463 443.28920264 246.2109375 446.5859375 C246.21380768 447.28485107 246.21667786 447.98376465 246.21963501 448.70385742 C246.22167425 450.17985851 246.21615403 451.65588671 246.20361328 453.13183594 C246.1875558 455.39058888 246.2034647 457.64755268 246.22265625 459.90625 C246.22067379 461.34114978 246.21683006 462.77604845 246.2109375 464.2109375 C246.20755371 465.51675781 246.20416992 466.82257813 246.20068359 468.16796875 C245.8125 471.3984375 245.8125 471.3984375 244.76759434 473.07674658 C241.75379672 475.11414644 238.65670595 474.80921793 235.14280701 474.77596092 C234.35008538 474.78032124 233.55736375 474.78468157 232.74062026 474.78917402 C230.06185459 474.8001959 227.38359661 474.78967623 224.70483398 474.77938843 C222.77397363 474.78284225 220.84311524 474.78760496 218.91226101 474.79357016 C213.58884116 474.80614761 208.26558168 474.79987925 202.94216108 474.79061151 C197.20794023 474.78384885 191.47374776 474.79428837 185.73953247 474.80255127 C174.49927295 474.81592064 163.25907338 474.81299663 152.01881146 474.80431335 C142.8870375 474.79754978 133.75528039 474.79661432 124.62350464 474.7998848 C122.67711001 474.80057434 122.67711001 474.80057434 120.69139427 474.80127782 C118.05570006 474.80223696 115.42000585 474.8032096 112.78431165 474.8041956 C88.75073067 474.81251456 64.71718213 474.80387419 40.68360637 474.78816781 C18.73078513 474.77393035 -3.22198391 474.77520421 -25.17480469 474.78955078 C-49.82315288 474.80560498 -74.4714695 474.81193482 -99.1198225 474.80271399 C-101.74604988 474.8017583 -104.37227726 474.80081519 -106.99850464 474.7998848 C-108.29080114 474.79942197 -109.58309765 474.79895914 -110.91455466 474.79848229 C-120.03981479 474.79588743 -129.16505645 474.80027405 -138.29031372 474.80732346 C-149.40456537 474.81572031 -160.51875343 474.81349665 -171.63299775 474.79748122 C-177.30822263 474.789574 -182.98334132 474.78654847 -188.65856552 474.79642868 C-193.84726328 474.80532554 -199.03575577 474.80052599 -204.22443473 474.78449602 C-206.10796399 474.78112686 -207.99151035 474.78288973 -209.87502873 474.79012339 C-212.42287285 474.79916268 -214.97000116 474.78997499 -217.51780701 474.77596092 C-218.63094963 474.78649617 -218.63094963 474.78649617 -219.76657999 474.79724425 C-222.67119318 474.7650119 -224.69666999 474.73025042 -227.14259434 473.07674658 C-228.90134109 470.25187851 -228.57744836 467.4869385 -228.5859375 464.2109375 C-228.58880768 463.51202393 -228.59167786 462.81311035 -228.59463501 462.09301758 C-228.59667425 460.61701649 -228.59115403 459.14098829 -228.57861328 457.66503906 C-228.5625558 455.40628612 -228.5784647 453.14932232 -228.59765625 450.890625 C-228.59567379 449.45572522 -228.59183006 448.02082655 -228.5859375 446.5859375 C-228.58255371 445.28011719 -228.57916992 443.97429687 -228.57568359 442.62890625 C-228.1875 439.3984375 -228.1875 439.3984375 -227.11181641 437.4609375 C-224.09923395 435.79755779 -221.3991096 436.11738402 -218 436.2109375 C-216.72769531 436.23800781 -215.45539063 436.26507813 -214.14453125 436.29296875 C-212.68080078 436.34517578 -212.68080078 436.34517578 -211.1875 436.3984375 C-211.19194122 435.71827576 -211.19638245 435.03811401 -211.20095825 434.33734131 C-211.24516999 427.26479186 -211.27535752 420.1922816 -211.29736328 413.11962891 C-211.30742719 410.47931321 -211.32107952 407.83900867 -211.33837891 405.19873047 C-211.36260971 401.40589647 -211.37397923 397.61320971 -211.3828125 393.8203125 C-211.39829636 392.04669342 -211.39829636 392.04669342 -211.41409302 390.23724365 C-211.41424408 389.13640442 -211.41439514 388.03556519 -211.41455078 386.90136719 C-211.418992 385.93318054 -211.42343323 384.9649939 -211.42800903 383.96746826 C-211.16875841 381.19824661 -210.86774992 379.62257765 -209.1875 377.3984375 C-207.5375 377.0684375 -205.8875 376.7384375 -204.1875 376.3984375 C-204.1875 371.7784375 -204.1875 367.1584375 -204.1875 362.3984375 C-205.8375 362.0684375 -207.4875 361.7384375 -209.1875 361.3984375 C-212.44605719 357.02186872 -211.556061 351.16043094 -211.5625 345.9609375 C-211.58699219 344.92388672 -211.61148438 343.88683594 -211.63671875 342.81835938 C-211.66592925 335.23823353 -211.66592925 335.23823353 -209.3515625 331.17578125 C-207.1875 329.3984375 -207.1875 329.3984375 -204.1875 329.3984375 C-204.1875 325.1084375 -204.1875 320.8184375 -204.1875 316.3984375 C-205.5075 316.0684375 -206.8275 315.7384375 -208.1875 315.3984375 C-210.66552049 313.05192815 -211.15597513 311.65454241 -211.57568359 308.24487305 C-211.57906738 307.0206665 -211.58245117 305.79645996 -211.5859375 304.53515625 C-211.58880768 303.86611771 -211.59167786 303.19707916 -211.59463501 302.50776672 C-211.5966741 301.08809567 -211.59115492 299.66839642 -211.57861328 298.2487793 C-211.5628332 296.13066186 -211.57831785 294.01453518 -211.59765625 291.89648438 C-211.63188426 270.11377685 -205.58046549 252.36326491 -190.5625 236.2109375 C-178.48957577 224.54600764 -162.82374817 218.3984375 -146.1875 218.3984375 C-146.1875 182.4284375 -146.1875 146.4584375 -146.1875 109.3984375 C-148.8275 109.3984375 -151.4675 109.3984375 -154.1875 109.3984375 C-157.19758329 106.84107216 -158.05148585 105.22762741 -158.68920898 101.33984375 C-158.68735596 100.22480469 -158.68550293 99.10976562 -158.68359375 97.9609375 C-158.68423828 96.73632812 -158.68488281 95.51171875 -158.68554688 94.25 C-158.66556641 92.97898437 -158.64558594 91.70796875 -158.625 90.3984375 C-158.63208984 89.12742187 -158.63917969 87.85640625 -158.64648438 86.546875 C-158.57297288 75.80288744 -158.57297288 75.80288744 -155.1875 71.3984375 C-151.71424819 70.2406869 -148.82682552 70.32977098 -145.1875 70.3984375 C-145.11273438 69.81578125 -145.03796875 69.233125 -144.9609375 68.6328125 C-142.79732039 55.14202349 -135.50351409 42.84246306 -124.49438477 34.70385742 C-114.20307801 27.48097047 -104.74865825 24.23103395 -92.26635742 24.28491211 C-91.37805237 24.28476608 -90.48974731 24.28462006 -89.57452393 24.2844696 C-86.64731376 24.28516457 -83.72016775 24.2929375 -80.79296875 24.30078125 C-78.75987279 24.30264691 -76.72677638 24.30407011 -74.69367981 24.30506897 C-69.34911859 24.30888251 -64.00458464 24.31870288 -58.66003418 24.32977295 C-53.20369842 24.34001207 -47.74735823 24.34457195 -42.29101562 24.34960938 C-31.58983178 24.36032618 -20.88866816 24.37738865 -10.1875 24.3984375 C-10.21106567 23.46777466 -10.21106567 23.46777466 -10.23510742 22.51831055 C-10.29746214 19.70761222 -10.33649148 16.89705938 -10.375 14.0859375 C-10.40013672 13.10947266 -10.42527344 12.13300781 -10.45117188 11.12695312 C-10.46567383 9.72026367 -10.46567383 9.72026367 -10.48046875 8.28515625 C-10.50403442 6.98904419 -10.50403442 6.98904419 -10.52807617 5.66674805 C-10.1875 3.3984375 -10.1875 3.3984375 -8.87109375 1.61727905 C-6.09408029 -0.39314621 -3.36507322 0.00871996 0 0 Z M-164.6171875 265.55859375 C-170.44198938 272.38317506 -172.31489875 280.08017155 -172.30775452 288.84614563 C-172.30912918 290.14879868 -172.31050385 291.45145172 -172.31192017 292.7935791 C-172.30838145 294.2299807 -172.30474665 295.66638207 -172.30102539 297.1027832 C-172.30074321 298.62074278 -172.30090186 300.13870249 -172.3014679 301.65666199 C-172.30175466 305.77194912 -172.2958774 309.88720707 -172.28889394 314.00248742 C-172.28264034 318.30530159 -172.28205501 322.60811644 -172.28086853 326.91093445 C-172.27776114 335.05644686 -172.26955571 343.20194584 -172.25951904 351.34745234 C-172.24833954 360.62187609 -172.24284282 369.89630047 -172.23782361 379.17072928 C-172.22737262 398.24663984 -172.20958305 417.3225371 -172.1875 436.3984375 C-163.6075 436.3984375 -155.0275 436.3984375 -146.1875 436.3984375 C-146.1875 377.3284375 -146.1875 318.2584375 -146.1875 257.3984375 C-153.25552329 257.3984375 -159.44188334 260.82860646 -164.6171875 265.55859375 Z M163.8125 257.3984375 C163.8125 316.4684375 163.8125 375.5384375 163.8125 436.3984375 C172.3925 436.3984375 180.9725 436.3984375 189.8125 436.3984375 C189.88203583 416.49205878 189.93552936 396.58571452 189.96793652 376.67923927 C189.98338567 367.4356942 190.00443779 358.19222612 190.03881836 348.94873047 C190.06878057 340.88928562 190.08808918 332.82989655 190.09476548 324.77039754 C190.09866621 320.50549815 190.10779254 316.2407583 190.12969017 311.97591019 C190.15016326 307.95566 190.1563121 303.93563398 190.15182304 299.91533661 C190.15264343 298.44564722 190.15854438 296.97594976 190.17011642 295.50630569 C190.25644797 283.96922464 189.43664729 274.43882404 181.8359375 265.37890625 C176.32571453 259.98569574 171.42573125 258.48604196 163.8125 257.3984375 Z " fill="#051821" transform="translate(247.1875,18.6015625)"/>
<path d="M0 0 C33.33 0 66.66 0 101 0 C101.495 14.355 101.495 14.355 102 29 C104.9625314 32.99307717 104.9625314 32.99307717 109 35 C109.1743959 38.58271776 109.28087658 42.16434602 109.375 45.75 C109.42527344 46.76578125 109.47554688 47.7815625 109.52734375 48.828125 C109.58346323 51.67151178 109.57315978 54.21282543 109 57 C106.0390625 59.640625 106.0390625 59.640625 103 61 C101.43569075 62.56430925 101.86852204 64.08597124 101.8613348 66.26165104 C101.85586036 67.18674192 101.85038591 68.11183279 101.84474558 69.06495672 C101.84376747 70.09314518 101.84278936 71.12133364 101.84178162 72.18067932 C101.83684364 73.26367512 101.83190566 74.34667092 101.82681805 75.46248478 C101.8113585 79.12155397 101.80305966 82.7806055 101.79467773 86.43969727 C101.78510585 89.05065061 101.77509619 91.66160238 101.76467896 94.27255249 C101.74288498 99.90924401 101.72475123 105.54593789 101.70907402 111.18264961 C101.68640191 119.33247857 101.65825546 127.4822813 101.62875474 135.63208806 C101.58104614 148.85326525 101.53779085 162.07445313 101.49731445 175.2956543 C101.45797613 188.14201694 101.41655392 200.98837006 101.37231445 213.8347168 C101.36959018 214.6260079 101.36686591 215.41729901 101.36405908 216.23256863 C101.35037988 220.202077 101.33665955 224.17158522 101.32291877 228.14109337 C101.20890267 261.0940436 101.10292121 294.04701279 101 327 C67.67 327 34.34 327 0 327 C0 219.09 0 111.18 0 0 Z " fill="#3AA8FC" transform="translate(295,128)"/>
<path d="M0 0 C33.33 0 66.66 0 101 0 C101 107.91 101 215.82 101 327 C67.67 327 34.34 327 0 327 C0 219.09 0 111.18 0 0 Z " fill="#3BA9FD" transform="translate(116,128)"/>
<path d="M0 0 C1.30859651 -0.00913666 1.30859651 -0.00913666 2.64362931 -0.01845789 C5.54284881 -0.03499708 8.44162473 -0.03032509 11.34088135 -0.0255127 C13.42946831 -0.03285838 15.51805121 -0.04144606 17.60662842 -0.05117798 C23.26384882 -0.07335211 28.92092338 -0.07632663 34.57818127 -0.07443047 C39.30948555 -0.07431055 44.04075918 -0.08288329 48.77205491 -0.09120798 C59.94020026 -0.11042801 71.10827087 -0.11333125 82.27642822 -0.10656738 C93.77639982 -0.09993033 105.27605037 -0.1227809 116.77595687 -0.15988111 C126.66757351 -0.19062837 136.55908715 -0.2019326 146.45075059 -0.1980443 C152.350462 -0.1959817 158.24992362 -0.20138041 164.14958954 -0.22593689 C169.70164938 -0.24828387 175.25318934 -0.24625991 180.80525208 -0.22600937 C182.83485065 -0.22261319 184.86448476 -0.22762786 186.89403534 -0.24199295 C202.30074957 -0.34345651 215.25682874 1.07621466 226.88092041 12.39440918 C232.20786528 18.23493842 236.88092041 25.32721421 236.88092041 33.39440918 C235.30664371 33.3993744 235.30664371 33.3993744 233.70056343 33.40443993 C208.19687824 33.4853321 182.69325382 33.57761607 157.1896534 33.68193626 C144.85644911 33.73211871 132.52325165 33.77856087 120.19000244 33.81628418 C109.44390514 33.84916231 98.69786004 33.88897016 87.95182025 33.93719923 C82.25866527 33.96250591 76.56554509 33.98427476 70.87234879 33.99775314 C65.5191811 34.01053581 60.16613255 34.03254877 54.81303024 34.06179237 C52.84333835 34.07089797 50.87362727 34.07656528 48.90391541 34.07862282 C46.22449266 34.08192441 43.54541204 34.09734409 40.86605835 34.11593628 C40.07813058 34.11400154 39.29020281 34.11206681 38.47839844 34.11007345 C34.21818362 34.00322184 34.21818362 34.00322184 30.88092041 36.39440918 C30.32125587 41.0291871 30.32125587 41.0291871 32.16654569 45.09301788 C35.15442041 47.36113005 38.83508832 46.81415867 42.44187927 46.7931366 C43.32648986 46.79978342 44.21110044 46.80643025 45.12251741 46.8132785 C48.09833445 46.83198932 51.07375227 46.82929778 54.04962158 46.82678223 C56.17812166 46.83579445 58.30661653 46.84612033 60.43510437 46.85766602 C66.22401187 46.88532549 72.01282114 46.89453267 77.80178618 46.90052009 C83.84767943 46.90988051 89.89349862 46.93608194 95.93934631 46.96052551 C107.3927556 47.0042585 118.84615058 47.03276368 130.29961807 47.0558489 C143.33696694 47.08286416 156.37424158 47.12677789 169.41153753 47.17213762 C196.23462495 47.26508128 223.05773565 47.33671746 249.88092041 47.39440918 C249.88092041 50.69440918 249.88092041 53.99440918 249.88092041 57.39440918 C149.56092041 57.39440918 49.24092041 57.39440918 -54.11907959 57.39440918 C-54.11907959 54.09440918 -54.11907959 50.79440918 -54.11907959 47.39440918 C-52.47391357 47.36935303 -50.82874756 47.34429687 -49.13372803 47.31848145 C-43.03582839 47.22438154 -36.93804197 47.12416694 -30.840271 47.02209473 C-28.19999844 46.97875569 -25.55969804 46.93707988 -22.91937256 46.89709473 C-19.12648117 46.83936752 -15.3337298 46.77567969 -11.54095459 46.71081543 C-9.76733551 46.68574669 -9.76733551 46.68574669 -7.95788574 46.66017151 C-6.85704651 46.64022629 -5.75620728 46.62028107 -4.62200928 46.59973145 C-3.65382263 46.58418716 -2.68563599 46.56864288 -1.68811035 46.55262756 C0.64057111 46.40921152 2.64936258 46.05086946 4.88092041 45.39440918 C4.96188844 43.93698455 5.02009815 42.47828111 5.06842041 41.01940918 C5.1032251 40.2072998 5.13802979 39.39519043 5.17388916 38.55847168 C5.07720947 37.84433105 4.98052979 37.13019043 4.88092041 36.39440918 C1.80052188 34.34081016 1.08607343 34.13702184 -2.40692139 34.07556152 C-3.26758713 34.05569183 -4.12825287 34.03582214 -5.01499939 34.01535034 C-5.94008804 34.00379913 -6.8651767 33.99224792 -7.81829834 33.98034668 C-8.76848343 33.96098053 -9.71866852 33.94161438 -10.69764709 33.92166138 C-13.73386649 33.86186006 -16.77012378 33.81547789 -19.80657959 33.76940918 C-21.86453887 33.73122992 -23.92248217 33.69217822 -25.98040771 33.65222168 C-31.02650189 33.55615799 -36.07267088 33.47212887 -41.11907959 33.39440918 C-39.83025938 23.59694924 -35.41693079 16.1112664 -28.11907959 9.39440918 C-19.47486962 3.05818894 -10.68136574 -0.07135276 0 0 Z " fill="#3AA7FB" transform="translate(158.11907958984375,56.6055908203125)"/>
<path d="M0 0 C147.18 0 294.36 0 446 0 C446 3.3 446 6.6 446 10 C298.82 10 151.64 10 0 10 C0 6.7 0 3.4 0 0 Z " fill="#0E8BCE" transform="translate(33,469)"/>
<path d="M0 0 C0.495 0.99 0.495 0.99 1 2 C8.26 2 15.52 2 23 2 C23.33 1.34 23.66 0.68 24 0 C24.28875 0.94875 24.5775 1.8975 24.875 2.875 C25.76825109 6.05211578 25.76825109 6.05211578 28 8 C30.84501004 8.20571542 33.59383939 8.28507223 36.44070435 8.2784729 C37.32446051 8.2842653 38.20821666 8.2900577 39.11875331 8.29602563 C42.09759713 8.31311101 45.07628683 8.31590944 48.05517578 8.31884766 C50.18352645 8.32813995 52.31187344 8.33830756 54.44021606 8.34928894 C60.23329351 8.37668184 66.02634652 8.39176578 71.81947184 8.40471697 C77.868029 8.420307 83.91653595 8.44711028 89.96505737 8.4727478 C101.42557897 8.51960891 112.88610993 8.55631746 124.34667861 8.58942068 C137.39124782 8.62759037 150.43576668 8.67701395 163.48029351 8.72740483 C190.3201584 8.8308337 217.16005561 8.92005836 244 9 C244 12.3 244 15.6 244 19 C143.68 19 43.36 19 -60 19 C-60 15.7 -60 12.4 -60 9 C-58.35483398 8.97494385 -56.70966797 8.9498877 -55.01464844 8.92407227 C-48.9167488 8.82997236 -42.81896238 8.72975776 -36.72119141 8.62768555 C-34.08091885 8.58434651 -31.44061845 8.5426707 -28.80029297 8.50268555 C-25.00740158 8.44495834 -21.21465021 8.38127051 -17.421875 8.31640625 C-15.64825592 8.29133751 -15.64825592 8.29133751 -13.83880615 8.26576233 C-12.73796692 8.24581711 -11.63712769 8.22587189 -10.50292969 8.20532227 C-9.53474304 8.18977798 -8.5665564 8.1742337 -7.56903076 8.15821838 C-5.2403493 8.01480234 -3.23155783 7.65646028 -1 7 C-0.67 4.69 -0.34 2.38 0 0 Z " fill="#0D88CA" transform="translate(164,95)"/>
<path d="M0 0 C0 3.3 0 6.6 0 10 C-1.21623047 10.22042969 -1.21623047 10.22042969 -2.45703125 10.4453125 C-16.31043786 13.25147403 -26.84494108 19.04526813 -34.8125 30.9375 C-40.06611607 40.3087274 -40.44461829 49.15889593 -40.43237305 59.70922852 C-40.44140195 61.28689842 -40.45173192 62.86456132 -40.46325684 64.44221497 C-40.49072064 68.70189554 -40.50009684 72.96144262 -40.50611091 77.22120023 C-40.51552235 81.68153196 -40.54172791 86.14176507 -40.56611633 90.60203552 C-40.60970901 99.03779955 -40.63830033 107.47354435 -40.66143972 115.90938658 C-40.68853024 125.51769196 -40.73243932 135.12589778 -40.77772844 144.73413193 C-40.87047109 164.48936765 -40.94219927 184.24463317 -41 204 C-44.3 204 -47.6 204 -51 204 C-51.0093457 202.35483398 -51.01869141 200.70966797 -51.02832031 199.01464844 C-51.06816239 192.91655297 -51.13390608 186.81896507 -51.20751953 180.72119141 C-51.23576253 178.0809582 -51.25696038 175.44063992 -51.27099609 172.80029297 C-51.29237856 169.0070428 -51.33900791 165.21481921 -51.390625 161.421875 C-51.39185364 160.23946228 -51.39308228 159.05704956 -51.39434814 157.83880615 C-51.41406677 156.73796692 -51.4337854 155.63712769 -51.45410156 154.50292969 C-51.46742523 153.05064972 -51.46742523 153.05064972 -51.48101807 151.56903076 C-52.14946706 148.26011783 -53.39205514 147.08134417 -56 145 C-56.99 144.67 -57.98 144.34 -59 144 C-59 139.38 -59 134.76 -59 130 C-60.65 129.67 -62.3 129.34 -64 129 C-67.25855719 124.62343122 -66.368561 118.76199344 -66.375 113.5625 C-66.39949219 112.52544922 -66.42398438 111.48839844 -66.44921875 110.41992188 C-66.47842925 102.83979603 -66.47842925 102.83979603 -64.1640625 98.77734375 C-62 97 -62 97 -59 97 C-59 92.71 -59 88.42 -59 84 C-57.5459375 83.319375 -57.5459375 83.319375 -56.0625 82.625 C-52.92920418 81.34213779 -52.92920418 81.34213779 -52 79 C-51.89155058 76.5276892 -51.83863315 74.078592 -51.82421875 71.60546875 C-51.80097784 70.07615876 -51.77685892 68.54686191 -51.75195312 67.01757812 C-51.71718847 64.61978924 -51.68769872 62.22247026 -51.67407227 59.82446289 C-51.57063899 44.58476381 -49.12424871 32.61108974 -40 20 C-39.2575 18.948125 -38.515 17.89625 -37.75 16.8125 C-27.68856905 6.52240016 -14.5269194 -0.27936383 0 0 Z " fill="#E4E4EA" transform="translate(102,251)"/>
<path d="M0 0 C12.37538855 0.48850218 22.13197882 4.59424898 32 12 C32.8146875 12.59425781 33.629375 13.18851562 34.46875 13.80078125 C43.08484307 21.28667692 49.11975442 32.80097257 51 44 C51.08787117 46.2237894 51.12200003 48.44996722 51.12025452 50.67549133 C51.12110894 51.33313183 51.12196337 51.99077234 51.12284368 52.66834134 C51.12448603 54.86396458 51.11899757 57.0595108 51.11352539 59.25512695 C51.11324322 60.83219908 51.11340183 62.40927133 51.1139679 63.98634338 C51.11425472 68.26278194 51.10837652 72.53919244 51.10139394 76.81562448 C51.09514131 81.286602 51.09455509 85.75758018 51.09336853 90.2285614 C51.09026085 98.69281728 51.08205504 107.15706023 51.07201904 115.62131041 C51.06084043 125.25848428 51.05534304 134.89565877 51.05032361 144.53283751 C51.03987197 164.35523222 51.02228341 184.17761529 51 204 C47.7 204 44.4 204 41 204 C40.99945523 203.18646435 40.99891047 202.3729287 40.99834919 201.53474045 C40.98335524 181.7022164 40.94080285 161.86991647 40.86790943 142.03751755 C40.83331651 132.44653553 40.8079114 122.85569639 40.80444336 113.26464844 C40.80139552 104.90109282 40.78079524 96.53779203 40.73947543 88.17433476 C40.71821787 83.74948922 40.70550733 79.3250053 40.71384621 74.90010834 C40.72143255 70.7269588 40.70537958 66.55453919 40.67193985 62.38152313 C40.66376136 60.85788117 40.6638913 59.33416584 40.67340279 57.81053162 C40.75356278 43.5465538 37.11232067 32.54116581 27.2265625 22.1328125 C19.47437595 14.76032489 10.40023193 11.65800799 0 10 C0 6.7 0 3.4 0 0 Z " fill="#E3E4EA" transform="translate(410,251)"/>
<path d="M0 0 C16.5 0 33 0 50 0 C50 7.92 50 15.84 50 24 C33.5 24 17 24 0 24 C0 16.08 0 8.16 0 0 Z " fill="#3AA8FC" transform="translate(231,431)"/>
<path d="M0 0 C16.5 0 33 0 50 0 C50 7.92 50 15.84 50 24 C33.5 24 17 24 0 24 C0 16.08 0 8.16 0 0 Z " fill="#3AA7FB" transform="translate(231,393)"/>
<path d="M0 0 C16.5 0 33 0 50 0 C50 7.92 50 15.84 50 24 C33.5 24 17 24 0 24 C0 16.08 0 8.16 0 0 Z " fill="#3AA7FA" transform="translate(231,355)"/>
<path d="M0 0 C16.5 0 33 0 50 0 C50 7.92 50 15.84 50 24 C33.5 24 17 24 0 24 C0 16.08 0 8.16 0 0 Z " fill="#3AA7F9" transform="translate(231,317)"/>
<path d="M0 0 C16.5 0 33 0 50 0 C50 7.92 50 15.84 50 24 C33.5 24 17 24 0 24 C0 16.08 0 8.16 0 0 Z " fill="#3AA6F9" transform="translate(231,279)"/>
<path d="M0 0 C16.5 0 33 0 50 0 C50 7.92 50 15.84 50 24 C33.5 24 17 24 0 24 C0 16.08 0 8.16 0 0 Z " fill="#39A6F8" transform="translate(231,204)"/>
<path d="M0 0 C16.5 0 33 0 50 0 C50 7.92 50 15.84 50 24 C33.5 24 17 24 0 24 C0 16.08 0 8.16 0 0 Z " fill="#3AA6F9" transform="translate(231,166)"/>
<path d="M0 0 C16.5 0 33 0 50 0 C50 7.92 50 15.84 50 24 C33.5 24 17 24 0 24 C0 16.08 0 8.16 0 0 Z " fill="#3AA7F9" transform="translate(231,128)"/>
<path d="M0 0 C16.5 0 33 0 50 0 C50 7.59 50 15.18 50 23 C33.5 23 17 23 0 23 C0 15.41 0 7.82 0 0 Z " fill="#3BA9FD" transform="translate(231,242)"/>
<path d="M0 0 C3.77316838 0.6288614 4.71039582 1.46173159 7 4.5 C7.3982295 7.20194958 7.56200004 9.48914572 7.53125 12.1875 C7.5350769 12.92701904 7.53890381 13.66653809 7.54284668 14.4284668 C7.54556271 15.9884579 7.53822292 17.54849478 7.52148438 19.10839844 C7.50006673 21.49257186 7.52129263 23.87373249 7.546875 26.2578125 C7.54423166 27.7760483 7.53910656 29.29428223 7.53125 30.8125 C7.53934692 31.52301514 7.54744385 32.23353027 7.55578613 32.96557617 C7.49191605 36.34681336 7.20453982 38.21977824 5.18945312 40.98046875 C3 42.5 3 42.5 -0.5625 42.5 C-4 41.5 -4 41.5 -5.68774414 39.90429688 C-7.46750162 36.64345005 -7.44904106 33.65487679 -7.43359375 30.03125 C-7.4388356 29.313927 -7.44407745 28.596604 -7.44947815 27.85754395 C-7.45588642 26.34465832 -7.45457678 24.83172279 -7.44604492 23.31884766 C-7.43752666 21.0072348 -7.46632027 18.69808811 -7.49804688 16.38671875 C-7.49965891 14.91406324 -7.49908132 13.44140336 -7.49609375 11.96875 C-7.50732773 11.28010864 -7.51856171 10.59146729 -7.53013611 9.88195801 C-7.48155016 6.52856274 -7.20373523 4.7691647 -5.15649414 2.06445312 C-3 0.5 -3 0.5 0 0 Z " fill="#061A25" transform="translate(379,343.5)"/>
<path d="M0 0 C4.26834132 0.87109007 5.46644894 2.10888426 8.0625 5.625 C8.80692419 9.47062512 8.76064228 13.21920235 8.6875 17.125 C8.70683594 18.15753906 8.72617187 19.19007813 8.74609375 20.25390625 C8.71448407 25.15340667 8.67996297 27.78525035 5.71875 31.8125 C2.49702648 34.01085252 0.88647353 34.29003888 -2.9375 33.625 C-4.97417615 32.07993534 -5.79823078 30.90353844 -6.9375 28.625 C-7.23245558 24.86055311 -7.2154968 21.08715053 -7.25 17.3125 C-7.27900391 16.26642578 -7.30800781 15.22035156 -7.33789062 14.14257812 C-7.40169627 6.43191139 -7.40169627 6.43191139 -5.1015625 2.43359375 C-2.9375 0.625 -2.9375 0.625 0 0 Z " fill="#091A23" transform="translate(42.9375,347.375)"/>
<path d="M0 0 C3.3 0 6.6 0 10 0 C10 3.3 10 6.6 10 10 C6.7 10 3.4 10 0 10 C0 6.7 0 3.4 0 0 Z " fill="#0E8BCE" transform="translate(251,33)"/>
</svg>
